SplineFontDB: 3.0
FontName: Chivo-Italic
FullName: Chivo Italic
FamilyName: Chivo
Weight: Normal
Copyright: Chivo (Goat) is a new Omnibus-Type grotesque. The strength of Chivo Italic make it ideal for highlights and headlines. Chivo Italic eleganceE^makes it ideal forE^combining the strength ofE^Chivo family and to use in texts for continuous reading.E^ItsE^designE^detail becomesE^an indispensable ally for any designer.
Version: 001.001
ItalicAngle: -8
UnderlinePosition: -50
UnderlineWidth: 50
Ascent: 800
Descent: 200
sfntRevision: 0x00010000
LayerCount: 2
Layer: 0 1 "Back"  1
Layer: 1 1 "Fore"  0
XUID: [1021 288 713564382 698485]
FSType: 0
OS2Version: 2
OS2_WeightWidthSlopeOnly: 0
OS2_UseTypoMetrics: 1
CreationTime: 1323174746
ModificationTime: 1323208554
PfmFamily: 17
TTFWeight: 400
TTFWidth: 5
LineGap: 0
VLineGap: 0
Panose: 2 0 0 0 0 0 0 0 0 0
OS2TypoAscent: 937
OS2TypoAOffset: 0
OS2TypoDescent: -250
OS2TypoDOffset: 0
OS2TypoLinegap: 0
OS2WinAscent: 937
OS2WinAOffset: 0
OS2WinDescent: 250
OS2WinDOffset: 0
HheadAscent: 937
HheadAOffset: 0
HheadDescent: -250
HheadDOffset: 0
OS2SubXSize: 700
OS2SubYSize: 650
OS2SubXOff: 0
OS2SubYOff: 140
OS2SupXSize: 700
OS2SupYSize: 650
OS2SupXOff: 0
OS2SupYOff: 477
OS2StrikeYSize: 50
OS2StrikeYPos: 250
OS2FamilyClass: 2054
OS2Vendor: 'PfEd'
OS2CodePages: 00000001.00000000
OS2UnicodeRanges: 80000001.5000204a.00000000.00000000
Lookup: 258 0 0 "'kern' Horizontal Kerning in Latin lookup 0"  {"'kern' Horizontal Kerning in Latin lookup 0 subtable"  } ['kern' ('DFLT' <'dflt' > 'latn' <'dflt' > ) ]
MarkAttachClasses: 1
DEI: 91125
TtTable: prep
PUSHW_1
 511
SCANCTRL
PUSHB_1
 4
SCANTYPE
EndTTInstrs

StartChar: .notdef
Encoding: 65536 -1 0
Width: 500
Flags: MW
HStem: 0 50<80 420 80 500> 650 50<80 420 80 80>
VStem: 0 50<95 605 95 700> 450 50<95 605 605 605>
LayerCount: 2
Fore
SplineSet
500 0 m 1,0,-1
 0 0 l 1,1,-1
 0 700 l 1,2,-1
 500 700 l 1,3,-1
 500 0 l 1,0,-1
50 605 m 1,4,-1
 50 95 l 1,5,-1
 220 350 l 1,6,-1
 50 605 l 1,4,-1
250 305 m 1,7,-1
 80 50 l 1,8,-1
 420 50 l 1,9,-1
 250 305 l 1,7,-1
420 650 m 1,10,-1
 80 650 l 1,11,-1
 250 395 l 1,12,-1
 420 650 l 1,10,-1
450 605 m 1,13,-1
 280 350 l 1,14,-1
 450 95 l 1,15,-1
 450 605 l 1,13,-1
EndSplineSet
EndChar

StartChar: exclam
Encoding: 33 33 4
Width: 269
Flags: MW
HStem: 0 111<59 144 43 160> 666 20G<133 248 248 248>
LayerCount: 2
Fore
SplineSet
144 0 m 1,0,-1
 43 0 l 1,1,-1
 59 111 l 1,2,-1
 160 111 l 1,3,-1
 144 0 l 1,0,-1
85 174 m 1,4,-1
 133 686 l 1,5,-1
 248 686 l 1,6,7
 232 631 232 631 151 174 c 1,8,-1
 85 174 l 1,4,-1
EndSplineSet
EndChar

StartChar: quotedbl
Encoding: 34 34 5
Width: 363
Flags: MW
HStem: 407 21G<98 139 98 98 252 252 252 292> 666 20G<119 201 201 201 273 355 355 355>
LayerCount: 2
Fore
SplineSet
139 407 m 1,0,-1
 98 407 l 1,1,-1
 98 539 l 1,2,-1
 119 686 l 1,3,-1
 201 686 l 1,4,-1
 180 539 l 1,5,6
 173 515 173 515 159 471 c 128,-1,7
 145 427 145 427 139 407 c 1,0,-1
292 407 m 1,8,-1
 252 407 l 1,9,-1
 252 539 l 1,10,-1
 273 686 l 1,11,-1
 355 686 l 1,12,-1
 334 539 l 1,13,14
 308 460 308 460 292 407 c 1,8,-1
EndSplineSet
EndChar

StartChar: numbersign
Encoding: 35 35 6
Width: 644
Flags: MW
HStem: 0 21G<58 134 58 58 284 360 284 284> 179 76<24 123 14 150 24 199 226 349 452 558> 410 76<96 206 85 234 310 432 96 282 536 630> 676 20G<310 386 386 386 536 612 612 612>
LayerCount: 2
Fore
SplineSet
123 179 m 1,0,-1
 14 179 l 1,1,-1
 24 255 l 1,2,-1
 150 255 l 1,3,-1
 206 410 l 1,4,-1
 85 410 l 1,5,-1
 96 486 l 1,6,-1
 234 486 l 1,7,-1
 310 696 l 1,8,-1
 386 696 l 1,9,-1
 310 486 l 1,10,-1
 460 486 l 1,11,-1
 536 696 l 1,12,-1
 612 696 l 1,13,-1
 536 486 l 1,14,-1
 641 486 l 1,15,-1
 630 410 l 1,16,-1
 508 410 l 1,17,-1
 452 255 l 1,18,-1
 568 255 l 1,19,-1
 558 179 l 1,20,-1
 425 179 l 1,21,-1
 360 0 l 1,22,-1
 284 0 l 1,23,-1
 349 179 l 1,24,-1
 199 179 l 1,25,-1
 134 0 l 1,26,-1
 58 0 l 1,27,-1
 123 179 l 1,0,-1
282 410 m 1,28,-1
 226 255 l 1,29,-1
 376 255 l 1,30,-1
 432 410 l 1,31,-1
 282 410 l 1,28,-1
EndSplineSet
EndChar

StartChar: dollar
Encoding: 36 36 7
Width: 546
Flags: MW
HStem: -66 171<203 256 183 292.5> 19 86<256 292.5 203 316> 19 208<23 316> 483 188<244.5 525 244.5 430> 586 85<276.5 298 244.5 349 244.5 351> 586 174<298 351>
VStem: 17 96<162 184.5> 73 40 298 207 408 97<178 284> 433 72 433 95<519.5 534.5>
LayerCount: 2
Fore
SplineSet
430 483 m 1,0,-1
 433 509 l 1,1,2
 433 546 433 546 401.5 566 c 128,-1,3
 370 586 370 586 311 586 c 128,-1,4
 252 586 252 586 211 563 c 128,-1,5
 170 540 170 540 170 494 c 0,6,7
 170 434.727272727 170 434.727272727 288.5 406 c 0,8,9
 338 394 338 394 387 379 c 128,-1,10
 436 364 436 364 470.5 330 c 128,-1,11
 505 296 505 296 505 239 c 128,-1,12
 505 182 505 182 483.5 137 c 128,-1,13
 462 92 462 92 425 67 c 0,14,15
 353.96 19 353.96 19 256 19 c 1,16,-1
 256 -66 l 1,17,-1
 183 -66 l 1,18,-1
 206 20 l 1,19,20
 120 24 120 24 68.5 62.5 c 128,-1,21
 17 101 17 101 17 177 c 0,22,23
 17 208 17 208 23 227 c 1,24,-1
 118 227 l 1,25,26
 113 222 113 222 113 192 c 0,27,28
 113 148 113 148 147.5 126.5 c 128,-1,29
 182 105 182 105 251 105 c 128,-1,30
 320 105 320 105 364 133 c 128,-1,31
 408 161 408 161 408 214 c 0,32,33
 408 252 408 252 373.5 274.5 c 128,-1,34
 339 297 339 297 290 309 c 128,-1,35
 241 321 241 321 191.5 335 c 128,-1,36
 142 349 142 349 107.5 383 c 128,-1,37
 73 417 73 417 73 471 c 0,38,39
 73 571 73 571 140 621 c 128,-1,40
 207 671 207 671 298 671 c 1,41,-1
 298 760 l 1,42,-1
 373 760 l 1,43,-1
 349 671 l 1,44,45
 430 667 430 667 479 630.5 c 128,-1,46
 528 594 528 594 528 524 c 0,47,48
 528 506 528 506 525 483 c 1,49,-1
 430 483 l 1,0,-1
EndSplineSet
EndChar

StartChar: percent
Encoding: 37 37 8
Width: 700
Flags: MW
HStem: -1 55<493.5 500 500 507> 0 21G<66 136 66 66> 293 55<549 556 556 562.5> 336 55<151.5 158 158 165> 630 55<207 214 214 220.5> 666 20G<581 649 649 649>
VStem: 52 64<426 442.5 426 442.5> 256 63<579.5 594> 394 64<89 105.5 89 105.5> 598 63<242.5 257>
LayerCount: 2
Fore
SplineSet
52 437 m 0,0,1
 52 443 52 443 69 564 c 1,2,3
 75 617 75 617 111 651 c 128,-1,4
 147 685 147 685 207 685 c 2,5,-1
 214 685 l 2,6,7
 263 685 263 685 291 656 c 128,-1,8
 319 627 319 627 319 582 c 0,9,10
 319 569 319 569 303 457 c 1,11,12
 294 403 294 403 259.5 369.5 c 128,-1,13
 225 336 225 336 165 336 c 2,14,-1
 158 336 l 2,15,16
 109 336 109 336 80.5 364.5 c 128,-1,17
 52 393 52 393 52 437 c 0,0,1
136 0 m 1,18,-1
 66 0 l 1,19,-1
 581 686 l 1,20,-1
 649 686 l 1,21,-1
 136 0 l 1,18,-1
134 571 m 0,22,23
 116 453 116 453 116 435.5 c 128,-1,24
 116 418 116 418 130 404.5 c 128,-1,25
 144 391 144 391 170.5 391 c 128,-1,26
 197 391 197 391 215.5 407.5 c 128,-1,27
 234 424 234 424 238 451.5 c 128,-1,28
 242 479 242 479 245 501.5 c 128,-1,29
 248 524 248 524 250 536 c 128,-1,30
 252 548 252 548 253 556.5 c 128,-1,31
 254 565 254 565 254.5 568.5 c 128,-1,32
 255 572 255 572 255.5 574.5 c 128,-1,33
 256 577 256 577 256 580 c 0,34,35
 256 602 256 602 242 616 c 128,-1,36
 228 630 228 630 201 630 c 128,-1,37
 174 630 174 630 156 613.5 c 128,-1,38
 138 597 138 597 134 571 c 0,22,23
394 100 m 0,39,40
 394 106 394 106 411 227 c 1,41,42
 417 280 417 280 453 314 c 128,-1,43
 489 348 489 348 549 348 c 2,44,-1
 556 348 l 2,45,46
 605 348 605 348 633 319 c 128,-1,47
 661 290 661 290 661 245 c 0,48,49
 661 232 661 232 645 120 c 1,50,51
 636 66 636 66 601.5 32.5 c 128,-1,52
 567 -1 567 -1 507 -1 c 2,53,-1
 500 -1 l 2,54,55
 451 -1 451 -1 422.5 27.5 c 128,-1,56
 394 56 394 56 394 100 c 0,39,40
476 234 m 0,57,58
 458 116 458 116 458 98.5 c 128,-1,59
 458 81 458 81 472 67.5 c 128,-1,60
 486 54 486 54 512.5 54 c 128,-1,61
 539 54 539 54 557.5 70.5 c 128,-1,62
 576 87 576 87 580 114.5 c 128,-1,63
 584 142 584 142 587 164.5 c 128,-1,64
 590 187 590 187 592 199 c 128,-1,65
 594 211 594 211 595 219.5 c 128,-1,66
 596 228 596 228 596.5 231.5 c 128,-1,67
 597 235 597 235 597.5 237.5 c 128,-1,68
 598 240 598 240 598 243 c 0,69,70
 598 265 598 265 584 279 c 128,-1,71
 570 293 570 293 543 293 c 128,-1,72
 516 293 516 293 498 276.5 c 128,-1,73
 480 260 480 260 476 234 c 0,57,58
EndSplineSet
EndChar

StartChar: ampersand
Encoding: 38 38 9
Width: 661
Flags: MW
HStem: 0 89<200 399 286 399 286 485> 306 89<263.5 444 321 430 540 636 321 528> 306 232<263.5 560 316 560 528 560 492 636 528 528> 607 89<307.5 360>
VStem: 43 99<148.5 217.5> 103 97<470 536.5 470 560>
LayerCount: 2
Fore
SplineSet
103.5 41.5 m 128,-1,1
 43 83 43 83 43 161.5 c 128,-1,2
 43 240 43 240 84 287 c 128,-1,3
 125 334 125 334 193 354 c 1,4,-1
 197 356 l 1,5,6
 103 402 103 402 103 496 c 128,-1,7
 103 590 103 590 172.5 643 c 128,-1,8
 242 696 242 696 356 696 c 0,9,10
 384 696 384 696 417 689 c 1,11,-1
 405 598 l 1,12,13
 374 607 374 607 350 607 c 0,14,15
 283 607 283 607 241.5 580 c 128,-1,16
 200 553 200 553 200 503.5 c 128,-1,17
 200 454 200 454 233 424.5 c 128,-1,18
 266 395 266 395 321 395 c 2,19,-1
 444 395 l 1,20,-1
 492 538 l 1,21,-1
 560 538 l 1,22,-1
 540 395 l 1,23,-1
 648 395 l 1,24,-1
 636 306 l 1,25,-1
 528 306 l 1,26,-1
 485 0 l 1,27,-1
 260 0 l 2,28,0
 164 0 164 0 103.5 41.5 c 128,-1,1
188.5 274.5 m 128,-1,30
 142 243 142 243 142 188.5 c 128,-1,31
 142 134 142 134 181.5 111.5 c 128,-1,32
 221 89 221 89 286 89 c 2,33,-1
 399 89 l 1,34,-1
 430 306 l 1,35,-1
 316 306 l 2,36,29
 235 306 235 306 188.5 274.5 c 128,-1,30
EndSplineSet
EndChar

StartChar: quotesingle
Encoding: 39 39 10
Width: 209
Flags: MW
HStem: 407 21G<98 138 98 98> 666 20G<119 201 201 201>
LayerCount: 2
Fore
SplineSet
138 407 m 1,0,-1
 98 407 l 1,1,-1
 98 539 l 1,2,-1
 119 686 l 1,3,-1
 201 686 l 1,4,-1
 180 539 l 1,5,6
 173 518 173 518 159.5 474 c 128,-1,7
 146 430 146 430 138 407 c 1,0,-1
EndSplineSet
EndChar

StartChar: parenleft
Encoding: 40 40 11
Width: 289
Flags: MW
HStem: -157 21G<145 197 145 145> 666 20G<264 316 316 316>
VStem: 39 82<115.5 265 110 277.5>
LayerCount: 2
Fore
SplineSet
39 178 m 0,0,1
 39 458 39 458 264 686 c 1,2,-1
 316 686 l 1,3,4
 227 571 227 571 174 438.5 c 128,-1,5
 121 306 121 306 121 170 c 0,6,7
 121 -2 121 -2 197 -157 c 1,8,-1
 145 -157 l 1,9,10
 39 -11 39 -11 39 178 c 0,0,1
EndSplineSet
EndChar

StartChar: parenright
Encoding: 41 41 12
Width: 289
Flags: MW
HStem: -157 21G<-33 18 -33 -33> 666 20G<86 137 137 137>
VStem: 160 83<260 413 256.5 415>
LayerCount: 2
Fore
SplineSet
18 -157 m 1,0,-1
 -33 -157 l 1,1,2
 54 -44 54 -44 107 88 c 128,-1,3
 160 220 160 220 160 355 c 0,4,5
 160 531 160 531 86 686 c 1,6,-1
 137 686 l 1,7,8
 243 540 243 540 243 351 c 0,9,10
 243 212 243 212 184 81.5 c 128,-1,11
 125 -49 125 -49 18 -157 c 1,0,-1
EndSplineSet
EndChar

StartChar: asterisk
Encoding: 42 42 13
Width: 469
Flags: MW
HStem: 294 21G<320 320> 666 20G<251 330 330 330>
LayerCount: 2
Fore
SplineSet
217 469 m 1,0,-1
 59 509 l 1,1,-1
 95 586 l 1,2,-1
 241 520 l 1,3,-1
 251 686 l 1,4,-1
 330 686 l 1,5,-1
 291 519 l 1,6,-1
 458 584 l 1,7,-1
 470 506 l 1,8,-1
 299 468 l 1,9,-1
 391 343 l 1,10,-1
 320 294 l 1,11,-1
 252 438 l 1,12,-1
 145 296 l 1,13,-1
 88 344 l 1,14,-1
 217 469 l 1,0,-1
EndSplineSet
EndChar

StartChar: plus
Encoding: 43 43 14
Width: 615
Flags: MW
HStem: 0 21G<225 308 225 225> 213 84<52 255 41 266 52 338 349 553> 491 20G<296 379 379 379>
LayerCount: 2
Fore
SplineSet
255 213 m 1,0,-1
 41 213 l 1,1,-1
 52 297 l 1,2,-1
 266 297 l 1,3,-1
 296 511 l 1,4,-1
 379 511 l 1,5,-1
 349 297 l 1,6,-1
 564 297 l 1,7,-1
 553 213 l 1,8,-1
 338 213 l 1,9,-1
 308 0 l 1,10,-1
 225 0 l 1,11,-1
 255 213 l 1,0,-1
EndSplineSet
EndChar

StartChar: comma
Encoding: 44 44 15
Width: 237
Flags: MW
HStem: -124 21G<24 76 24 24> 0 21G<27 68 27 27> 91 20G<43 144 144 144>
LayerCount: 2
Fore
SplineSet
76 -124 m 1,0,-1
 24 -124 l 1,1,-1
 68 0 l 1,2,-1
 27 0 l 1,3,-1
 43 111 l 1,4,-1
 144 111 l 1,5,-1
 132 26 l 1,6,-1
 76 -124 l 1,0,-1
EndSplineSet
EndChar

StartChar: hyphen
Encoding: 45 45 16
Width: 390
Flags: MW
HStem: 221 98<72 311 60 324>
LayerCount: 2
Fore
SplineSet
311 221 m 1,0,-1
 60 221 l 1,1,-1
 72 319 l 1,2,-1
 324 319 l 1,3,-1
 311 221 l 1,0,-1
EndSplineSet
EndChar

StartChar: period
Encoding: 46 46 17
Width: 238
Flags: MW
HStem: 0 111<44 130 29 145>
LayerCount: 2
Fore
SplineSet
130 0 m 1,0,-1
 29 0 l 1,1,-1
 44 111 l 1,2,-1
 145 111 l 1,3,-1
 130 0 l 1,0,-1
EndSplineSet
EndChar

StartChar: slash
Encoding: 47 47 18
Width: 489
Flags: MW
HStem: -171 21G<-45 36 -45 -45> 666 20G<445 525 525 525>
LayerCount: 2
Fore
SplineSet
36 -171 m 1,0,-1
 -45 -171 l 1,1,-1
 445 686 l 1,2,-1
 525 686 l 1,3,-1
 36 -171 l 1,0,-1
EndSplineSet
EndChar

StartChar: zero
Encoding: 48 48 19
Width: 615
Flags: MW
HStem: -10 89<239.5 258 258 271> 607 89<357 370 370 388.5>
VStem: 58 99<160 189.5> 472 98<483.5 484 484 499 472 525>
LayerCount: 2
Fore
SplineSet
58 184 m 0,0,1
 58 209 58 209 95 464 c 0,2,3
 109 567 109 567 180 631.5 c 128,-1,4
 251 696 251 696 357 696 c 2,5,-1
 370 696 l 2,6,7
 458 696 458 696 514 641 c 128,-1,8
 570 586 570 586 570 499 c 2,9,-1
 570 484 l 2,10,11
 570 464.125 570 464.125 562.5 420.0625 c 0,12,13
 553.6 367.775 553.6 367.775 533 221 c 0,14,15
 518 118 518 118 447.5 54 c 128,-1,16
 377 -10 377 -10 271 -10 c 2,17,-1
 258 -10 l 2,18,19
 169 -10 169 -10 113.5 43.5 c 128,-1,20
 58 97 58 97 58 184 c 0,0,1
157 194 m 0,21,22
 157 142 157 142 189 110.5 c 128,-1,23
 221 79 221 79 282 79 c 128,-1,24
 343 79 343 79 384 116.5 c 128,-1,25
 425 154 425 154 434 214 c 0,26,27
 472 479 472 479 472 491 c 0,28,29
 472 542 472 542 439 574.5 c 128,-1,30
 406 607 406 607 346.5 607 c 128,-1,31
 287 607 287 607 245.5 569.5 c 128,-1,32
 204 532 204 532 195 472 c 0,33,34
 157 207 157 207 157 194 c 0,21,22
EndSplineSet
EndChar

StartChar: one
Encoding: 49 49 20
Width: 615
Flags: MW
HStem: 0 89<71 251 349 516 58 251> 666 20G<395 433 433 433>
LayerCount: 2
Fore
SplineSet
516 0 m 1,0,-1
 58 0 l 1,1,-1
 71 89 l 1,2,-1
 251 89 l 1,3,-1
 316 555 l 1,4,-1
 134 555 l 1,5,-1
 143 619 l 1,6,7
 262 631 262 631 395 686 c 1,8,-1
 433 686 l 1,9,-1
 349 89 l 1,10,-1
 529 89 l 1,11,-1
 516 0 l 1,0,-1
EndSplineSet
EndChar

StartChar: two
Encoding: 50 50 21
Width: 615
Flags: MW
HStem: 0 89<156 502> 449 247<95 437.5 95 437.5> 607 89<308 400.5>
VStem: 95 98<449 494.5 449 510.5> 471 99<482.5 527>
LayerCount: 2
Fore
SplineSet
502 0 m 1,0,-1
 31 0 l 1,1,-1
 34 24 l 2,2,3
 39 68 39 68 64 108 c 128,-1,4
 89 148 89 148 109.5 167.5 c 128,-1,5
 130 187 130 187 152 201 c 2,6,-1
 372 351 l 2,7,8
 471 419 471 419 471 507 c 0,9,10
 471 546 471 546 444 576.5 c 128,-1,11
 417 607 417 607 351.5 607 c 0,12,13
 286 607 286 607 239.5 561.5 c 128,-1,14
 193 516 193 516 193 449 c 1,15,-1
 95 449 l 1,16,17
 95 547 95 547 169.5 621.5 c 128,-1,18
 244 696 244 696 355 696 c 0,19,20
 466 696 466 696 518 643 c 128,-1,21
 570 590 570 590 570 522 c 128,-1,22
 570 454 570 454 536 395.5 c 128,-1,23
 502 337 502 337 416 279 c 2,24,-1
 205 136 l 2,25,26
 191.5 127 191.5 127 174.25 111.5 c 0,27,28
 157 96 157 96 156 89 c 1,29,-1
 514 89 l 1,30,-1
 502 0 l 1,0,-1
EndSplineSet
EndChar

StartChar: three
Encoding: 51 51 22
Width: 615
Flags: MW
HStem: -10 89<226.5 254 254 266> -10 212<46 254 46 266> 304 90<235 297 222 312> 492 204<102 365> 607 89<356 365 365 376.5>
VStem: 42 99<141.5 165.5> 437 97<166.5 247.5> 464 70 464 100<487.5 550.5>
LayerCount: 2
Fore
SplineSet
42 160 m 0,0,1
 42 175 42 175 46 202 c 1,2,-1
 144 202 l 1,3,4
 141 183 141 183 141 172 c 0,5,6
 141 79 141 79 268 79 c 0,7,8
 344 79 344 79 390.5 112.5 c 128,-1,9
 437 146 437 146 437 212 c 0,10,11
 437 304 437 304 297 304 c 2,12,-1
 222 304 l 1,13,-1
 235 394 l 1,14,-1
 312 394 l 2,15,16
 374 394 374 394 419 427 c 128,-1,17
 464 460 464 460 464 512 c 0,18,19
 464 607 464 607 344 607 c 0,20,21
 288 607 288 607 248 577.5 c 128,-1,22
 208 548 208 548 200 492 c 1,23,-1
 102 492 l 1,24,25
 114 589 114 589 184 642.5 c 128,-1,26
 254 696 254 696 356 696 c 2,27,-1
 365 696 l 2,28,29
 453 696 453 696 508.5 652.5 c 128,-1,30
 564 609 564 609 564 536 c 0,31,32
 564 416 564 416 431 356 c 1,33,-1
 432 353 l 1,34,35
 534 320 534 320 534 218.5 c 128,-1,36
 534 117 534 117 456.5 53.5 c 128,-1,37
 379 -10 379 -10 266 -10 c 2,38,-1
 254 -10 l 2,39,40
 151 -10 151 -10 96.5 35.5 c 128,-1,41
 42 81 42 81 42 160 c 0,0,1
EndSplineSet
EndChar

StartChar: four
Encoding: 52 52 23
Width: 615
Flags: MW
HStem: 0 21G<333 431 333 333> 169 89<139 356 139 454 467 541> 676 20G<320 425 425 425>
LayerCount: 2
Fore
SplineSet
356 169 m 1,0,-1
 33 169 l 1,1,-1
 46 259 l 1,2,3
 209 464 209 464 320 696 c 1,4,-1
 425 696 l 1,5,6
 375 573 375 573 285 443.5 c 128,-1,7
 195 314 195 314 139 258 c 1,8,-1
 369 258 l 1,9,-1
 397 457 l 1,10,11
 445 530 445 530 470 594 c 1,12,-1
 514 594 l 1,13,-1
 467 258 l 1,14,-1
 554 258 l 1,15,-1
 541 169 l 1,16,-1
 454 169 l 1,17,-1
 431 0 l 1,18,-1
 333 0 l 1,19,-1
 356 169 l 1,0,-1
EndSplineSet
EndChar

StartChar: five
Encoding: 53 53 24
Width: 615
Flags: MW
HStem: -10 89<241.5 322.5 241.5 352> -10 224<59 352> 363 84<322.5 357.5> 597 89<247 551 247 247>
VStem: 57 99<161.5 189.5> 438 99<191 279.5>
LayerCount: 2
Fore
SplineSet
57 184 m 0,0,1
 57 192 57 192 59 214 c 1,2,-1
 157 214 l 1,3,4
 156 211 156 211 156 206 c 2,5,-1
 156 198 l 2,6,7
 156 144 156 144 189.5 111.5 c 128,-1,8
 223 79 223 79 285.5 79 c 0,9,10
 348 79 348 79 393 122.5 c 128,-1,11
 438 166 438 166 438 246 c 0,12,13
 438 297 438 297 406.5 330 c 128,-1,14
 375 363 375 363 321 363 c 0,15,16
 235 363 235 363 182 294 c 1,17,-1
 96 307 l 1,18,-1
 177 686 l 1,19,-1
 563 686 l 1,20,-1
 551 597 l 1,21,-1
 247 597 l 1,22,-1
 204 396 l 1,23,24
 275 447 275 447 349 447 c 0,25,26
 443 447 443 447 490 396 c 128,-1,27
 537 345 537 345 537 265 c 0,28,29
 537 142 537 142 465 66 c 128,-1,30
 393 -10 393 -10 265 -10 c 0,31,32
 169 -10 169 -10 113 45 c 128,-1,33
 57 100 57 100 57 184 c 0,0,1
EndSplineSet
EndChar

StartChar: six
Encoding: 54 54 25
Width: 615
Flags: MW
HStem: -10 89<249.5 333.5 249.5 350.5> 343 89<319 359.5> 473 223<302 566 302 468> 607 89<317.5 390>
VStem: 66 97<184 191 191 199> 443 100<186 266> 469 74 469 99<489 492 492 496 496 510 489 530.5>
LayerCount: 2
Fore
SplineSet
66 184 m 2,0,-1
 66 191 l 2,1,2
 66 202 66 202 103 465 c 0,3,4
 117 561 117 561 193.5 628.5 c 128,-1,5
 270 696 270 696 363.5 696 c 128,-1,6
 457 696 457 696 512.5 646 c 128,-1,7
 568 596 568 596 568 510 c 2,8,-1
 568 492 l 2,9,10
 568 487 568 487 566 473 c 1,11,-1
 468 473 l 1,12,13
 469 477 469 477 469 485 c 2,14,-1
 469 496 l 2,15,16
 469 548 469 548 438.5 577.5 c 128,-1,17
 408 607 408 607 353.5 607 c 128,-1,18
 299 607 299 607 254.5 568 c 128,-1,19
 210 529 210 529 202 474 c 2,20,-1
 187 366 l 1,21,22
 256 432 256 432 345 432 c 128,-1,23
 434 432 434 432 488.5 382 c 128,-1,24
 543 332 543 332 543 254 c 0,25,26
 543 133 543 133 467.5 61.5 c 128,-1,27
 392 -10 392 -10 273 -10 c 0,28,29
 182 -10 182 -10 124 42.5 c 128,-1,30
 66 95 66 95 66 184 c 2,0,-1
211 300 m 128,-1,32
 163 257 163 257 163 198.5 c 128,-1,33
 163 140 163 140 197 109.5 c 128,-1,34
 231 79 231 79 294 79 c 128,-1,35
 357 79 357 79 400 121 c 128,-1,36
 443 163 443 163 443 232 c 0,37,38
 443 283 443 283 410.5 313 c 128,-1,39
 378 343 378 343 318.5 343 c 128,-1,31
 259 343 259 343 211 300 c 128,-1,32
EndSplineSet
EndChar

StartChar: seven
Encoding: 55 55 26
Width: 615
Flags: MW
HStem: 0 21G<138 252 138 138> 597 89<128 472 115 610>
LayerCount: 2
Fore
SplineSet
472 597 m 1,0,-1
 115 597 l 1,1,-1
 128 686 l 1,2,-1
 610 686 l 1,3,-1
 602 633 l 1,4,5
 281.676605235 305.324920765 281.676605235 305.324920765 254.5 24.5 c 0,6,7
 253 9 253 9 252 0 c 1,8,-1
 138 0 l 1,9,10
 175 276 175 276 472 597 c 1,0,-1
EndSplineSet
EndChar

StartChar: eight
Encoding: 56 56 27
Width: 615
Flags: MW
HStem: -10 89<241 319 241 347> 306 89<288.5 345> 607 89<319.5 386>
VStem: 50 100<143 206.5> 118 99<459 525.5 459 544.5> 436 98<166 242> 457 77 457 99<484 542>
LayerCount: 2
Fore
SplineSet
50 153 m 0,0,1
 50 293 50 293 191 350 c 1,2,-1
 192 354 l 1,3,4
 155 377 155 377 136.5 404 c 128,-1,5
 118 431 118 431 118 475 c 0,6,7
 118 576 118 576 188.5 636 c 128,-1,8
 259 696 259 696 355.5 696 c 0,9,10
 452 696 452 696 504 654 c 128,-1,11
 556 612 556 612 556 538.5 c 0,12,13
 556 465 556 465 526 424.5 c 128,-1,14
 496 384 496 384 440 354 c 1,15,-1
 439 350 l 1,16,17
 485 327 485 327 509.5 296 c 128,-1,18
 534 265 534 265 534 216 c 0,19,20
 534 112 534 112 461 51 c 128,-1,21
 388 -10 388 -10 265 -10 c 0,22,23
 166 -10 166 -10 108 32 c 128,-1,24
 50 74 50 74 50 153 c 0,0,1
150 175 m 0,25,26
 150 129 150 129 185.5 104 c 128,-1,27
 221 79 221 79 282.5 79 c 0,28,29
 344 79 344 79 390 113 c 128,-1,30
 436 147 436 147 436 210 c 0,31,32
 436 256 436 256 400.5 281 c 128,-1,33
 365 306 365 306 306 306 c 0,34,35
 247 306 247 306 198.5 272.5 c 128,-1,36
 150 239 150 239 150 175 c 0,25,26
217 485 m 0,37,38
 217 445 217 445 245 420 c 128,-1,39
 273 395 273 395 326.5 395 c 0,40,41
 380 395 380 395 418.5 430 c 128,-1,42
 457 465 457 465 457 510.5 c 0,43,44
 457 556 457 556 429.5 581.5 c 128,-1,45
 402 607 402 607 350.5 607 c 0,46,47
 299 607 299 607 258 574.5 c 128,-1,48
 217 542 217 542 217 485 c 0,37,38
EndSplineSet
EndChar

StartChar: nine
Encoding: 57 57 28
Width: 615
Flags: MW
HStem: -10 89<238 316 238 335> -10 223<62 335> 254 89<271 309> 607 89<302 378.5>
VStem: 59 99<154.5 181.5> 85 73 85 99<420.5 502 420.5 518> 464 98<494.5 529.5>
LayerCount: 2
Fore
SplineSet
59 176 m 0,0,1
 59 194 59 194 62 213 c 1,2,-1
 160 213 l 1,3,4
 158 197 158 197 158 189 c 0,5,6
 158 137 158 137 189 108 c 128,-1,7
 220 79 220 79 277.5 79 c 0,8,9
 335 79 335 79 376 117 c 128,-1,10
 417 155 417 155 426 212 c 1,11,-1
 441 320 l 1,12,13
 372 254 372 254 282.5 254 c 0,14,15
 193 254 193 254 139 305 c 128,-1,16
 85 356 85 356 85 436 c 0,17,18
 85 555 85 555 162.5 625.5 c 128,-1,19
 240 696 240 696 355 696 c 0,20,21
 446 696 446 696 504 643.5 c 128,-1,22
 562 591 562 591 562 502 c 0,23,24
 562 492 562 492 525 221 c 1,25,26
 510 119 510 119 439.5 54.5 c 128,-1,27
 369 -10 369 -10 269.5 -10 c 0,28,29
 170 -10 170 -10 114.5 39.5 c 128,-1,30
 59 89 59 89 59 176 c 0,0,1
184 455 m 0,31,32
 184 404 184 404 218 373.5 c 128,-1,33
 252 343 252 343 311.5 343 c 0,34,35
 371 343 371 343 417.5 386 c 128,-1,36
 464 429 464 429 464 487.5 c 0,37,38
 464 546 464 546 430.5 576.5 c 128,-1,39
 397 607 397 607 338 607 c 0,40,41
 279 607 279 607 231.5 565 c 128,-1,42
 184 523 184 523 184 455 c 0,31,32
EndSplineSet
EndChar

StartChar: colon
Encoding: 58 58 29
Width: 238
Flags: MW
HStem: 0 111<43 129 28 144> 399 112<99 185 84 200>
LayerCount: 2
Fore
SplineSet
129 0 m 1,0,-1
 28 0 l 1,1,-1
 43 111 l 1,2,-1
 144 111 l 1,3,-1
 129 0 l 1,0,-1
185 399 m 1,4,-1
 84 399 l 1,5,-1
 99 511 l 1,6,-1
 200 511 l 1,7,-1
 185 399 l 1,4,-1
EndSplineSet
EndChar

StartChar: semicolon
Encoding: 59 59 30
Width: 238
Flags: MW
HStem: -124 21G<24 76 24 24> 0 21G<27 68 27 27> 399 112<99 184 83 200>
LayerCount: 2
Fore
SplineSet
76 -124 m 1,0,-1
 24 -124 l 1,1,-1
 68 0 l 1,2,-1
 27 0 l 1,3,-1
 43 111 l 1,4,-1
 144 111 l 1,5,-1
 132 26 l 1,6,-1
 76 -124 l 1,0,-1
184 399 m 1,7,-1
 83 399 l 1,8,-1
 99 511 l 1,9,-1
 200 511 l 1,10,-1
 184 399 l 1,7,-1
EndSplineSet
EndChar

StartChar: less
Encoding: 60 60 31
Width: 615
Flags: MW
HStem: 4 21G<512 512> 484 20G<583 583>
LayerCount: 2
Fore
SplineSet
512 4 m 1,0,-1
 31 200 l 1,1,-1
 46 307 l 1,2,-1
 583 504 l 1,3,-1
 570 414 l 1,4,-1
 120 254 l 1,5,-1
 525 94 l 1,6,-1
 512 4 l 1,0,-1
EndSplineSet
EndChar

StartChar: equal
Encoding: 61 61 32
Width: 615
Flags: MW
HStem: 106 83<41 534 30 545> 318 84<71 563 59 575>
LayerCount: 2
Fore
SplineSet
534 106 m 1,0,-1
 30 106 l 1,1,-1
 41 189 l 1,2,-1
 545 189 l 1,3,-1
 534 106 l 1,0,-1
563 318 m 1,4,-1
 59 318 l 1,5,-1
 71 402 l 1,6,-1
 575 402 l 1,7,-1
 563 318 l 1,4,-1
EndSplineSet
EndChar

StartChar: greater
Encoding: 62 62 33
Width: 615
Flags: MW
HStem: 4 21G<21 21> 484 20G<92 92>
LayerCount: 2
Fore
SplineSet
558 200 m 1,0,-1
 21 4 l 1,1,-1
 34 94 l 1,2,-1
 486 254 l 1,3,4
 203 363 203 363 79 414 c 1,5,-1
 92 504 l 1,6,-1
 573 307 l 1,7,-1
 558 200 l 1,0,-1
EndSplineSet
EndChar

StartChar: question
Encoding: 63 63 34
Width: 502
Flags: MW
HStem: 0 111<180 269 165 284> 458 238<53 309> 607 89<303 309 309 330>
VStem: 53 98<458 496 458 529> 394 99<446 531>
LayerCount: 2
Fore
SplineSet
151 458 m 1,0,-1
 53 458 l 1,1,2
 53 566 53 566 120.5 631 c 128,-1,3
 188 696 188 696 303 696 c 2,4,-1
 309 696 l 2,5,6
 362 696 362 696 400.5 679 c 128,-1,7
 439 662 439 662 458 634 c 0,8,9
 493 582.421052632 493 582.421052632 493 528.210526316 c 128,-1,10
 493 474 493 474 474 435 c 128,-1,11
 455 396 455 396 427.5 371 c 128,-1,12
 400 346 400 346 372.5 325.5 c 0,13,14
 303.837859425 274.315495208 303.837859425 274.315495208 299 234 c 2,15,-1
 293 185 l 1,16,-1
 193 185 l 1,17,-1
 202 249 l 2,18,19
 209.125 306 209.125 306 276.5 355 c 0,20,21
 304 375 304 375 331 395.5 c 0,22,23
 394 443.333333333 394 443.333333333 394 510 c 0,24,25
 394 548 394 548 369 577.5 c 128,-1,26
 344 607 344 607 290 607 c 0,27,28
 218 607 218 607 184.5 564.5 c 128,-1,29
 151 522 151 522 151 458 c 1,0,-1
269 0 m 1,30,-1
 165 0 l 1,31,-1
 180 111 l 1,32,-1
 284 111 l 1,33,-1
 269 0 l 1,30,-1
EndSplineSet
EndChar

StartChar: at
Encoding: 64 64 35
Width: 887
Flags: MW
HStem: -153 55<273.5 384.5> 22 69<650 717.5 650 720.5> 251 69<486 558> 364 157<270 496> 451 70<487 496 496 518> 642 55<388.5 598>
VStem: 27 60<78.5 305> 221 89<135 198.5 135 222.5> 575 91<388.5 400> 806 60<344 477.5>
LayerCount: 2
Fore
SplineSet
27 163 m 0,0,1
 27 384.706896552 27 384.706896552 144 536 c 0,2,3
 202 611 202 611 298 654 c 128,-1,4
 394 697 394 697 517 697 c 0,5,6
 678 697 678 697 772 623.5 c 128,-1,7
 866 550 866 550 866 397 c 0,8,9
 866 269.529411765 866 269.529411765 816.5 155 c 0,10,11
 791 96 791 96 743 59 c 128,-1,12
 695 22 695 22 631 22 c 0,13,14
 543 22 543 22 543 109 c 1,15,-1
 537 106 l 1,16,17
 471 22 471 22 361 22 c 0,18,19
 296 22 296 22 258.5 48.5 c 128,-1,20
 221 75 221 75 221 138 c 128,-1,21
 221 201 221 201 246.5 237 c 128,-1,22
 272 273 272 273 323.5 290.5 c 128,-1,23
 375 308 375 308 430.5 314 c 128,-1,24
 486 320 486 320 567 320 c 1,25,26
 575 376 575 376 575 384 c 0,27,28
 575 451 575 451 475.5 451 c 128,-1,29
 376 451 376 451 358 375 c 1,30,-1
 356 364 l 1,31,-1
 270 364 l 1,32,33
 270 433 270 433 331.5 477 c 128,-1,34
 393 521 393 521 487 521 c 2,35,-1
 496 521 l 2,36,37
 666 521 666 521 666 400 c 0,38,39
 666 388 666 388 638 197 c 2,40,-1
 631 148 l 2,41,42
 628 127 628 127 628 121 c 0,43,44
 628 91 628 91 664.5 91 c 128,-1,45
 701 91 701 91 731 124 c 128,-1,46
 761 157 761 157 776.5 207 c 0,47,48
 806 302.161290323 806 302.161290323 806 388 c 0,49,50
 806 517 806 517 727.5 579.5 c 128,-1,51
 649 642 649 642 509 642 c 0,52,53
 322 642 322 642 204.5 517.5 c 128,-1,54
 87 393 87 393 87 168 c 0,55,56
 87 33 87 33 156.5 -32.5 c 128,-1,57
 226 -98 226 -98 370 -98 c 0,58,59
 407 -98 407 -98 460 -88.5 c 128,-1,60
 513 -79 513 -79 540 -66 c 1,61,-1
 532 -126 l 1,62,63
 500 -137 500 -137 448.5 -145 c 128,-1,64
 397 -153 397 -153 363 -153 c 0,65,66
 202 -153 202 -153 114.5 -75 c 128,-1,67
 27 3 27 3 27 163 c 0,0,1
310 161 m 0,68,69
 310 123 310 123 331.5 107.5 c 128,-1,70
 353 92 353 92 404.5 92 c 128,-1,71
 456 92 456 92 501 130.5 c 128,-1,72
 546 169 546 169 555 233 c 1,73,-1
 558 251 l 1,74,75
 437 251 437 251 373.5 232 c 128,-1,76
 310 213 310 213 310 161 c 0,68,69
EndSplineSet
EndChar

StartChar: A
Encoding: 65 65 36
Width: 650
Flags: MW
HStem: 0 21G<-36 58 -36 -36 501 501 501 607> 149 89<184 443 184 464 136 443> 666 20G<328 436 436 436>
LayerCount: 2
Fore
SplineSet
58 0 m 1,0,-1
 -36 0 l 1,1,-1
 328 686 l 1,2,-1
 436 686 l 1,3,-1
 607 0 l 1,4,-1
 501 0 l 1,5,-1
 464 149 l 1,6,-1
 136 149 l 1,7,-1
 58 0 l 1,0,-1
357 568 m 1,8,-1
 184 238 l 1,9,-1
 443 238 l 1,10,-1
 363 568 l 1,11,-1
 357 568 l 1,8,-1
EndSplineSet
EndChar

StartChar: B
Encoding: 66 66 37
Width: 652
Flags: MW
HStem: 0 89<162 358 358 361> 305 89<192 391 205 388> 597 89<233 233 233 419>
VStem: 482 97<170.5 238.5> 508 71 508 101<481 541>
LayerCount: 2
Fore
SplineSet
361 0 m 2,0,-1
 51 0 l 1,1,-1
 148 686 l 1,2,-1
 440 686 l 2,3,4
 514 686 514 686 561.5 646.5 c 128,-1,5
 609 607 609 607 609 534 c 0,6,7
 609 461 609 461 566 417 c 128,-1,8
 523 373 523 373 466 358 c 1,9,-1
 465 353 l 1,10,11
 509 345 509 345 544 312.5 c 128,-1,12
 579 280 579 280 579 214 c 0,13,14
 579 117 579 117 515.5 58.5 c 128,-1,15
 452 0 452 0 361 0 c 2,0,-1
192 305 m 1,16,-1
 162 89 l 1,17,-1
 358 89 l 2,18,19
 410 89 410 89 446 121 c 128,-1,20
 482 153 482 153 482 212 c 0,21,22
 482 252 482 252 456 278.5 c 128,-1,23
 430 305 430 305 388 305 c 2,24,-1
 192 305 l 1,16,-1
233 597 m 1,25,-1
 205 394 l 1,26,-1
 391 394 l 2,27,28
 437 394 437 394 472.5 428.5 c 128,-1,29
 508 463 508 463 508 509 c 0,30,31
 508 597 508 597 419 597 c 2,32,-1
 233 597 l 1,25,-1
EndSplineSet
EndChar

StartChar: C
Encoding: 67 67 38
Width: 662
Flags: MW
HStem: -10 89<265 362.5 265 380> 607 89<333.5 430.5>
VStem: 57 99<183.5 242.5> 532 99<468.5 515.5>
LayerCount: 2
Fore
SplineSet
57 232 m 0,0,1
 57 261 57 261 75 388 c 0,2,3
 98 542 98 542 182 619 c 128,-1,4
 266 696 266 696 400 696 c 0,5,6
 504 696 504 696 567.5 640 c 128,-1,7
 631 584 631 584 631 477 c 0,8,9
 631 448 631 448 627 423 c 1,10,-1
 529 423 l 1,11,12
 532 445 532 445 532 466 c 0,13,14
 532 537 532 537 493.5 572 c 128,-1,15
 455 607 455 607 388 607 c 0,16,17
 302 607 302 607 245.5 553.5 c 128,-1,18
 189 500 189 500 172.5 386 c 0,19,20
 156 272 156 272 156 241 c 0,21,22
 156 79 156 79 313 79 c 0,23,24
 391 79 391 79 444 124.5 c 128,-1,25
 497 170 497 170 510 261 c 1,26,-1
 604 261 l 1,27,28
 584 125 584 125 504 57.5 c 128,-1,29
 424 -10 424 -10 306.5 -10 c 0,30,31
 189 -10 189 -10 123 51.5 c 128,-1,32
 57 113 57 113 57 232 c 0,0,1
EndSplineSet
EndChar

StartChar: D
Encoding: 68 68 39
Width: 677
Flags: MW
HStem: 0 89<162 289> 597 89<233 233 233 373>
VStem: 532 99<431.5 490>
LayerCount: 2
Fore
SplineSet
289 0 m 2,0,-1
 51 0 l 1,1,-1
 148 686 l 1,2,-1
 386 686 l 2,3,4
 496 686 496 686 563.5 623.5 c 128,-1,5
 631 561 631 561 631 442 c 0,6,7
 631 419 631 419 618 308 c 0,8,9
 600 155 600 155 514 77.5 c 128,-1,10
 428 0 428 0 289 0 c 2,0,-1
233 597 m 1,11,-1
 162 89 l 1,12,-1
 302 89 l 2,13,14
 387 89 387 89 445.5 142.5 c 128,-1,15
 504 196 504 196 518 304.5 c 0,16,17
 532 413 532 413 532 432 c 0,18,19
 532 516 532 516 489.5 556.5 c 128,-1,20
 447 597 447 597 373 597 c 2,21,-1
 233 597 l 1,11,-1
EndSplineSet
EndChar

StartChar: E
Encoding: 69 69 40
Width: 592
Flags: MW
HStem: 0 89<162 507 162 507> 306 89<205 499 192 512> 597 89<233 572 233 233>
LayerCount: 2
Fore
SplineSet
507 0 m 1,0,-1
 51 0 l 1,1,-1
 148 686 l 1,2,-1
 598 686 l 1,3,-1
 572 597 l 1,4,-1
 233 597 l 1,5,-1
 205 395 l 1,6,-1
 512 395 l 1,7,-1
 499 306 l 1,8,-1
 192 306 l 1,9,-1
 162 89 l 1,10,-1
 507 89 l 1,11,-1
 507 0 l 1,0,-1
EndSplineSet
EndChar

StartChar: F
Encoding: 70 70 41
Width: 552
Flags: MW
HStem: 0 21G<51 149 51 51> 299 89<204 471 191 484> 597 89<233 554 233 233>
LayerCount: 2
Fore
SplineSet
149 0 m 1,0,-1
 51 0 l 1,1,-1
 148 686 l 1,2,-1
 580 686 l 1,3,-1
 554 597 l 1,4,-1
 233 597 l 1,5,-1
 204 388 l 1,6,-1
 484 388 l 1,7,-1
 471 299 l 1,8,-1
 191 299 l 1,9,-1
 149 0 l 1,0,-1
EndSplineSet
EndChar

StartChar: G
Encoding: 71 71 42
Width: 675
Flags: MW
HStem: -10 89<265 341.5> 0 21G<513 571 513 513> 274 88<326 508 314 616> 607 89<333.5 429.5>
VStem: 57 99<183.5 242.5> 532 99<481.5 523.5>
LayerCount: 2
Fore
SplineSet
57 232 m 0,0,1
 57 261 57 261 75 388 c 0,2,3
 121 696 121 696 400 696 c 0,4,5
 502 696 502 696 566.5 642.5 c 128,-1,6
 631 589 631 589 631 489 c 0,7,8
 631 468 631 468 628 445 c 1,9,-1
 530 445 l 1,10,11
 532 467 532 467 532 478 c 0,12,13
 532 543 532 543 493 575 c 128,-1,14
 454 607 454 607 388 607 c 0,15,16
 302 607 302 607 245.5 553.5 c 128,-1,17
 189 500 189 500 172.5 386 c 0,18,19
 156 272 156 272 156 241 c 0,20,21
 156 79 156 79 313 79 c 0,22,23
 400 79 400 79 445.5 122 c 128,-1,24
 491 165 491 165 506 261 c 2,25,-1
 508 274 l 1,26,-1
 314 274 l 1,27,-1
 326 362 l 1,28,-1
 616 362 l 1,29,-1
 583 128 l 2,30,31
 579 105 579 105 576.5 72.5 c 128,-1,32
 574 40 574 40 572.5 24.5 c 0,33,34
 571 9 571 9 571 0 c 1,35,-1
 513 0 l 1,36,37
 506 18 506 18 505 82 c 1,38,39
 427 -10 427 -10 308 -10 c 0,40,41
 189 -10 189 -10 123 51.5 c 128,-1,42
 57 113 57 113 57 232 c 0,0,1
EndSplineSet
EndChar

StartChar: H
Encoding: 72 72 43
Width: 693
Flags: MW
HStem: 0 21G<51 149 51 51 462 462 462 560> 306 89<205 505 192 518> 666 20G<148 246 246 246 559 657 657 657>
LayerCount: 2
Fore
SplineSet
149 0 m 1,0,-1
 51 0 l 1,1,-1
 148 686 l 1,2,-1
 246 686 l 1,3,-1
 205 395 l 1,4,-1
 518 395 l 1,5,-1
 559 686 l 1,6,-1
 657 686 l 1,7,-1
 560 0 l 1,8,-1
 462 0 l 1,9,-1
 505 306 l 1,10,-1
 192 306 l 1,11,-1
 149 0 l 1,0,-1
EndSplineSet
EndChar

StartChar: I
Encoding: 73 73 44
Width: 365
Flags: MW
HStem: 0 89<25 105 203 270 12 105> 597 89<109 176 96 367 274 274 274 354>
LayerCount: 2
Fore
SplineSet
270 0 m 1,0,-1
 12 0 l 1,1,-1
 25 89 l 1,2,-1
 105 89 l 1,3,-1
 176 597 l 1,4,-1
 96 597 l 1,5,-1
 109 686 l 1,6,-1
 367 686 l 1,7,-1
 354 597 l 1,8,-1
 274 597 l 1,9,-1
 203 89 l 1,10,-1
 283 89 l 1,11,-1
 270 0 l 1,0,-1
EndSplineSet
EndChar

StartChar: J
Encoding: 74 74 45
Width: 525
Flags: MW
HStem: -10 89<173 183 183 192> 666 20G<394 492 492 492>
VStem: 10 98<140 155>
LayerCount: 2
Fore
SplineSet
10 149 m 0,0,1
 10 181 10 181 16 208 c 1,2,-1
 113 208 l 1,3,4
 108 185 108 185 108 166 c 0,5,6
 108 127 108 127 134 103 c 128,-1,7
 160 79 160 79 204.5 79 c 0,8,9
 249 79 249 79 282.5 106.5 c 128,-1,10
 316 134 316 134 323 181 c 2,11,-1
 394 686 l 1,12,-1
 492 686 l 1,13,-1
 422 187 l 2,14,15
 408 89 408 89 349 39.5 c 128,-1,16
 290 -10 290 -10 192 -10 c 2,17,-1
 183 -10 l 2,18,19
 111 -10 111 -10 60.5 31.5 c 128,-1,20
 10 73 10 73 10 149 c 0,0,1
EndSplineSet
EndChar

StartChar: K
Encoding: 75 75 46
Width: 621
Flags: MW
HStem: 0 21G<51 149 51 51 454 454 454 568> 666 20G<148 246 246 246 544 657 657 657>
LayerCount: 2
Fore
SplineSet
149 0 m 1,0,-1
 51 0 l 1,1,-1
 148 686 l 1,2,-1
 246 686 l 1,3,-1
 196 329 l 1,4,-1
 544 686 l 1,5,-1
 657 686 l 1,6,-1
 362 383 l 1,7,-1
 568 0 l 1,8,-1
 454 0 l 1,9,-1
 290 308 l 1,10,-1
 178 206 l 1,11,-1
 149 0 l 1,0,-1
EndSplineSet
EndChar

StartChar: L
Encoding: 76 76 47
Width: 532
Flags: MW
HStem: 0 89<162 477 162 477> 666 20G<148 246 246 246>
LayerCount: 2
Fore
SplineSet
477 0 m 1,0,-1
 51 0 l 1,1,-1
 148 686 l 1,2,-1
 246 686 l 1,3,-1
 162 89 l 1,4,-1
 477 89 l 1,5,-1
 477 0 l 1,0,-1
EndSplineSet
EndChar

StartChar: M
Encoding: 77 77 48
Width: 938
Flags: MW
HStem: 0 21G<51 140 51 51 381 381 381 464 707 707 707 805> 666 20G<148 302 302 302 749 902 902 902>
LayerCount: 2
Fore
SplineSet
140 0 m 1,0,-1
 51 0 l 1,1,-1
 148 686 l 1,2,-1
 302 686 l 1,3,-1
 447 146 l 1,4,-1
 451 146 l 1,5,-1
 749 686 l 1,6,-1
 902 686 l 1,7,-1
 805 0 l 1,8,-1
 707 0 l 1,9,-1
 788 571 l 1,10,-1
 782 571 l 1,11,-1
 464 0 l 1,12,-1
 381 0 l 1,13,-1
 226 571 l 1,14,-1
 221 571 l 1,15,-1
 140 0 l 1,0,-1
EndSplineSet
EndChar

StartChar: N
Encoding: 78 78 49
Width: 694
Flags: MW
HStem: 0 21G<51 140 51 51 478 478 478 561> 666 20G<148 234 234 234 569 658 658 658>
LayerCount: 2
Fore
SplineSet
140 0 m 1,0,-1
 51 0 l 1,1,-1
 148 686 l 1,2,-1
 234 686 l 1,3,-1
 496 190 l 1,4,-1
 499 191 l 1,5,-1
 569 686 l 1,6,-1
 658 686 l 1,7,-1
 561 0 l 1,8,-1
 478 0 l 1,9,-1
 214 502 l 1,10,-1
 211 501 l 1,11,-1
 140 0 l 1,0,-1
EndSplineSet
EndChar

StartChar: O
Encoding: 79 79 50
Width: 690
Flags: MW
HStem: -10 89<267.5 369 267.5 388.5> 607 89<335.5 437>
VStem: 57 99<185.5 249.5> 549 98<440.5 500>
LayerCount: 2
Fore
SplineSet
57 235 m 0,0,1
 57 262 57 262 75 388 c 1,2,3
 95 539 95 539 183 617.5 c 128,-1,4
 271 696 271 696 402 696 c 0,5,6
 512 696 512 696 579.5 633 c 128,-1,7
 647 570 647 570 647 450 c 0,8,9
 647 417 647 417 630 298 c 0,10,11
 609 146 609 146 522 68 c 128,-1,12
 435 -10 435 -10 303 -10 c 0,13,14
 193 -10 193 -10 125 53 c 128,-1,15
 57 116 57 116 57 235 c 0,0,1
156 244 m 0,16,17
 156 160 156 160 198 119.5 c 128,-1,18
 240 79 240 79 320 79 c 0,19,20
 400 79 400 79 457.5 132.5 c 128,-1,21
 515 186 515 186 532 299.5 c 0,22,23
 549 413 549 413 549 442 c 0,24,25
 549 526 549 526 506.5 566.5 c 128,-1,26
 464 607 464 607 383.5 607 c 0,27,28
 303 607 303 607 245.5 553.5 c 128,-1,29
 188 500 188 500 172 385.5 c 0,30,31
 156 271 156 271 156 244 c 0,16,17
EndSplineSet
EndChar

StartChar: P
Encoding: 80 80 51
Width: 626
Flags: MW
HStem: 0 21G<51 149 51 51> 286 89<202 387 189 391> 597 89<233 233 233 422>
VStem: 524 99<466.5 528>
LayerCount: 2
Fore
SplineSet
149 0 m 1,0,-1
 51 0 l 1,1,-1
 148 686 l 1,2,-1
 444 686 l 2,3,4
 522 686 522 686 572.5 639.5 c 128,-1,5
 623 593 623 593 623 517 c 0,6,7
 623 413 623 413 557.5 349.5 c 128,-1,8
 492 286 492 286 387 286 c 2,9,-1
 189 286 l 1,10,-1
 149 0 l 1,0,-1
233 597 m 1,11,-1
 202 375 l 1,12,-1
 391 375 l 2,13,14
 443 375 443 375 483.5 412.5 c 128,-1,15
 524 450 524 450 524 496 c 0,16,17
 524 542 524 542 495.5 569.5 c 128,-1,18
 467 597 467 597 422 597 c 2,19,-1
 233 597 l 1,11,-1
EndSplineSet
EndChar

StartChar: Q
Encoding: 81 81 52
Width: 690
Flags: MW
HStem: -145 75<418.5 443.5> -145 224<267.5 443.5> 607 89<335.5 437>
VStem: 57 99<185.5 249.5> 549 98<440.5 500>
LayerCount: 2
Fore
SplineSet
57 235 m 0,0,1
 57 262 57 262 75 388 c 1,2,3
 95 539 95 539 183 617.5 c 128,-1,4
 271 696 271 696 402 696 c 0,5,6
 512 696 512 696 579.5 633 c 128,-1,7
 647 570 647 570 647 450 c 0,8,9
 647 417 647 417 628.5 290 c 0,10,11
 610 163 610 163 539.5 86 c 128,-1,12
 469 9 469 9 360 -6 c 1,13,14
 363 -32 363 -32 385 -51 c 128,-1,15
 407 -70 407 -70 452 -70 c 0,16,17
 497 -70 497 -70 558 -46 c 1,18,-1
 571 -42 l 1,19,-1
 561 -112 l 1,20,21
 546 -121 546 -121 508.5 -133 c 0,22,23
 471 -145 471 -145 413.5 -145 c 0,24,25
 356 -145 356 -145 309.5 -110 c 128,-1,26
 263 -75 263 -75 263 -8 c 1,27,28
 168 2 168 2 112.5 64 c 128,-1,29
 57 126 57 126 57 235 c 0,0,1
156 244 m 0,30,31
 156 160 156 160 198 119.5 c 128,-1,32
 240 79 240 79 320 79 c 0,33,34
 400 79 400 79 457.5 132.5 c 128,-1,35
 515 186 515 186 532 299.5 c 0,36,37
 549 413 549 413 549 442 c 0,38,39
 549 526 549 526 506.5 566.5 c 128,-1,40
 464 607 464 607 383.5 607 c 0,41,42
 303 607 303 607 245.5 553.5 c 128,-1,43
 188 500 188 500 172 385.5 c 0,44,45
 156 271 156 271 156 244 c 0,30,31
EndSplineSet
EndChar

StartChar: R
Encoding: 82 82 53
Width: 670
Flags: MW
HStem: -5 21G<514.5 546.5> 0 21G<51 149 51 51> 302 89<204 365 191 399> 597 89<233 233 233 428>
VStem: 461 102<186.5 223> 523 40 523 102<502 536.5>
LayerCount: 2
Fore
SplineSet
454 85 m 1,0,-1
 461 173 l 1,1,2
 461 241 461 241 432.5 271.5 c 128,-1,3
 404 302 404 302 365 302 c 2,4,-1
 191 302 l 1,5,-1
 149 0 l 1,6,-1
 51 0 l 1,7,-1
 147 686 l 1,8,-1
 439 686 l 2,9,10
 520 686 520 686 572.5 649.5 c 128,-1,11
 625 613 625 613 625 545 c 128,-1,12
 625 477 625 477 585 421 c 128,-1,13
 545 365 545 365 477 354 c 1,14,-1
 477 349 l 1,15,16
 563 311 563 311 563 202 c 1,17,-1
 555 104 l 1,18,19
 555 46 555 46 593 31 c 1,20,-1
 589 3 l 1,21,22
 567 -5 567 -5 532.5 -5 c 128,-1,23
 498 -5 498 -5 476 14 c 128,-1,24
 454 33 454 33 454 85 c 1,0,-1
233 597 m 1,25,-1
 204 391 l 1,26,-1
 399 391 l 2,27,28
 446 391 446 391 484.5 426 c 128,-1,29
 523 461 523 461 523 505.5 c 128,-1,30
 523 550 523 550 497.5 573.5 c 128,-1,31
 472 597 472 597 428 597 c 2,32,-1
 233 597 l 1,25,-1
EndSplineSet
EndChar

StartChar: S
Encoding: 83 83 54
Width: 629
Flags: MW
HStem: -10 89<236 334 236 355.5> -10 225<43 355.5> 492 204<293.5 584 293.5 486> 607 89<316 399>
VStem: 36 99<141.5 168.5> 97 38 97 100<430.5 539.5 430.5 566.5> 463 101<160.5 277.5> 490 74 490 98<530.5 548.5>
LayerCount: 2
Fore
SplineSet
36 160 m 0,0,1
 36 194 36 194 43 215 c 1,2,-1
 141 215 l 1,3,4
 135 209 135 209 135 175 c 0,5,6
 135 127 135 127 173.5 103 c 128,-1,7
 212 79 212 79 288 79 c 128,-1,8
 364 79 364 79 413.5 110.5 c 128,-1,9
 463 142 463 142 463 201 c 0,10,11
 463 228 463 228 447.5 248 c 128,-1,12
 432 268 432 268 406 278.5 c 128,-1,13
 380 289 380 289 347 299.5 c 128,-1,14
 314 310 314 310 280 318 c 128,-1,15
 246 326 246 326 213 340.5 c 128,-1,16
 180 355 180 355 154 373.5 c 0,17,18
 97 414.057692308 97 414.057692308 97 505.028846154 c 128,-1,19
 97 596 97 596 173 646 c 128,-1,20
 249 696 249 696 359 696 c 128,-1,21
 469 696 469 696 528.5 656.5 c 128,-1,22
 588 617 588 617 588 536 c 0,23,24
 588 515 588 515 584 492 c 1,25,-1
 486 492 l 1,26,27
 490 512 490 512 490 520 c 0,28,29
 490 562 490 562 455 584.5 c 128,-1,30
 420 607 420 607 354.5 607 c 128,-1,31
 289 607 289 607 243 581 c 128,-1,32
 197 555 197 555 197 509.5 c 128,-1,33
 197 464 197 464 235 440.5 c 128,-1,34
 273 417 273 417 327 404 c 128,-1,35
 381 391 381 391 434.5 374 c 128,-1,36
 488 357 488 357 526 316.5 c 128,-1,37
 564 276 564 276 564 211 c 0,38,39
 564 -10 564 -10 271 -10 c 0,40,41
 165 -10 165 -10 100.5 31 c 128,-1,42
 36 72 36 72 36 160 c 0,0,1
EndSplineSet
EndChar

StartChar: T
Encoding: 84 84 55
Width: 575
Flags: MW
HStem: 0 21G<197 295 197 197> 597 89<80 281 67 607 379 379 379 594>
LayerCount: 2
Fore
SplineSet
281 597 m 1,0,-1
 67 597 l 1,1,-1
 80 686 l 1,2,-1
 607 686 l 1,3,-1
 594 597 l 1,4,-1
 379 597 l 1,5,-1
 295 0 l 1,6,-1
 197 0 l 1,7,-1
 281 597 l 1,0,-1
EndSplineSet
EndChar

StartChar: U
Encoding: 85 85 56
Width: 682
Flags: MW
HStem: -10 89<267 292 292 305> 666 20G<142 240 240 240 552 650 650 650>
VStem: 74 99<164.5 190.5>
LayerCount: 2
Fore
SplineSet
74 180 m 0,0,1
 74 189 74 189 142 686 c 1,2,-1
 240 686 l 1,3,4
 207.2 440 207.2 440 182 272 c 1,5,-1
 176 228 l 2,6,7
 173 209 173 209 173 200 c 0,8,9
 173 146 173 146 209.5 112.5 c 128,-1,10
 246 79 246 79 314.5 79 c 128,-1,11
 383 79 383 79 430.5 118 c 128,-1,12
 478 157 478 157 487 221 c 2,13,-1
 552 686 l 1,14,-1
 650 686 l 1,15,-1
 585 219 l 2,16,17
 571 112 571 112 498 51 c 128,-1,18
 425 -10 425 -10 305 -10 c 2,19,-1
 292 -10 l 2,20,21
 190 -10 190 -10 132 41 c 128,-1,22
 74 92 74 92 74 180 c 0,0,1
EndSplineSet
EndChar

StartChar: V
Encoding: 86 86 57
Width: 602
Flags: MW
HStem: 0 21G<205 205 205 310> 666 20G<59 163 163 163 556 651 651 651>
LayerCount: 2
Fore
SplineSet
205 0 m 1,0,-1
 59 686 l 1,1,-1
 163 686 l 1,2,-1
 278 133 l 1,3,-1
 284 133 l 1,4,-1
 556 686 l 1,5,-1
 651 686 l 1,6,-1
 310 0 l 1,7,-1
 205 0 l 1,0,-1
EndSplineSet
EndChar

StartChar: W
Encoding: 87 87 58
Width: 914
Flags: MW
HStem: 0 21G<165 165 165 265 557 557 557 657> 666 20G<67 171 171 171 468 563 563 563 860 955 955 955>
LayerCount: 2
Fore
SplineSet
165 0 m 1,0,-1
 67 686 l 1,1,-1
 171 686 l 1,2,-1
 243 169 l 1,3,-1
 249 169 l 1,4,-1
 468 686 l 1,5,-1
 563 686 l 1,6,-1
 635 169 l 1,7,-1
 641 169 l 1,8,-1
 860 686 l 1,9,-1
 955 686 l 1,10,-1
 657 0 l 1,11,-1
 557 0 l 1,12,-1
 487 496 l 1,13,-1
 480 496 l 1,14,-1
 265 0 l 1,15,-1
 165 0 l 1,0,-1
EndSplineSet
EndChar

StartChar: X
Encoding: 88 88 59
Width: 628
Flags: MW
HStem: 0 21G<-32 76 -32 -32 461 461 461 579> 665 20G
LayerCount: 2
Fore
SplineSet
76 0 m 1,0,-1
 -32 0 l 1,1,-1
 267 355 l 1,2,-1
 88 685 l 1,3,-1
 205 685 l 1,4,-1
 338 440 l 1,5,6
 384 494 384 494 449 571.5 c 128,-1,7
 514 649 514 649 528 665 c 2,8,-1
 545 685 l 1,9,-1
 654 685 l 1,10,-1
 630 658 l 2,11,12
 610 634 610 634 572.5 589.5 c 0,13,14
 433.529411765 424.588235294 433.529411765 424.588235294 381 361 c 1,15,-1
 579 0 l 1,16,-1
 461 0 l 1,17,-1
 310 276 l 1,18,19
 298 262 298 262 204.5 150.5 c 128,-1,20
 111 39 111 39 76 0 c 1,0,-1
EndSplineSet
EndChar

StartChar: Y
Encoding: 89 89 60
Width: 570
Flags: MW
HStem: 0 21G<193 291 193 193> 666 20G<49 160 160 160 528 629 629 629>
LayerCount: 2
Fore
SplineSet
231 265 m 1,0,-1
 49 686 l 1,1,-1
 160 686 l 1,2,-1
 298 367 l 1,3,-1
 302 367 l 1,4,-1
 528 686 l 1,5,-1
 629 686 l 1,6,-1
 329 265 l 1,7,-1
 291 0 l 1,8,-1
 193 0 l 1,9,-1
 231 265 l 1,0,-1
EndSplineSet
EndChar

StartChar: Z
Encoding: 90 90 61
Width: 595
Flags: MW
HStem: 0 89<153 514> 597 89<112 440 99 603>
LayerCount: 2
Fore
SplineSet
514 0 m 1,0,-1
 -9 0 l 1,1,-1
 -3 38 l 1,2,-1
 440 597 l 1,3,-1
 99 597 l 1,4,-1
 112 686 l 1,5,-1
 603 686 l 1,6,-1
 597 648 l 1,7,-1
 153 89 l 1,8,-1
 527 89 l 1,9,-1
 514 0 l 1,0,-1
EndSplineSet
EndChar

StartChar: bracketleft
Encoding: 91 91 62
Width: 294
Flags: MW
HStem: -161 55<111 191> 631 55<214 302 214 214>
LayerCount: 2
Fore
SplineSet
191 -161 m 1,0,-1
 22 -161 l 1,1,-1
 141 686 l 1,2,-1
 310 686 l 1,3,-1
 302 631 l 1,4,-1
 214 631 l 1,5,-1
 111 -106 l 1,6,-1
 199 -106 l 1,7,-1
 191 -161 l 1,0,-1
EndSplineSet
EndChar

StartChar: backslash
Encoding: 92 92 63
Width: 593
Flags: MW
HStem: -171 21G<434 434 434 515> 666 20G<68 147 147 147>
LayerCount: 2
Fore
SplineSet
434 -171 m 1,0,-1
 68 686 l 1,1,-1
 147 686 l 1,2,-1
 515 -171 l 1,3,-1
 434 -171 l 1,0,-1
EndSplineSet
EndChar

StartChar: bracketright
Encoding: 93 93 64
Width: 294
Flags: MW
HStem: -161 55<-16 72 -16 145 -24 72> 631 55<95 175 87 264>
LayerCount: 2
Fore
SplineSet
145 -161 m 1,0,-1
 -24 -161 l 1,1,-1
 -16 -106 l 1,2,-1
 72 -106 l 1,3,-1
 175 631 l 1,4,-1
 87 631 l 1,5,-1
 95 686 l 1,6,-1
 264 686 l 1,7,-1
 145 -161 l 1,0,-1
EndSplineSet
EndChar

StartChar: asciicircum
Encoding: 94 94 65
Width: 596
Flags: MW
HStem: 0 21G<12 96 12 12 425 425 425 509> 491 20G<280 383 383 383>
LayerCount: 2
Fore
SplineSet
320 421 m 1,0,-1
 96 0 l 1,1,-1
 12 0 l 1,2,-1
 280 511 l 1,3,-1
 383 511 l 1,4,-1
 509 0 l 1,5,-1
 425 0 l 1,6,7
 407 70 407 70 320 421 c 1,0,-1
EndSplineSet
EndChar

StartChar: underscore
Encoding: 95 95 66
Width: 687
Flags: MW
HStem: -124 60<43 533 35 542>
LayerCount: 2
Fore
SplineSet
533 -124 m 1,0,-1
 35 -124 l 1,1,-1
 43 -64 l 1,2,-1
 542 -64 l 1,3,-1
 533 -124 l 1,0,-1
EndSplineSet
EndChar

StartChar: grave
Encoding: 96 96 67
Width: 333
Flags: MW
HStem: 575 21G<171 171 171 241> 700 20G<78 167 167 167>
LayerCount: 2
Fore
SplineSet
171 575 m 1,0,-1
 76 717 l 1,1,-1
 78 720 l 1,2,-1
 167 720 l 1,3,-1
 241 575 l 1,4,-1
 171 575 l 1,0,-1
EndSplineSet
EndChar

StartChar: a
Encoding: 97 97 68
Width: 607
Flags: MW
HStem: -10 75<210.5 250.5> 446 75<231.5 318.5 218.5 329.5> 491 20G<465 530 530 530>
VStem: 42 93<145 244 145 297.5>
LayerCount: 2
Fore
SplineSet
42 190 m 0,0,1
 42 345 42 345 111.5 433 c 128,-1,2
 181 521 181 521 283.5 521 c 128,-1,3
 386 521 386 521 427 446 c 1,4,-1
 434 446 l 1,5,-1
 465 511 l 1,6,-1
 530 511 l 1,7,8
 513.883280757 411.820189274 513.883280757 411.820189274 492.941640379 252.910094637 c 128,-1,9
 472 94 472 94 472 92 c 0,10,11
 472 65 472 65 496.5 65 c 128,-1,12
 521 65 521 65 543 79 c 1,13,-1
 534 10 l 1,14,15
 502 -10 502 -10 457 -10 c 0,16,17
 381 -10 381 -10 381 65 c 1,18,19
 312 -10 312 -10 216 -10 c 0,20,21
 137 -10 137 -10 89.5 40.5 c 128,-1,22
 42 91 42 91 42 190 c 0,0,1
163 94.5 m 128,-1,24
 191 65 191 65 244 65 c 0,25,26
 324 65 324 65 365 136 c 128,-1,27
 406 207 406 207 406 318 c 0,28,29
 406 446 406 446 297 446 c 0,30,31
 251 446 251 446 217 421.5 c 128,-1,32
 183 397 183 397 166.5 357 c 0,33,34
 135 280.636363636 135 280.636363636 135 202.318181818 c 128,-1,23
 135 124 135 124 163 94.5 c 128,-1,24
EndSplineSet
EndChar

StartChar: b
Encoding: 98 98 69
Width: 582
Flags: MW
HStem: -10 75<243 324 240.5 373.5> 0 21G<42 78 42 42> 446 75<327 359.5> 700 20G<143 237 237 237>
VStem: 436 95<254.5 366>
LayerCount: 2
Fore
SplineSet
78 0 m 1,0,-1
 42 0 l 1,1,-1
 143 720 l 1,2,-1
 237 720 l 1,3,-1
 198 446 l 1,4,5
 262 521 262 521 363 521 c 0,6,7
 438 521 438 521 484.5 470 c 128,-1,8
 531 419 531 419 531 325 c 0,9,10
 531 206.660714286 531 206.660714286 476 105.5 c 0,11,12
 448 54 448 54 397.5 22 c 128,-1,13
 347 -10 347 -10 281 -10 c 0,14,15
 167 -10 167 -10 122 81 c 1,16,-1
 78 0 l 1,0,-1
179 313 m 128,-1,18
 165 259 165 259 165 191.5 c 128,-1,19
 165 124 165 124 193 94.5 c 128,-1,20
 221 65 221 65 274 65 c 0,21,22
 350 65 350 65 393 130 c 128,-1,23
 436 195 436 195 436 320.5 c 128,-1,24
 436 446 436 446 327 446 c 0,25,26
 269 446 269 446 231 406.5 c 128,-1,17
 193 367 193 367 179 313 c 128,-1,18
EndSplineSet
EndChar

StartChar: c
Encoding: 99 99 70
Width: 546
Flags: MW
HStem: -10 75<216 235 235 243> -10 210<177.5 484 235 484> 310 211<309 499 309 406> 446 75<309 317 317 337.5>
VStem: 42 93<148 247.5 148 278.5> 408 94<340.5 368.5>
LayerCount: 2
Fore
SplineSet
42 191 m 0,0,1
 42 333 42 333 110 427 c 128,-1,2
 178 521 178 521 309 521 c 2,3,-1
 317 521 l 2,4,5
 401 521 401 521 451.5 474 c 128,-1,6
 502 427 502 427 502 346 c 0,7,8
 502 329.5 502 329.5 499 310 c 1,9,-1
 406 310 l 1,10,11
 408 328 408 328 408 337 c 0,12,13
 408 386 408 386 381 416 c 128,-1,14
 354 446 354 446 304 446 c 128,-1,15
 254 446 254 446 219.5 422.5 c 128,-1,16
 185 399 185 399 167.5 360 c 0,17,18
 135 287.571428571 135 287.571428571 135 192 c 0,19,20
 135 65 135 65 252 65 c 0,21,22
 313 65 313 65 349 101.5 c 128,-1,23
 385 138 385 138 394 200 c 1,24,-1
 484 200 l 1,25,26
 470 99 470 99 407 44.5 c 128,-1,27
 344 -10 344 -10 243 -10 c 2,28,-1
 235 -10 l 2,29,30
 147 -10 147 -10 94.5 43 c 128,-1,31
 42 96 42 96 42 191 c 0,0,1
EndSplineSet
EndChar

StartChar: d
Encoding: 100 100 71
Width: 612
Flags: MW
HStem: -10 75<210.5 250.5> 446 75<231.5 318.5 218.5 329.5> 700 20G<466 560 560 560>
VStem: 42 93<145 244 145 297.5>
LayerCount: 2
Fore
SplineSet
42 190 m 0,0,1
 42 345 42 345 111.5 433 c 128,-1,2
 181 521 181 521 283.5 521 c 128,-1,3
 386 521 386 521 427 446 c 1,4,-1
 466 720 l 1,5,-1
 560 720 l 1,6,7
 550 653 550 653 535 543.5 c 128,-1,8
 520 434 520 434 513.5 388 c 128,-1,9
 507 342 507 342 495.5 262 c 0,10,11
 472 98.5217391304 472 98.5217391304 472 92 c 0,12,13
 472 65 472 65 496.5 65 c 128,-1,14
 521 65 521 65 543 79 c 1,15,-1
 534 10 l 1,16,17
 502 -10 502 -10 457 -10 c 0,18,19
 381 -10 381 -10 381 65 c 1,20,21
 312 -10 312 -10 216 -10 c 0,22,23
 137 -10 137 -10 89.5 40.5 c 128,-1,24
 42 91 42 91 42 190 c 0,0,1
163 94.5 m 128,-1,26
 191 65 191 65 244 65 c 0,27,28
 324 65 324 65 365 136 c 128,-1,29
 406 207 406 207 406 318 c 0,30,31
 406 446 406 446 297 446 c 0,32,33
 251 446 251 446 217 421.5 c 128,-1,34
 183 397 183 397 166.5 357 c 0,35,36
 135 280.636363636 135 280.636363636 135 202.318181818 c 128,-1,25
 135 124 135 124 163 94.5 c 128,-1,26
EndSplineSet
EndChar

StartChar: e
Encoding: 101 101 72
Width: 556
Flags: MW
HStem: -10 75<212 242 242 246> -10 200<181.5 488 242 488> 234 73<150 412 150 494 137 412> 446 75<314 321 321 337.5>
VStem: 41 94<162.5 207.5 162.5 279.5> 415 92<339 344 327 377>
LayerCount: 2
Fore
SplineSet
95.5 43 m 128,-1,1
 41 96 41 96 41 189 c 128,-1,2
 41 282 41 282 70 355 c 128,-1,3
 99 428 99 428 162 474.5 c 128,-1,4
 225 521 225 521 314 521 c 2,5,-1
 321 521 l 2,6,7
 406 521 406 521 456.5 474 c 128,-1,8
 507 427 507 427 507 344 c 2,9,-1
 507 333 l 2,10,11
 507 312 507 312 494 234 c 1,12,-1
 137 234 l 1,13,14
 135 212 135 212 135 202 c 0,15,16
 135 65 135 65 256 65 c 0,17,18
 295 65 295 65 324.5 79 c 128,-1,19
 354 93 354 93 368.5 116 c 0,20,21
 393.1953125 155.171875 393.1953125 155.171875 399 190 c 1,22,-1
 488 190 l 1,23,24
 475 96 475 96 411.5 43 c 128,-1,25
 348 -10 348 -10 246 -10 c 2,26,-1
 242 -10 l 2,27,0
 150 -10 150 -10 95.5 43 c 128,-1,1
150 307 m 1,28,-1
 412 307 l 1,29,30
 415 327 415 327 415 343 c 0,31,32
 415 393 415 393 385 419.5 c 128,-1,33
 355 446 355 446 301.5 446 c 128,-1,34
 248 446 248 446 207.5 411 c 128,-1,35
 167 376 167 376 150 307 c 1,28,-1
EndSplineSet
EndChar

StartChar: f
Encoding: 102 102 73
Width: 340
Flags: MW
HStem: -184 74<-10 2 -18.5 40.5> 436 75<76 125 66 134 227 338> 654 74<291 304 252 312.5>
LayerCount: 2
Fore
SplineSet
-80 -165 m 1,0,-1
 -72 -96 l 1,1,2
 -42 -110 -42 -110 -20.5 -110 c 128,-1,3
 1 -110 1 -110 9.5 -108 c 128,-1,4
 18 -106 18 -106 28 -100 c 0,5,6
 48 -88 48 -88 54 -46 c 2,7,-1
 125 436 l 1,8,-1
 66 436 l 1,9,-1
 76 511 l 1,10,-1
 134 511 l 1,11,-1
 147 602 l 2,12,13
 165 728 165 728 290 728 c 0,14,15
 342 728 342 728 374 709 c 1,16,-1
 365 640 l 1,17,18
 335 654 335 654 311.5 654 c 128,-1,19
 288 654 288 654 276.5 650.5 c 128,-1,20
 265 647 265 647 254 632 c 128,-1,21
 243 617 243 617 239 590 c 2,22,-1
 227 511 l 1,23,-1
 347 511 l 1,24,-1
 338 436 l 1,25,-1
 218 436 l 1,26,-1
 147 -58 l 2,27,28
 138 -122 138 -122 100 -153 c 128,-1,29
 62 -184 62 -184 6 -184 c 128,-1,30
 -50 -184 -50 -184 -80 -165 c 1,0,-1
EndSplineSet
EndChar

StartChar: g
Encoding: 103 103 74
Width: 583
Flags: MW
HStem: -186 75<188.5 264.5 188.5 294> -186 167<21 294> 20 75<217 251> 446 75<259.5 330.5 208 333> 491 20G<496 532 532 532>
VStem: 21 93<-47 -19 -47 -19> 44 70
LayerCount: 2
Fore
SplineSet
21 -19 m 1,0,-1
 114 -19 l 1,1,2
 114 -61 114 -61 143 -86 c 128,-1,3
 172 -111 172 -111 227.5 -111 c 128,-1,4
 283 -111 283 -111 321 -75.5 c 128,-1,5
 359 -40 359 -40 368 15 c 1,6,-1
 379 95 l 1,7,8
 318 20 318 20 215 20 c 0,9,10
 139 20 139 20 91.5 69 c 128,-1,11
 44 118 44 118 44 204.5 c 128,-1,12
 44 291 44 291 70 360.5 c 128,-1,13
 96 430 96 430 154 475.5 c 128,-1,14
 212 521 212 521 292 521 c 0,15,16
 408 521 408 521 451 430 c 1,17,-1
 496 511 l 1,18,-1
 532 511 l 1,19,-1
 465 34 l 2,20,21
 452 -65 452 -65 390 -125.5 c 128,-1,22
 328 -186 328 -186 213 -186 c 0,23,24
 119 -186 119 -186 70 -139 c 128,-1,25
 21 -92 21 -92 21 -19 c 1,0,-1
185.5 393 m 128,-1,27
 140 340 140 340 140 217.5 c 128,-1,28
 140 95 140 95 250 95 c 0,29,30
 305 95 305 95 342.5 131.5 c 0,31,32
 409 196.226666667 409 196.226666667 409 326 c 0,33,34
 409 391 409 391 381 418.5 c 128,-1,35
 353 446 353 446 300 446 c 0,36,26
 231 446 231 446 185.5 393 c 128,-1,27
EndSplineSet
EndChar

StartChar: h
Encoding: 104 104 75
Width: 593
Flags: MW
HStem: 0 21G<42 136 42 42 380 380 380 474> 446 75<338.5 363> 700 20G<143 237 237 237>
VStem: 428 97<371 388>
LayerCount: 2
Fore
SplineSet
136 0 m 1,0,-1
 42 0 l 1,1,-1
 143 720 l 1,2,-1
 237 720 l 1,3,-1
 199 447 l 1,4,5
 272 521 272 521 367 521 c 0,6,7
 439 521 439 521 482 486 c 128,-1,8
 525 451 525 451 525 380 c 0,9,10
 525 359 525 359 499 177 c 2,11,-1
 474 0 l 1,12,-1
 380 0 l 1,13,-1
 404 167 l 1,14,15
 428 352 428 352 428 356 c 0,16,17
 428 446 428 446 335 446 c 0,18,19
 281 446 281 446 234 404.5 c 128,-1,20
 187 363 187 363 179 304 c 2,21,-1
 136 0 l 1,0,-1
EndSplineSet
EndChar

StartChar: i
Encoding: 105 105 76
Width: 260
Flags: MW
HStem: 0 21G<42 136 42 42> 491 20G<114 208 208 208> 633 87<141 227 129 239>
LayerCount: 2
Fore
SplineSet
136 0 m 1,0,-1
 42 0 l 1,1,-1
 114 511 l 1,2,-1
 208 511 l 1,3,-1
 136 0 l 1,0,-1
227 633 m 1,4,-1
 129 633 l 1,5,-1
 141 720 l 1,6,-1
 239 720 l 1,7,-1
 227 633 l 1,4,-1
EndSplineSet
EndChar

StartChar: j
Encoding: 106 106 77
Width: 260
Flags: MW
HStem: -186 74<-28 -16 -36.5 32> 491 20G<114 208 208 208> 633 87<141 227 129 239>
LayerCount: 2
Fore
SplineSet
-96 -167 m 1,0,-1
 -87 -97 l 1,1,2
 -55 -112 -55 -112 -29 -112 c 0,3,4
 27 -112 27 -112 36 -44 c 2,5,-1
 114 511 l 1,6,-1
 208 511 l 1,7,-1
 134 -15 l 2,8,9
 121 -106 121 -106 87.5 -146 c 128,-1,10
 54 -186 54 -186 -6 -186 c 0,11,12
 -66 -186 -66 -186 -96 -167 c 1,0,-1
227 633 m 1,13,-1
 129 633 l 1,14,-1
 141 720 l 1,15,-1
 239 720 l 1,16,-1
 227 633 l 1,13,-1
EndSplineSet
EndChar

StartChar: k
Encoding: 107 107 78
Width: 534
Flags: MW
HStem: 0 21G<42 136 42 42 366 366 366 480> 491 20G<436 539 539 539> 700 20G<143 237 237 237>
LayerCount: 2
Fore
SplineSet
136 0 m 1,0,-1
 42 0 l 1,1,-1
 143 720 l 1,2,-1
 237 720 l 1,3,-1
 168 226 l 1,4,-1
 436 511 l 1,5,-1
 539 511 l 1,6,-1
 307 263 l 1,7,-1
 480 0 l 1,8,-1
 366 0 l 1,9,-1
 240 190 l 1,10,-1
 151 110 l 1,11,-1
 136 0 l 1,0,-1
EndSplineSet
EndChar

StartChar: l
Encoding: 108 108 79
Width: 268
Flags: MW
HStem: 0 21G<46 140 46 46> 700 20G<147 241 241 241>
LayerCount: 2
Fore
SplineSet
140 0 m 1,0,-1
 46 0 l 1,1,-1
 147 720 l 1,2,-1
 241 720 l 1,3,-1
 140 0 l 1,0,-1
EndSplineSet
EndChar

StartChar: m
Encoding: 109 109 80
Width: 867
Flags: MW
HStem: 0 21G<42 136 42 42 348 348 348 442 654 654 654 748> 446 75<322.5 343 629 649> 491 20G<114 184 184 184>
VStem: 184 213<354.5 511 354.5 436> 702 97<374 394.5>
LayerCount: 2
Fore
SplineSet
136 0 m 1,0,-1
 42 0 l 1,1,-1
 114 511 l 1,2,-1
 184 511 l 1,3,-1
 184 436 l 1,4,5
 256 521 256 521 351 521 c 0,6,7
 458 521 458 521 485 436 c 1,8,9
 558 521 558 521 657 521 c 0,10,11
 722 521 722 521 760.5 487 c 128,-1,12
 799 453 799 453 799 384 c 0,13,14
 799 359 799 359 773 177 c 2,15,-1
 748 0 l 1,16,-1
 654 0 l 1,17,-1
 678 170 l 2,18,19
 682 203 682 203 688.5 252 c 0,20,21
 702 353.769230769 702 353.769230769 702 361 c 0,22,23
 702 409 702 409 683 427.5 c 128,-1,24
 664 446 664 446 620 446 c 128,-1,25
 576 446 576 446 534.5 404.5 c 128,-1,26
 493 363 493 363 485 304 c 2,27,-1
 442 0 l 1,28,-1
 348 0 l 1,29,-1
 372 171 l 2,30,31
 376 206 376 206 383 253.5 c 0,32,33
 397 348.5 397 348.5 397 361 c 0,34,35
 397 446 397 446 319 446 c 0,36,37
 270 446 270 446 228.5 404.5 c 128,-1,38
 187 363 187 363 179 304 c 2,39,-1
 136 0 l 1,0,-1
EndSplineSet
EndChar

StartChar: n
Encoding: 110 110 81
Width: 593
Flags: MW
HStem: 0 21G<42 136 42 42 380 380 380 474> 446 75<335.5 363> 491 20G<114 184 184 184>
VStem: 184 244<348 511 348 436> 428 97<372 388>
LayerCount: 2
Fore
SplineSet
136 0 m 1,0,-1
 42 0 l 1,1,-1
 114 511 l 1,2,-1
 184 511 l 1,3,-1
 184 436 l 1,4,5
 262 521 262 521 367 521 c 0,6,7
 439 521 439 521 482 486 c 128,-1,8
 525 451 525 451 525 380 c 0,9,10
 525 358 525 358 499 178 c 2,11,-1
 474 0 l 1,12,-1
 380 0 l 1,13,-1
 404 167 l 1,14,15
 428 355 428 355 428 356 c 0,16,17
 428 446 428 446 335 446 c 0,18,19
 281 446 281 446 234 404.5 c 128,-1,20
 187 363 187 363 179 304 c 2,21,-1
 136 0 l 1,0,-1
EndSplineSet
EndChar

StartChar: o
Encoding: 111 111 82
Width: 576
Flags: MW
HStem: -10 75<222 321.5 222 350.5> 446 75<241 343>
VStem: 41 95<152.5 254.5 152.5 269> 428 96<255.5 358>
LayerCount: 2
Fore
SplineSet
41 187 m 0,0,1
 41 320.161290323 41 320.161290323 101 415 c 0,2,3
 132 464 132 464 188 492.5 c 128,-1,4
 244 521 244 521 327.5 521 c 128,-1,5
 411 521 411 521 467.5 470.5 c 128,-1,6
 524 420 524 420 524 324 c 0,7,8
 524 190.838709677 524 190.838709677 464 96 c 0,9,10
 433 47 433 47 377 18.5 c 128,-1,11
 321 -10 321 -10 237.5 -10 c 128,-1,12
 154 -10 154 -10 97.5 40.5 c 128,-1,13
 41 91 41 91 41 187 c 0,0,1
169 98.5 m 128,-1,15
 202 65 202 65 252.5 65 c 128,-1,16
 303 65 303 65 338 87.5 c 128,-1,17
 373 110 373 110 391.5 147 c 0,18,19
 428 220 428 220 428 299.5 c 128,-1,20
 428 379 428 379 395.5 412.5 c 128,-1,21
 363 446 363 446 311.5 446 c 128,-1,22
 260 446 260 446 225 423.5 c 128,-1,23
 190 401 190 401 171.5 363 c 0,24,25
 136 290.081081081 136 290.081081081 136 211.040540541 c 128,-1,14
 136 132 136 132 169 98.5 c 128,-1,15
EndSplineSet
EndChar

StartChar: p
Encoding: 112 112 83
Width: 583
Flags: MW
HStem: -181 21G<17 111 17 17> -10 75<253 342.5> 446 75<321 361.5> 491 20G<114 188 188 188>
VStem: 188 250<263.5 511 263.5 441> 438 93<263.5 365.5>
LayerCount: 2
Fore
SplineSet
111 -181 m 1,0,-1
 17 -181 l 1,1,-1
 114 511 l 1,2,-1
 188 511 l 1,3,-1
 188 441 l 1,4,5
 255 521 255 521 357 521 c 0,6,7
 435 521 435 521 483 470.5 c 128,-1,8
 531 420 531 420 531 320 c 0,9,10
 531 202.62962963 531 202.62962963 478 103.5 c 0,11,12
 451 53 451 53 402 21.5 c 128,-1,13
 353 -10 353 -10 289 -10 c 0,14,15
 187 -10 187 -10 146 65 c 1,16,-1
 111 -181 l 1,0,-1
167 193 m 0,17,18
 167 124 167 124 195 94.5 c 128,-1,19
 223 65 223 65 273 65 c 128,-1,20
 323 65 323 65 357 88.5 c 128,-1,21
 391 112 391 112 407.5 151.5 c 0,22,23
 438 224.515151515 438 224.515151515 438 317 c 0,24,25
 438 446 438 446 329 446 c 0,26,27
 259 446 259 446 213 387 c 128,-1,28
 167 328 167 328 167 193 c 0,17,18
EndSplineSet
EndChar

StartChar: q
Encoding: 113 113 84
Width: 582
Flags: MW
HStem: -180 245<211.5 374 211.5 433 211.5 339> -10 75<211.5 245> 446 75<250.5 328.5 197.5 330.5> 491 20G<494 530 530 530>
VStem: 40 96<145 256.5>
LayerCount: 2
Fore
SplineSet
40 185 m 0,0,1
 40 303.857142857 40 303.857142857 95 406 c 0,2,3
 123 458 123 458 173.5 489.5 c 128,-1,4
 224 521 224 521 291 521 c 0,5,6
 404 521 404 521 450 430 c 1,7,-1
 494 511 l 1,8,-1
 530 511 l 1,9,-1
 433 -180 l 1,10,-1
 339 -180 l 1,11,-1
 374 65 l 1,12,13
 310 -10 310 -10 209 -10 c 0,14,15
 134 -10 134 -10 87 41 c 128,-1,16
 40 92 40 92 40 185 c 0,0,1
136 193 m 0,17,18
 136 124 136 124 164 94.5 c 128,-1,19
 192 65 192 65 241.5 65 c 128,-1,20
 291 65 291 65 324.5 88.5 c 128,-1,21
 358 112 358 112 375 151.5 c 0,22,23
 407 225.852941176 407 225.852941176 407 317 c 0,24,25
 407 446 407 446 298 446 c 0,26,27
 224 446 224 446 180 381.5 c 128,-1,28
 136 317 136 317 136 193 c 0,17,18
EndSplineSet
EndChar

StartChar: r
Encoding: 114 114 85
Width: 489
Flags: MW
HStem: 0 21G<42 136 42 42> 323 198<382 390 290 465 382 382> 446 75<290 332> 491 20G<114 184 184 184>
VStem: 184 202<355.5 511 355.5 435> 386 90<355.5 427>
LayerCount: 2
Fore
SplineSet
136 0 m 1,0,-1
 42 0 l 1,1,-1
 114 511 l 1,2,-1
 184 511 l 1,3,-1
 184 435 l 1,4,5
 211.577319588 490.154639175 211.577319588 490.154639175 286.5 512.5 c 0,6,7
 315 521 315 521 348 521 c 0,8,9
 409 521 409 521 442.5 484.5 c 128,-1,10
 476 448 476 448 476 389 c 0,11,12
 476 374 476 374 472 350.5 c 128,-1,13
 468 327 468 327 465 323 c 1,14,-1
 382 323 l 1,15,16
 386 350 386 350 386 358 c 0,17,18
 386 391 386 391 364.5 418.5 c 128,-1,19
 343 446 343 446 295.5 446 c 128,-1,20
 248 446 248 446 217 403.5 c 128,-1,21
 186 361 186 361 179 305 c 2,22,-1
 136 0 l 1,0,-1
EndSplineSet
EndChar

StartChar: s
Encoding: 115 115 86
Width: 536
Flags: MW
HStem: -10 75<205 211 211 226> -10 170<28 211 28 226> 364 157<302 483 302 390> 446 75<302 311 311 327.5>
VStem: 23 96<111.5 132.5> 69 50 69 97<320 384.5 320 406.5> 371 97<120 204> 392 76 392 95<392.5 399.5>
LayerCount: 2
Fore
SplineSet
391 372 m 2,0,-1
 392 383 l 1,1,2
 392 446 392 446 288 446 c 0,3,4
 220 446 220 446 193 422.5 c 128,-1,5
 166 399 166 399 166 371 c 128,-1,6
 166 343 166 343 197 328 c 128,-1,7
 228 313 228 313 272.5 305 c 128,-1,8
 317 297 317 297 361.5 286 c 128,-1,9
 406 275 406 275 437 245.5 c 128,-1,10
 468 216 468 216 468 168 c 0,11,12
 468 74 468 74 401.5 32 c 128,-1,13
 335 -10 335 -10 226 -10 c 2,14,-1
 211 -10 l 2,15,16
 118 -10 118 -10 70.5 27.5 c 128,-1,17
 23 65 23 65 23 121 c 0,18,19
 23 134 23 134 25.5 146.5 c 128,-1,20
 28 159 28 159 28 160 c 1,21,-1
 121 160 l 1,22,-1
 119 146.5 l 1,23,-1
 119 137 l 2,24,25
 119 101 119 101 152 83 c 128,-1,26
 185 65 185 65 240.5 65 c 128,-1,27
 296 65 296 65 333.5 86.5 c 128,-1,28
 371 108 371 108 371 143 c 128,-1,29
 371 178 371 178 340 195 c 128,-1,30
 309 212 309 212 264.5 220 c 128,-1,31
 220 228 220 228 175.5 238.5 c 128,-1,32
 131 249 131 249 100 278 c 128,-1,33
 69 307 69 307 69 355 c 0,34,35
 69 433 69 433 130 477 c 128,-1,36
 191 521 191 521 302 521 c 2,37,-1
 311 521 l 2,38,39
 392 521 392 521 439.5 486 c 128,-1,40
 487 451 487 451 487 398 c 0,41,42
 487 376 487 376 483 364 c 1,43,-1
 390 364 l 1,44,45
 390 369 390 369 391 372 c 2,0,-1
EndSplineSet
EndChar

StartChar: t
Encoding: 116 116 87
Width: 344
Flags: MW
HStem: -10 73<145.5 224.5> 436 75<73 118 62 128 223 331> 436 238<62 253 62 253 212 212 212 253 150 331>
VStem: 73 94<90.5 101>
LayerCount: 2
Fore
SplineSet
87 221 m 2,0,-1
 118 436 l 1,1,-1
 62 436 l 1,2,-1
 73 511 l 1,3,-1
 128 511 l 1,4,-1
 150 674 l 1,5,-1
 253 674 l 1,6,-1
 223 511 l 1,7,-1
 342 511 l 1,8,-1
 331 436 l 1,9,-1
 212 436 l 1,10,11
 207 403 207 403 199 348 c 128,-1,12
 191 293 191 293 189 283 c 2,13,-1
 181 225 l 2,14,15
 167 127 167 127 167 112 c 0,16,17
 167 63 167 63 217 63 c 0,18,19
 245 63 245 63 281 78 c 1,20,-1
 271 8 l 1,21,22
 233 -10 233 -10 179.5 -10 c 128,-1,23
 126 -10 126 -10 99.5 14.5 c 128,-1,24
 73 39 73 39 73 93 c 0,25,26
 73 118 73 118 87 221 c 2,0,-1
EndSplineSet
EndChar

StartChar: u
Encoding: 117 117 88
Width: 617
Flags: MW
HStem: -10 75<220 253.5> 491 20G<109 203 203 203 447 541 541 541>
VStem: 58 97<122.5 138> 155 236<64 163.5>
LayerCount: 2
Fore
SplineSet
58 131 m 0,0,1
 58 162.052631579 58 162.052631579 109 511 c 1,2,-1
 203 511 l 1,3,-1
 179 346 l 1,4,5
 155 189 155 189 155 155 c 0,6,7
 155 65 155 65 248 65 c 0,8,9
 301 65 301 65 347.5 106.5 c 128,-1,10
 394 148 394 148 404 207 c 1,11,-1
 447 511 l 1,12,-1
 541 511 l 1,13,-1
 511 304 l 1,14,15
 482 116 482 116 482 90.5 c 128,-1,16
 482 65 482 65 506.5 65 c 128,-1,17
 531 65 531 65 553 79 c 1,18,-1
 544 10 l 1,19,20
 512 -10 512 -10 467 -10 c 0,21,22
 391 -10 391 -10 391 64 c 2,23,-1
 391 74 l 1,24,25
 360 39 360 39 314 14.5 c 128,-1,26
 268 -10 268 -10 206 -10 c 128,-1,27
 144 -10 144 -10 101 25 c 128,-1,28
 58 60 58 60 58 131 c 0,0,1
EndSplineSet
EndChar

StartChar: v
Encoding: 118 118 89
Width: 512
Flags: MW
HStem: 0 21G<165 165 165 265> 491 20G<43 142 142 142 438 530 530 530>
LayerCount: 2
Fore
SplineSet
165 0 m 1,0,-1
 43 511 l 1,1,-1
 142 511 l 1,2,-1
 233 120 l 1,3,-1
 237 120 l 1,4,-1
 438 511 l 1,5,-1
 530 511 l 1,6,-1
 265 0 l 1,7,-1
 165 0 l 1,0,-1
EndSplineSet
EndChar

StartChar: w
Encoding: 119 119 90
Width: 809
Flags: MW
HStem: 0 21G<146 146 146 244 482 482 482 580> 491 20G<50 146 146 146 390 482 482 482 726 818 818 818>
LayerCount: 2
Fore
SplineSet
146 0 m 1,0,-1
 50 511 l 1,1,-1
 146 511 l 1,2,-1
 213 137 l 1,3,-1
 217 137 l 1,4,-1
 390 511 l 1,5,-1
 482 511 l 1,6,-1
 549 137 l 1,7,-1
 553 137 l 1,8,-1
 726 511 l 1,9,-1
 818 511 l 1,10,-1
 580 0 l 1,11,-1
 482 0 l 1,12,-1
 414 357 l 1,13,-1
 410 357 l 1,14,-1
 244 0 l 1,15,-1
 146 0 l 1,0,-1
EndSplineSet
EndChar

StartChar: x
Encoding: 120 120 91
Width: 517
Flags: MW
HStem: 0 21G<-23 79 -23 -23 347 347 347 459> 491 20G<58 169 169 169 418 521 521 521>
LayerCount: 2
Fore
SplineSet
79 0 m 1,0,-1
 -23 0 l 1,1,-1
 200 259 l 1,2,-1
 58 511 l 1,3,-1
 169 511 l 1,4,-1
 268 337 l 1,5,-1
 418 511 l 1,6,-1
 521 511 l 1,7,-1
 308 265 l 1,8,-1
 459 0 l 1,9,-1
 347 0 l 1,10,-1
 240 187 l 1,11,-1
 79 0 l 1,0,-1
EndSplineSet
EndChar

StartChar: y
Encoding: 121 121 92
Width: 510
Flags: MW
HStem: -186 77<38.5 61 38.5 98.5> 491 20G<42 141 141 141 437 529 529 529>
LayerCount: 2
Fore
SplineSet
-19 -172 m 1,0,-1
 -9 -95 l 1,1,2
 17 -109 17 -109 49 -109 c 0,3,4
 118 -109 118 -109 169 5 c 1,5,-1
 42 511 l 1,6,-1
 141 511 l 1,7,-1
 235 134 l 1,8,-1
 239 134 l 1,9,-1
 437 511 l 1,10,-1
 529 511 l 1,11,-1
 269 20 l 2,12,13
 217 -78 217 -78 166.5 -132 c 128,-1,14
 116 -186 116 -186 52 -186 c 0,15,16
 11 -186 11 -186 -19 -172 c 1,0,-1
EndSplineSet
EndChar

StartChar: z
Encoding: 122 122 93
Width: 463
Flags: MW
HStem: 0 75<135 383> 436 75<82 306 72 446>
LayerCount: 2
Fore
SplineSet
383 0 m 1,0,-1
 -4 0 l 1,1,-1
 1 38 l 1,2,-1
 306 436 l 1,3,-1
 72 436 l 1,4,-1
 82 511 l 1,5,-1
 446 511 l 1,6,-1
 441 474 l 1,7,-1
 135 75 l 1,8,-1
 393 75 l 1,9,-1
 383 0 l 1,0,-1
EndSplineSet
EndChar

StartChar: braceleft
Encoding: 123 123 94
Width: 314
Flags: MW
HStem: -159 21G<173.5 211> 666 20G<288.5 330>
VStem: 70 78<-74.5 -45.5 -74.5 -20.5> 99 71<162.5 193>
LayerCount: 2
Fore
SplineSet
30 224 m 1,0,-1
 41 303 l 1,1,2
 73 303 73 303 98 316.5 c 128,-1,3
 123 330 123 330 126 360 c 1,4,-1
 152 546 l 2,5,6
 163 628 163 628 209.5 657 c 128,-1,7
 256 686 256 686 330 686 c 1,8,-1
 323 636 l 1,9,10
 244 636 244 636 234 565 c 0,11,12
 229 526 229 526 200 371 c 0,13,14
 191 320 191 320 166.5 294 c 128,-1,15
 142 268 142 268 96 268 c 1,16,-1
 95 259 l 1,17,18
 135 259 135 259 152.5 239.5 c 128,-1,19
 170 220 170 220 170 185 c 0,20,21
 170 150 170 150 159 55 c 2,22,-1
 152 -5 l 1,23,24
 148 -30 148 -30 148 -56.5 c 0,25,26
 148 -83 148 -83 168.5 -96 c 128,-1,27
 189 -109 189 -109 218 -109 c 1,28,-1
 211 -159 l 1,29,30
 145 -159 145 -159 107.5 -136.5 c 128,-1,31
 70 -114 70 -114 70 -52 c 0,32,33
 70 -18 70 -18 84.5 68 c 128,-1,34
 99 154 99 154 99 177 c 0,35,36
 99 200 99 200 78.5 212 c 128,-1,37
 58 224 58 224 30 224 c 1,0,-1
EndSplineSet
EndChar

StartChar: bar
Encoding: 124 124 95
Width: 290
Flags: MW
HStem: -199 21G<102 182 102 102> 701 20G<102 182 182 182>
VStem: 102 80<-199 721>
LayerCount: 2
Fore
SplineSet
182 -199 m 1,0,-1
 102 -199 l 1,1,-1
 102 721 l 1,2,-1
 182 721 l 1,3,-1
 182 -199 l 1,0,-1
EndSplineSet
EndChar

StartChar: braceright
Encoding: 125 125 96
Width: 314
Flags: MW
HStem: -159 21G<-23 18> 666 20G<96 133>
VStem: 158 77<573.5 601.5>
LayerCount: 2
Fore
SplineSet
-23 -159 m 1,0,-1
 -16 -109 l 1,1,2
 60 -109 60 -109 72 -38 c 0,3,4
 87 51 87 51 106 156 c 0,5,6
 115 207 115 207 139.5 233 c 128,-1,7
 164 259 164 259 210 259 c 1,8,-1
 211 268 l 1,9,10
 135 268 135 268 135 345 c 0,11,12
 135 369 135 369 146.5 472 c 128,-1,13
 158 575 158 575 158 579 c 0,14,15
 158 636 158 636 89 636 c 1,16,-1
 96 686 l 1,17,18
 161 686 161 686 198 663.5 c 128,-1,19
 235 641 235 641 235 579 c 0,20,21
 235 558 235 558 206 352 c 1,22,23
 206 327 206 327 226.5 315 c 128,-1,24
 247 303 247 303 276 303 c 1,25,-1
 265 224 l 1,26,27
 234 224 234 224 208.5 210 c 128,-1,28
 183 196 183 196 180 167 c 1,29,-1
 154 -19 l 2,30,31
 143 -101 143 -101 96.5 -130 c 128,-1,32
 50 -159 50 -159 -23 -159 c 1,0,-1
EndSplineSet
EndChar

StartChar: asciitilde
Encoding: 126 126 97
Width: 691
Flags: MW
HStem: 211 21G<53 53> 223 85<424 479.5> 289 85<215 271> 366 20G<642 642>
LayerCount: 2
Fore
SplineSet
53 211 m 1,0,-1
 65 296 l 1,1,2
 87.5 317 87.5 317 116 335 c 0,3,4
 182 374 182 374 232 374 c 0,5,6
 282 374 282 374 353 341 c 128,-1,7
 424 308 424 308 476.5 308 c 0,8,9
 529 308 529 308 591 347 c 1,10,11
 619.5 363.5 619.5 363.5 642 386 c 1,12,-1
 630 301 l 1,13,14
 607.5 278.5 607.5 278.5 579 262 c 1,15,16
 517 223 517 223 465 223 c 0,17,18
 413 223 413 223 342 256 c 128,-1,19
 271 289 271 289 220.5 289 c 0,20,21
 170 289 170 289 104 250 c 0,22,23
 75.5 232 75.5 232 53 211 c 1,0,-1
EndSplineSet
EndChar

StartChar: exclamdown
Encoding: 161 161 99
Width: 254
Flags: MW
HStem: -176 21G<3 118 3 3> 399 111<107 192 91 208>
LayerCount: 2
Fore
SplineSet
166 335 m 1,0,1
 154.545454545 207.727272727 154.545454545 207.727272727 118 -176 c 1,2,-1
 3 -176 l 1,3,-1
 100 335 l 1,4,-1
 166 335 l 1,0,1
192 399 m 1,5,-1
 91 399 l 1,6,-1
 107 510 l 1,7,-1
 208 510 l 1,8,-1
 192 399 l 1,5,-1
EndSplineSet
EndChar

StartChar: cent
Encoding: 162 162 100
Width: 527
Flags: MW
HStem: -7 160<224 272 199 302.5> 78 210<272 492> 534 74<296 296 296 345.5> 534 159<296 345.5>
VStem: 50 93<236 335.5 236 363.5> 296 214<428.5 693 428.5 693> 416 94<428.5 456.5>
LayerCount: 2
Fore
SplineSet
95.5 138 m 128,-1,1
 50 190 50 190 50 278.5 c 128,-1,2
 50 367 50 367 75 437 c 128,-1,3
 100 507 100 507 157 554.5 c 128,-1,4
 214 602 214 602 296 608 c 1,5,-1
 296 693 l 1,6,-1
 371 693 l 1,7,-1
 350 608 l 1,8,9
 425 600 425 600 467.5 554 c 128,-1,10
 510 508 510 508 510 434 c 0,11,12
 510 417.5 510 417.5 507 398 c 1,13,-1
 414 398 l 1,14,15
 416 416 416 416 416 425 c 0,16,17
 416 474 416 474 389 504 c 128,-1,18
 362 534 362 534 312 534 c 128,-1,19
 262 534 262 534 227.5 510.5 c 128,-1,20
 193 487 193 487 175.5 448 c 0,21,22
 143 375.571428571 143 375.571428571 143 280 c 0,23,24
 143 153 143 153 260 153 c 0,25,26
 321 153 321 153 357 189.5 c 128,-1,27
 393 226 393 226 402 288 c 1,28,-1
 492 288 l 1,29,30
 478 192 478 192 420.5 138 c 128,-1,31
 363 84 363 84 272 78 c 1,32,-1
 272 -7 l 1,33,-1
 199 -7 l 1,34,-1
 218 79 l 1,35,0
 141 86 141 86 95.5 138 c 128,-1,1
EndSplineSet
EndChar

StartChar: sterling
Encoding: 163 163 101
Width: 597
Flags: MW
HStem: 0 89<37 127 208 499 26 127> 293 89<42 156 30 168 42 254 266 441> 490 206<415 593 415 495> 607 89<415 424 424 434>
VStem: 499 99<530.5 546>
LayerCount: 2
Fore
SplineSet
499 0 m 1,0,-1
 26 0 l 1,1,-1
 37 89 l 1,2,-1
 127 89 l 1,3,-1
 156 293 l 1,4,-1
 30 293 l 1,5,-1
 42 382 l 1,6,-1
 168 382 l 1,7,-1
 185 499 l 2,8,9
 199 597 199 597 258.5 646.5 c 128,-1,10
 318 696 318 696 415 696 c 2,11,-1
 424 696 l 2,12,13
 503 696 503 696 550.5 654.5 c 128,-1,14
 598 613 598 613 598 536 c 0,15,16
 598 519 598 519 593 490 c 1,17,-1
 495 490 l 1,18,19
 499 510 499 510 499 520 c 0,20,21
 499 559 499 559 473 583 c 128,-1,22
 447 607 447 607 400.5 607 c 0,23,24
 354 607 354 607 322.5 580 c 128,-1,25
 291 553 291 553 284 505 c 2,26,-1
 266 382 l 1,27,-1
 453 382 l 1,28,-1
 441 293 l 1,29,-1
 254 293 l 1,30,-1
 208 89 l 1,31,-1
 511 89 l 1,32,-1
 499 0 l 1,0,-1
EndSplineSet
EndChar

StartChar: currency
Encoding: 164 164 102
Width: 624
Flags: MW
HStem: 85 21G<81 81 487 487> 89 69<256 312> 516 69<325 381.5 325 389.5> 567 20G<153 153 559 559>
VStem: 68 70<279.5 329> 500 69<335 390 335 405.5>
LayerCount: 2
Fore
SplineSet
81 85 m 1,0,-1
 40 133 l 1,1,-1
 100 186 l 1,2,3
 68 236 68 236 68 304 c 0,4,5
 68 372 68 372 105 436 c 0,6,7
 122 466 122 466 142 487 c 1,8,-1
 98 539 l 1,9,-1
 153 587 l 1,10,-1
 196 535 l 1,11,12
 272 585 272 585 354.5 585 c 0,13,14
 437 585 437 585 497 533 c 1,15,-1
 559 587 l 1,16,-1
 600 539 l 1,17,-1
 538 485 l 1,18,19
 569 433 569 433 569 369 c 0,20,21
 569 273 569 273 495 187 c 1,22,-1
 542 133 l 1,23,-1
 487 85 l 1,24,-1
 440 139 l 1,25,26
 364 89 364 89 282 89 c 0,27,28
 200 89 200 89 142 138 c 1,29,-1
 81 85 l 1,0,-1
138 311 m 0,30,31
 138 246 138 246 182 202 c 128,-1,32
 226 158 226 158 300 158 c 0,33,34
 374 158 374 158 437 219.5 c 128,-1,35
 500 281 500 281 500 354.5 c 0,36,37
 500 428 500 428 456 472 c 128,-1,38
 412 516 412 516 339.5 516 c 0,39,40
 267 516 267 516 202.5 456 c 128,-1,41
 138 396 138 396 138 311 c 0,30,31
EndSplineSet
EndChar

StartChar: yen
Encoding: 165 165 103
Width: 635
Flags: MW
HStem: 0 21G<225 323 225 225> 239 64<59 246 59 259 50 246 388 568> 376 64<78 186 78 214 69 186 485 587> 666 20G<81 192 192 192 560 661 661 661>
LayerCount: 2
Fore
SplineSet
259 239 m 1,0,-1
 50 239 l 1,1,-1
 59 303 l 1,2,-1
 246 303 l 1,3,-1
 214 376 l 1,4,-1
 69 376 l 1,5,-1
 78 440 l 1,6,-1
 186 440 l 1,7,-1
 81 686 l 1,8,-1
 192 686 l 1,9,-1
 330 367 l 1,10,-1
 334 367 l 1,11,-1
 560 686 l 1,12,-1
 661 686 l 1,13,-1
 485 440 l 1,14,-1
 596 440 l 1,15,-1
 587 376 l 1,16,-1
 439 376 l 1,17,-1
 388 303 l 1,18,-1
 577 303 l 1,19,-1
 568 239 l 1,20,-1
 357 239 l 1,21,-1
 323 0 l 1,22,-1
 225 0 l 1,23,-1
 259 239 l 1,0,-1
EndSplineSet
EndChar

StartChar: brokenbar
Encoding: 166 166 104
Width: 269
Flags: MW
HStem: 0 21G<49 138 49 49> 666 20G<146 235 235 235>
LayerCount: 2
Fore
SplineSet
138 0 m 1,0,-1
 49 0 l 1,1,-1
 87 266 l 1,2,-1
 176 266 l 1,3,-1
 138 0 l 1,0,-1
197 419 m 1,4,-1
 108 419 l 1,5,-1
 146 686 l 1,6,-1
 235 686 l 1,7,-1
 197 419 l 1,4,-1
EndSplineSet
EndChar

StartChar: section
Encoding: 167 167 105
Width: 516
Flags: MW
HStem: -186 75<162.5 180 180 189> -186 157<8 180 8 189> 539 157<317 498 317 405> 621 75<317 326 326 343.5>
VStem: 3 95<-64.5 -56.5> 33 65 33 98<238 299.5 238 301> 85 97<495 554 481.5 581.5> 324 96<-45.5 12.5 -66 28.5> 375 97<217 270> 408 64 408 95<566.5 574.5>
LayerCount: 2
Fore
SplineSet
3 -62 m 0,0,1
 3 -41 3 -41 8 -29 c 1,2,-1
 101 -29 l 1,3,4
 98 -41 98 -41 98 -48 c 0,5,6
 98 -111 98 -111 202 -111 c 0,7,8
 274 -111 274 -111 299 -86.5 c 128,-1,9
 324 -62 324 -62 324 -30.5 c 128,-1,10
 324 1 324 1 294 27 c 128,-1,11
 264 53 264 53 221.5 73 c 128,-1,12
 179 93 179 93 136 114.5 c 128,-1,13
 93 136 93 136 63 171.5 c 128,-1,14
 33 207 33 207 33 262 c 128,-1,15
 33 317 33 317 68 358 c 128,-1,16
 103 399 103 399 142 412 c 1,17,18
 85 456 85 456 85 519 c 0,19,20
 85 609 85 609 147.5 652.5 c 128,-1,21
 210 696 210 696 317 696 c 2,22,-1
 326 696 l 2,23,24
 407 696 407 696 455 660.5 c 128,-1,25
 503 625 503 625 503 572 c 0,26,27
 503 551 503 551 498 539 c 1,28,-1
 405 539 l 1,29,30
 408 552 408 552 408 558 c 0,31,32
 408 621 408 621 304 621 c 0,33,34
 206.363636364 621 206.363636364 621 186 565 c 0,35,36
 182 554 182 554 182 542 c 0,37,38
 182 484.235294118 182 484.235294118 284.5 436 c 0,39,40
 327 416 327 416 369.5 394.5 c 128,-1,41
 412 373 412 373 442 338.5 c 128,-1,42
 472 304 472 304 472 252.5 c 128,-1,43
 472 201 472 201 438 157.5 c 128,-1,44
 404 114 404 114 363 98 c 1,45,46
 420 54 420 54 420 -12 c 0,47,48
 420 -95 420 -95 362.5 -140.5 c 128,-1,49
 305 -186 305 -186 189 -186 c 2,50,-1
 180 -186 l 2,51,52
 99 -186 99 -186 51 -150.5 c 128,-1,53
 3 -115 3 -115 3 -62 c 0,0,1
131 274 m 0,54,55
 131 231.857142857 131 231.857142857 170 204 c 0,56,57
 202.097560976 181.073170732 202.097560976 181.073170732 246.048780488 161.036585366 c 128,-1,58
 290 141 290 141 303 134 c 1,59,60
 375 174 375 174 375 234 c 0,61,62
 375 291.827586207 375 291.827586207 283.5 336 c 0,63,64
 269 343 269 343 242 355.5 c 128,-1,65
 215 368 215 368 202 375 c 1,66,67
 131 336 131 336 131 274 c 0,54,55
EndSplineSet
EndChar

StartChar: dieresis
Encoding: 168 168 106
Width: 440
Flags: MW
HStem: 633 98<86 163 73 176 86 261 274 352>
LayerCount: 2
Fore
SplineSet
163 633 m 1,0,-1
 73 633 l 1,1,-1
 86 731 l 1,2,-1
 176 731 l 1,3,-1
 163 633 l 1,0,-1
352 633 m 1,4,-1
 261 633 l 1,5,-1
 274 731 l 1,6,-1
 365 731 l 1,7,-1
 352 633 l 1,4,-1
EndSplineSet
EndChar

StartChar: copyright
Encoding: 169 169 107
Width: 785
Flags: MW
HStem: -10 40<310.5 488 310.5 497.5> 129 58<378 401 401 406> 129 167<354.5 568 401 568> 388 168<400 568 400 501> 499 57<400 405 405 428> 655 41<310.5 488>
VStem: 46 40<253.5 432.5 253.5 441.5> 231 67<300 386 386 401> 501 67<388 401 401 434.5> 713 41<253.5 432.5>
LayerCount: 2
Fore
SplineSet
149 93 m 128,-1,1
 46 196 46 196 46 343 c 128,-1,2
 46 490 46 490 149 593 c 128,-1,3
 252 696 252 696 399 696 c 128,-1,4
 546 696 546 696 650 593 c 128,-1,5
 754 490 754 490 754 343.5 c 128,-1,6
 754 197 754 197 650.5 93.5 c 128,-1,7
 547 -10 547 -10 399.5 -10 c 128,-1,0
 252 -10 252 -10 149 93 c 128,-1,1
176 566 m 128,-1,9
 86 477 86 477 86 343 c 128,-1,10
 86 209 86 209 175.5 119.5 c 128,-1,11
 265 30 265 30 399 30 c 128,-1,12
 533 30 533 30 623 119.5 c 128,-1,13
 713 209 713 209 713 342.5 c 128,-1,14
 713 476 713 476 622.5 565.5 c 128,-1,15
 532 655 532 655 399 655 c 128,-1,8
 266 655 266 655 176 566 c 128,-1,9
231 300 m 2,16,-1
 231 386 l 2,17,18
 231 468 231 468 279 512 c 128,-1,19
 327 556 327 556 400 556 c 2,20,-1
 405 556 l 2,21,22
 478 556 478 556 523 513.5 c 128,-1,23
 568 471 568 471 568 388 c 1,24,-1
 501 388 l 1,25,-1
 501 401 l 2,26,27
 501 448 501 448 472.5 473.5 c 128,-1,28
 444 499 444 499 401 499 c 128,-1,29
 358 499 358 499 328 474 c 128,-1,30
 298 449 298 449 298 401 c 2,31,-1
 298 286 l 2,32,33
 298 237 298 237 329 212 c 128,-1,34
 360 187 360 187 404.5 187 c 128,-1,35
 449 187 449 187 476 215.5 c 128,-1,36
 503 244 503 244 503 296 c 1,37,-1
 568 296 l 1,38,39
 568 215 568 215 523 172 c 128,-1,40
 478 129 478 129 406 129 c 2,41,-1
 401 129 l 2,42,43
 327 129 327 129 279 173 c 128,-1,44
 231 217 231 217 231 300 c 2,16,-1
EndSplineSet
EndChar

StartChar: ordfeminine
Encoding: 170 170 108
Width: 419
Flags: MW
HStem: 373 45<186 210.5> 650 46<198 251.5 190.5 258> 670 20G<341 380 380 380>
VStem: 83 57<466.5 526.5 466.5 560> 140 165<466.5 602>
LayerCount: 2
Fore
SplineSet
83 494 m 0,0,1
 83 589 83 589 125.5 642.5 c 128,-1,2
 168 696 168 696 229.5 696 c 0,3,4
 291 696 291 696 317 650 c 1,5,-1
 322 650 l 1,6,-1
 341 690 l 1,7,-1
 380 690 l 1,8,9
 345 452 345 452 345 435 c 128,-1,10
 345 418 345 418 358.5 418 c 0,11,12
 372 418 372 418 388 427 c 1,13,-1
 383 385 l 1,14,15
 364 373 364 373 336 373 c 0,16,17
 289 373 289 373 289 418 c 1,18,19
 246 373 246 373 193.5 373 c 0,20,21
 141 373 141 373 112 403.5 c 128,-1,22
 83 434 83 434 83 494 c 0,0,1
140 496 m 0,23,24
 140 418 140 418 206 418 c 0,25,26
 255 418 255 418 280 461 c 128,-1,27
 305 504 305 504 305 572 c 0,28,29
 305 650 305 650 238 650 c 0,30,31
 201 650 201 650 177.5 623 c 128,-1,32
 154 596 154 596 147 564 c 128,-1,33
 140 532 140 532 140 496 c 0,23,24
EndSplineSet
EndChar

StartChar: guillemotleft
Encoding: 171 171 109
Width: 458
Flags: MW
HStem: 163 21G<151 151 151 202 334 384 334 334> 491 20G<200 251 251 251 383 433 433 433>
LayerCount: 2
Fore
SplineSet
151 163 m 1,0,-1
 55 337 l 1,1,-1
 200 511 l 1,2,-1
 251 511 l 1,3,-1
 134 337 l 1,4,-1
 202 163 l 1,5,-1
 151 163 l 1,0,-1
334 163 m 1,6,-1
 237 337 l 1,7,-1
 383 511 l 1,8,-1
 433 511 l 1,9,-1
 317 337 l 1,10,-1
 384 163 l 1,11,-1
 334 163 l 1,6,-1
EndSplineSet
EndChar

StartChar: logicalnot
Encoding: 172 172 110
Width: 615
Flags: MW
HStem: 174 21G<453 537 453 453> 360 93<57 479 44 576>
LayerCount: 2
Fore
SplineSet
479 360 m 1,0,-1
 44 360 l 1,1,-1
 57 453 l 1,2,-1
 576 453 l 1,3,-1
 537 174 l 1,4,-1
 453 174 l 1,5,-1
 479 360 l 1,0,-1
EndSplineSet
EndChar

StartChar: uni00AD
Encoding: 173 173 111
Width: 390
Flags: MW
HStem: 221 98<72 311 60 324>
LayerCount: 2
Fore
SplineSet
311 221 m 1,0,-1
 60 221 l 1,1,-1
 72 319 l 1,2,-1
 324 319 l 1,3,-1
 311 221 l 1,0,-1
EndSplineSet
EndChar

StartChar: registered
Encoding: 174 174 112
Width: 785
Flags: MW
HStem: -10 40<310.5 488.5 310.5 497.5> 319 54<320 419 320 431> 492 55<320 320 320 431> 656 40<310.5 488.5>
VStem: 46 40<253.5 433.5 253.5 441.5> 256 64<135 319 373 492> 486 64<209.5 252> 714 40<253.5 433.5>
LayerCount: 2
Fore
SplineSet
149 93 m 128,-1,1
 46 196 46 196 46 343 c 128,-1,2
 46 490 46 490 149 593 c 128,-1,3
 252 696 252 696 399 696 c 128,-1,4
 546 696 546 696 650 593 c 128,-1,5
 754 490 754 490 754 343.5 c 128,-1,6
 754 197 754 197 650.5 93.5 c 128,-1,7
 547 -10 547 -10 399.5 -10 c 128,-1,0
 252 -10 252 -10 149 93 c 128,-1,1
176 567 m 128,-1,9
 86 478 86 478 86 343.5 c 128,-1,10
 86 209 86 209 175.5 119.5 c 128,-1,11
 265 30 265 30 399 30 c 128,-1,12
 533 30 533 30 623.5 119.5 c 128,-1,13
 714 209 714 209 714 343.5 c 128,-1,14
 714 478 714 478 623.5 567 c 128,-1,15
 533 656 533 656 399.5 656 c 128,-1,8
 266 656 266 656 176 567 c 128,-1,9
320 135 m 1,16,-1
 256 135 l 1,17,-1
 256 547 l 1,18,-1
 443 547 l 2,19,20
 489 547 489 547 523 517.5 c 128,-1,21
 557 488 557 488 557 449 c 128,-1,22
 557 410 557 410 537.5 383.5 c 128,-1,23
 518 357 518 357 490 347 c 1,24,25
 514 337 514 337 532 307.5 c 128,-1,26
 550 278 550 278 550 227 c 0,27,28
 550 205 550 205 551 194.5 c 0,29,30
 553.803278689 165.06557377 553.803278689 165.06557377 581 156 c 1,31,-1
 581 138 l 1,32,33
 567 132 567 132 546 132 c 0,34,35
 486 132 486 132 486 212 c 0,36,37
 486 267 486 267 465.5 293 c 128,-1,38
 445 319 445 319 419 319 c 2,39,-1
 320 319 l 1,40,-1
 320 135 l 1,16,-1
320 492 m 1,41,-1
 320 373 l 1,42,-1
 431 373 l 2,43,44
 457 373 457 373 475.5 390 c 128,-1,45
 494 407 494 407 494 431 c 2,46,-1
 494 435 l 2,47,48
 494 459 494 459 475.5 475.5 c 128,-1,49
 457 492 457 492 431 492 c 2,50,-1
 320 492 l 1,41,-1
EndSplineSet
EndChar

StartChar: overscore
Encoding: 175 175 113
Width: 460
Flags: MW
HStem: 662 74<75 382 64 393>
LayerCount: 2
Fore
SplineSet
382 662 m 1,0,-1
 64 662 l 1,1,-1
 75 736 l 1,2,-1
 393 736 l 1,3,-1
 382 662 l 1,0,-1
EndSplineSet
EndChar

StartChar: degree
Encoding: 176 176 114
Width: 404
Flags: MW
HStem: 396 55<207.5 258.5 207.5 268.5> 640 56<215.5 274>
VStem: 83 67<513.5 571.5 513.5 587> 324 67<520 569.5>
LayerCount: 2
Fore
SplineSet
121 434.5 m 128,-1,1
 83 473 83 473 83 541 c 128,-1,2
 83 609 83 609 131.5 652.5 c 128,-1,3
 180 696 180 696 247 696 c 128,-1,4
 314 696 314 696 352.5 657 c 128,-1,5
 391 618 391 618 391 550.5 c 128,-1,6
 391 483 391 483 342 439.5 c 128,-1,7
 293 396 293 396 226 396 c 128,-1,0
 159 396 159 396 121 434.5 c 128,-1,1
176 613 m 128,-1,9
 150 586 150 586 150 543 c 128,-1,10
 150 500 150 500 172.5 475.5 c 128,-1,11
 195 451 195 451 233.5 451 c 128,-1,12
 272 451 272 451 298 478.5 c 128,-1,13
 324 506 324 506 324 546 c 128,-1,14
 324 586 324 586 305 613 c 128,-1,15
 286 640 286 640 244 640 c 128,-1,8
 202 640 202 640 176 613 c 128,-1,9
EndSplineSet
EndChar

StartChar: plusminus
Encoding: 177 177 115
Width: 615
Flags: MW
HStem: 0 83<27 519 16 530> 134 230<244 277 63 327 244 244> 280 84<63 265 51 277 63 348 360 563> 280 231<51 380 348 348 348 380 297 563>
LayerCount: 2
Fore
SplineSet
519 0 m 1,0,-1
 16 0 l 1,1,-1
 27 83 l 1,2,-1
 530 83 l 1,3,-1
 519 0 l 1,0,-1
265 280 m 1,4,-1
 51 280 l 1,5,-1
 63 364 l 1,6,-1
 277 364 l 1,7,-1
 297 511 l 1,8,-1
 380 511 l 1,9,-1
 360 364 l 1,10,-1
 575 364 l 1,11,-1
 563 280 l 1,12,-1
 348 280 l 1,13,-1
 327 134 l 1,14,-1
 244 134 l 1,15,-1
 265 280 l 1,4,-1
EndSplineSet
EndChar

StartChar: uni00B2
Encoding: 178 178 116
Width: 381
Flags: MW
HStem: 418 49<145 335> 751 49<228.5 279>
VStem: 111 54<664 689.5 664 698> 318 54<682.5 706.5>
LayerCount: 2
Fore
SplineSet
335 418 m 1,0,-1
 76 418 l 1,1,-1
 78 431 l 2,2,3
 87 490 87 490 142 528 c 2,4,-1
 263 611 l 2,5,6
 318 648 318 648 318 696 c 0,7,8
 318 717 318 717 303 734 c 128,-1,9
 288 751 288 751 252 751 c 128,-1,10
 216 751 216 751 190.5 726.5 c 128,-1,11
 165 702 165 702 165 664 c 1,12,-1
 111 664 l 1,13,14
 111 718 111 718 151.5 759 c 128,-1,15
 192 800 192 800 254 800 c 0,16,17
 316 800 316 800 344 771 c 128,-1,18
 372 742 372 742 372 704 c 0,19,20
 372 628 372 628 287 571 c 1,21,-1
 172 492 l 1,22,-1
 159 482 l 2,23,24
 145 472 145 472 145 467 c 1,25,-1
 341 467 l 1,26,-1
 335 418 l 1,0,-1
EndSplineSet
EndChar

StartChar: uni00B3
Encoding: 179 179 117
Width: 361
Flags: MW
HStem: 412 49<172.5 189 189 195> 585 49<178 212 171 220> 668 20G<105 159 105 105> 751 49<245 250 250 256>
VStem: 72 54<495 508.5> 289 53<509.5 553.5> 304 38 304 55<685.5 720.5>
LayerCount: 2
Fore
SplineSet
72 505 m 0,0,1
 72 507 72 507 74 529 c 1,2,-1
 128 529 l 1,3,4
 126 519 126 519 126 518 c 2,5,-1
 126 512 l 2,6,7
 126 461 126 461 196 461 c 0,8,9
 238 461 238 461 263.5 480 c 128,-1,10
 289 499 289 499 289 534 c 0,11,12
 289 585 289 585 212 585 c 2,13,-1
 171 585 l 1,14,-1
 178 634 l 1,15,-1
 220 634 l 2,16,17
 255 634 255 634 279.5 652 c 128,-1,18
 304 670 304 670 304 703 c 0,19,20
 304 751 304 751 238 751 c 0,21,22
 207 751 207 751 185.5 735 c 128,-1,23
 164 719 164 719 159 688 c 1,24,-1
 105 688 l 1,25,26
 111 741 111 741 150 770.5 c 128,-1,27
 189 800 189 800 245 800 c 2,28,-1
 250 800 l 2,29,30
 299 800 299 800 329 776.5 c 128,-1,31
 359 753 359 753 359 712 c 0,32,33
 359 646 359 646 286 614 c 1,34,-1
 286 610 l 1,35,36
 342 592 342 592 342 536.5 c 0,37,38
 342 481 342 481 300 446.5 c 128,-1,39
 258 412 258 412 195 412 c 2,40,-1
 189 412 l 2,41,42
 132 412 132 412 102 437 c 128,-1,43
 72 462 72 462 72 505 c 0,0,1
EndSplineSet
EndChar

StartChar: acute
Encoding: 180 180 118
Width: 333
Flags: MW
HStem: 575 21G<56 125 56 56> 700 20G<171 261 261 261>
LayerCount: 2
Fore
SplineSet
125 575 m 1,0,-1
 56 575 l 1,1,-1
 171 720 l 1,2,-1
 261 720 l 1,3,-1
 261 716 l 1,4,-1
 125 575 l 1,0,-1
EndSplineSet
EndChar

StartChar: uni00B5
Encoding: 181 181 119
Width: 613
Flags: MW
HStem: -161 21G<18 112 18 18> -10 75<224 257.5> 491 20G<113 207 207 207 451 545 545 545>
VStem: 159 236<64 163.5>
LayerCount: 2
Fore
SplineSet
112 -161 m 1,0,-1
 18 -161 l 1,1,-1
 113 511 l 1,2,-1
 207 511 l 1,3,-1
 183 346 l 1,4,5
 159 189 159 189 159 155 c 0,6,7
 159 65 159 65 252 65 c 0,8,9
 305 65 305 65 351.5 106.5 c 128,-1,10
 398 148 398 148 408 207 c 1,11,-1
 451 511 l 1,12,-1
 545 511 l 1,13,-1
 515 304 l 1,14,15
 486 116 486 116 486 90.5 c 0,16,17
 486 65 486 65 510.5 65 c 0,18,19
 535 65 535 65 557 79 c 1,20,-1
 548 10 l 1,21,22
 516 -10 516 -10 471 -10 c 0,23,24
 395 -10 395 -10 395 64 c 2,25,-1
 395 74 l 1,26,27
 364 39 364 39 318 14.5 c 128,-1,28
 272 -10 272 -10 219.5 -10 c 0,29,30
 167 -10 167 -10 130 9 c 1,31,-1
 130 -32 l 1,32,-1
 112 -161 l 1,0,-1
EndSplineSet
EndChar

StartChar: paragraph
Encoding: 182 182 120
Width: 524
Flags: MW
HStem: -169 21G<152 215 152 152 287 350 287 287> 625 61<327 399 327 327 462 528 462 462>
LayerCount: 2
Fore
SplineSet
48 435 m 0,0,1
 48 538 48 538 120 612 c 128,-1,2
 192 686 192 686 299 686 c 2,3,-1
 537 686 l 1,4,-1
 528 625 l 1,5,-1
 462 625 l 1,6,-1
 350 -169 l 1,7,-1
 287 -169 l 1,8,-1
 399 625 l 1,9,-1
 327 625 l 1,10,-1
 215 -169 l 1,11,-1
 152 -169 l 1,12,-1
 211 250 l 1,13,14
 139 258 139 258 93.5 310 c 128,-1,15
 48 362 48 362 48 435 c 0,0,1
EndSplineSet
EndChar

StartChar: middot
Encoding: 183 183 121
Width: 238
Flags: MW
HStem: 232 112<75 161 60 176>
LayerCount: 2
Fore
SplineSet
161 232 m 1,0,-1
 60 232 l 1,1,-1
 75 344 l 1,2,-1
 176 344 l 1,3,-1
 161 232 l 1,0,-1
EndSplineSet
EndChar

StartChar: cedilla
Encoding: 184 184 122
Width: 350
Flags: MW
HStem: -197 51<135 170 132.5 174> -197 180<156 174>
VStem: 217 63<-113 -83.5>
LayerCount: 2
Fore
SplineSet
59 -175 m 1,0,-1
 75 -126 l 1,1,2
 111 -146 111 -146 145.5 -146 c 0,3,4
 217 -146 217 -146 217 -95 c 0,5,6
 217 -60 217 -60 171 -60 c 2,7,-1
 150 -60 l 1,8,-1
 156 -17 l 1,9,-1
 180 -17 l 2,10,11
 280 -17 280 -17 280 -90 c 0,12,13
 280 -130 280 -130 256 -155.5 c 0,14,15
 216.941176471 -197 216.941176471 -197 156.470588235 -197 c 128,-1,16
 96 -197 96 -197 59 -175 c 1,0,-1
EndSplineSet
EndChar

StartChar: uni00B9
Encoding: 185 185 123
Width: 332
Flags: MW
HStem: 422 49<75 174 228 302 68 174> 776 20G<253 274 274 274>
LayerCount: 2
Fore
SplineSet
302 422 m 1,0,-1
 68 422 l 1,1,-1
 75 471 l 1,2,-1
 174 471 l 1,3,-1
 210 724 l 1,4,-1
 111 724 l 1,5,-1
 116 759 l 1,6,7
 173 764 173 764 253 796 c 1,8,-1
 274 796 l 1,9,-1
 228 471 l 1,10,-1
 309 471 l 1,11,-1
 302 422 l 1,0,-1
EndSplineSet
EndChar

StartChar: ordmasculine
Encoding: 186 186 124
Width: 392
Flags: MW
HStem: 373 46<191.5 253 191.5 270> 650 46<203.5 265.5>
VStem: 82 58<471.5 501 471.5 543> 317 59<534.5 597.5>
LayerCount: 2
Fore
SplineSet
116 403 m 128,-1,1
 82 433 82 433 82 490 c 128,-1,2
 82 547 82 547 97 590.5 c 128,-1,3
 112 634 112 634 151.5 665 c 128,-1,4
 191 696 191 696 249.5 696 c 128,-1,5
 308 696 308 696 342 666 c 128,-1,6
 376 636 376 636 376 579 c 128,-1,7
 376 522 376 522 361 478.5 c 128,-1,8
 346 435 346 435 306.5 404 c 128,-1,9
 267 373 267 373 208.5 373 c 128,-1,0
 150 373 150 373 116 403 c 128,-1,1
140 501 m 1,10,11
 140 419 140 419 213 419 c 0,12,13
 251 419 251 419 275.5 443 c 0,14,15
 317 483.653061224 317 483.653061224 317 566.826530612 c 128,-1,16
 317 650 317 650 245 650 c 0,17,18
 147 650 147 650 140 501 c 1,10,11
EndSplineSet
EndChar

StartChar: guillemotright
Encoding: 187 187 125
Width: 460
Flags: MW
HStem: 163 21G<37 88 37 37 220 220 220 270> 491 20G<86 137 137 137 269 319 319 319>
LayerCount: 2
Fore
SplineSet
88 163 m 1,0,-1
 37 163 l 1,1,-1
 157 337 l 1,2,-1
 86 511 l 1,3,-1
 137 511 l 1,4,-1
 237 337 l 1,5,-1
 88 163 l 1,0,-1
270 163 m 1,6,-1
 220 163 l 1,7,-1
 339 337 l 1,8,-1
 269 511 l 1,9,-1
 319 511 l 1,10,-1
 418 337 l 1,11,-1
 270 163 l 1,6,-1
EndSplineSet
EndChar

StartChar: onequarter
Encoding: 188 188 126
Width: 701
Flags: MW
HStem: 0 140<533 533 533 553 430 587> 91 49<430 546 430 600 607 646> 310 49<45 144 198 272 38 144> 666 20G<618 670 670 670>
LayerCount: 2
Fore
SplineSet
272 310 m 1,0,-1
 38 310 l 1,1,-1
 45 359 l 1,2,-1
 144 359 l 1,3,-1
 179 612 l 1,4,-1
 80 612 l 1,5,-1
 86 647 l 1,6,7
 140 651 140 651 222 684 c 1,8,-1
 243 684 l 1,9,-1
 198 359 l 1,10,-1
 279 359 l 1,11,-1
 272 310 l 1,0,-1
156 0 m 1,12,-1
 101 0 l 1,13,-1
 618 686 l 1,14,-1
 670 686 l 1,15,-1
 156 0 l 1,12,-1
546 91 m 1,16,-1
 373 91 l 1,17,-1
 380 141 l 1,18,19
 471 254 471 254 528 374 c 1,20,-1
 583 374 l 1,21,22
 556 309 556 309 508 239.5 c 128,-1,23
 460 170 460 170 430 140 c 1,24,-1
 553 140 l 1,25,-1
 568 245 l 1,26,27
 591 281 591 281 607 319 c 1,28,-1
 632 319 l 1,29,-1
 607 140 l 1,30,-1
 653 140 l 1,31,-1
 646 91 l 1,32,-1
 600 91 l 1,33,-1
 587 0 l 1,34,-1
 533 0 l 1,35,-1
 546 91 l 1,16,-1
EndSplineSet
EndChar

StartChar: onehalf
Encoding: 189 189 127
Width: 727
Flags: MW
HStem: 0 49<466 656> 310 49<43 142 196 270 36 142> 333 49<549.5 600> 666 20G<599 651 651 651>
VStem: 432 54<246 271.5 246 280> 639 54<264.5 288.5>
LayerCount: 2
Fore
SplineSet
270 310 m 1,0,-1
 36 310 l 1,1,-1
 43 359 l 1,2,-1
 142 359 l 1,3,-1
 177 612 l 1,4,-1
 78 612 l 1,5,-1
 84 647 l 1,6,7
 138 651 138 651 220 684 c 1,8,-1
 241 684 l 1,9,-1
 196 359 l 1,10,-1
 277 359 l 1,11,-1
 270 310 l 1,0,-1
137 0 m 1,12,-1
 82 0 l 1,13,-1
 599 686 l 1,14,-1
 651 686 l 1,15,-1
 137 0 l 1,12,-1
656 0 m 1,16,-1
 397 0 l 1,17,-1
 399 13 l 2,18,19
 408 72 408 72 463 110 c 2,20,-1
 584 193 l 2,21,22
 639 230 639 230 639 278 c 0,23,24
 639 299 639 299 624 316 c 128,-1,25
 609 333 609 333 573 333 c 128,-1,26
 537 333 537 333 511.5 308.5 c 128,-1,27
 486 284 486 284 486 246 c 1,28,-1
 432 246 l 1,29,30
 432 300 432 300 472.5 341 c 128,-1,31
 513 382 513 382 575 382 c 0,32,33
 637 382 637 382 665 353 c 128,-1,34
 693 324 693 324 693 286 c 0,35,36
 693 210 693 210 608 153 c 1,37,-1
 493 74 l 1,38,-1
 480 64 l 2,39,40
 466 54 466 54 466 49 c 1,41,-1
 662 49 l 1,42,-1
 656 0 l 1,16,-1
EndSplineSet
EndChar

StartChar: threequarters
Encoding: 190 190 128
Width: 698
Flags: MW
HStem: 0 140<529 529 529 549 426 583> 91 49<426 542 426 596 603 642> 298 49<146.5 163 163 169> 471 49<152 186 145 194> 637 49<219 224 224 230>
VStem: 46 54<381 394.5> 263 53<395.5 439.5> 278 38 278 55<571.5 606.5>
LayerCount: 2
Fore
SplineSet
46 391 m 0,0,1
 46 393 46 393 48 415 c 1,2,-1
 102 415 l 1,3,4
 100 405 100 405 100 404 c 2,5,-1
 100 398 l 2,6,7
 100 347 100 347 170 347 c 0,8,9
 212 347 212 347 237.5 366 c 128,-1,10
 263 385 263 385 263 420 c 0,11,12
 263 471 263 471 186 471 c 2,13,-1
 145 471 l 1,14,-1
 152 520 l 1,15,-1
 194 520 l 2,16,17
 229 520 229 520 253.5 538 c 128,-1,18
 278 556 278 556 278 589 c 0,19,20
 278 637 278 637 212 637 c 0,21,22
 181 637 181 637 159.5 621 c 128,-1,23
 138 605 138 605 133 574 c 1,24,-1
 79 574 l 1,25,26
 85 627 85 627 124 656.5 c 128,-1,27
 163 686 163 686 219 686 c 2,28,-1
 224 686 l 2,29,30
 273 686 273 686 303 662.5 c 128,-1,31
 333 639 333 639 333 598 c 0,32,33
 333 532 333 532 260 500 c 1,34,-1
 260 496 l 1,35,36
 316 478 316 478 316 422.5 c 0,37,38
 316 367 316 367 274 332.5 c 128,-1,39
 232 298 232 298 169 298 c 2,40,-1
 163 298 l 2,41,42
 106 298 106 298 76 323 c 128,-1,43
 46 348 46 348 46 391 c 0,0,1
157 0 m 1,44,-1
 102 0 l 1,45,-1
 619 686 l 1,46,-1
 671 686 l 1,47,-1
 157 0 l 1,44,-1
542 91 m 1,48,-1
 369 91 l 1,49,-1
 376 141 l 1,50,51
 467 254 467 254 524 374 c 1,52,-1
 579 374 l 1,53,54
 552 309 552 309 504 239.5 c 128,-1,55
 456 170 456 170 426 140 c 1,56,-1
 549 140 l 1,57,-1
 564 245 l 1,58,59
 587 281 587 281 603 319 c 1,60,-1
 628 319 l 1,61,-1
 603 140 l 1,62,-1
 649 140 l 1,63,-1
 642 91 l 1,64,-1
 596 91 l 1,65,-1
 583 0 l 1,66,-1
 529 0 l 1,67,-1
 542 91 l 1,48,-1
EndSplineSet
EndChar

StartChar: questiondown
Encoding: 191 191 129
Width: 494
Flags: MW
HStem: -185 89<157 178 178 184> -185 238<102 434 178 434> 400 111<218 307 203 322>
VStem: -7 100<-20.5 65 -20.5 75.5>
LayerCount: 2
Fore
SplineSet
1 -68 m 128,-1,1
 -7 -41 -7 -41 -7 -2.5 c 128,-1,2
 -7 36 -7 36 12 75.5 c 128,-1,3
 31 115 31 115 58.5 140 c 128,-1,4
 86 165 86 165 114 186 c 0,5,6
 183.103448276 237.827586207 183.103448276 237.827586207 188 277 c 2,7,-1
 194 326 l 1,8,-1
 294 326 l 1,9,-1
 285 262 l 2,10,11
 277.875 205 277.875 205 210.5 156 c 0,12,13
 183 136 183 136 156 115.5 c 0,14,15
 93 67.6666666667 93 67.6666666667 93 1 c 0,16,17
 93 -38 93 -38 117.5 -67 c 128,-1,18
 142 -96 142 -96 187.5 -96 c 128,-1,19
 233 -96 233 -96 260.5 -83.5 c 128,-1,20
 288 -71 288 -71 302.5 -51.5 c 0,21,22
 336 -6.44827586207 336 -6.44827586207 336 53 c 1,23,-1
 434 53 l 1,24,25
 434 -47 434 -47 367.5 -116 c 128,-1,26
 301 -185 301 -185 184 -185 c 2,27,-1
 178 -185 l 2,28,29
 124 -185 124 -185 85.5 -168 c 128,-1,30
 47 -151 47 -151 28 -123 c 128,-1,0
 9 -95 9 -95 1 -68 c 128,-1,1
307 400 m 1,31,-1
 203 400 l 1,32,-1
 218 511 l 1,33,-1
 322 511 l 1,34,-1
 307 400 l 1,31,-1
EndSplineSet
EndChar

StartChar: Agrave
Encoding: 192 192 130
Width: 650
Flags: MW
HStem: 0 21G<-36 58 -36 -36 501 501 501 607> 149 89<184 443 184 464 136 443> 666 20G<328 436 436 436> 875 20G<258 347 347 347>
LayerCount: 2
Fore
SplineSet
58 0 m 1,0,-1
 -36 0 l 1,1,-1
 328 686 l 1,2,-1
 436 686 l 1,3,-1
 607 0 l 1,4,-1
 501 0 l 1,5,-1
 464 149 l 1,6,-1
 136 149 l 1,7,-1
 58 0 l 1,0,-1
357 568 m 1,8,-1
 184 238 l 1,9,-1
 443 238 l 1,10,-1
 363 568 l 1,11,-1
 357 568 l 1,8,-1
351 750 m 1,12,-1
 256 892 l 1,13,-1
 258 895 l 1,14,-1
 347 895 l 1,15,-1
 421 750 l 1,16,-1
 351 750 l 1,12,-1
EndSplineSet
EndChar

StartChar: Aacute
Encoding: 193 193 131
Width: 650
Flags: MW
HStem: 0 21G<-36 58 -36 -36 501 501 501 607> 149 89<184 443 184 464 136 443> 666 20G<328 436 436 436> 875 20G<465 555 555 555>
LayerCount: 2
Fore
SplineSet
58 0 m 1,0,-1
 -36 0 l 1,1,-1
 328 686 l 1,2,-1
 436 686 l 1,3,-1
 607 0 l 1,4,-1
 501 0 l 1,5,-1
 464 149 l 1,6,-1
 136 149 l 1,7,-1
 58 0 l 1,0,-1
357 568 m 1,8,-1
 184 238 l 1,9,-1
 443 238 l 1,10,-1
 363 568 l 1,11,-1
 357 568 l 1,8,-1
419 750 m 1,12,-1
 350 750 l 1,13,-1
 465 895 l 1,14,-1
 555 895 l 1,15,-1
 555 891 l 1,16,-1
 419 750 l 1,12,-1
EndSplineSet
EndChar

StartChar: Acircumflex
Encoding: 194 194 132
Width: 650
Flags: MW
HStem: 0 21G<-36 58 -36 -36 501 501 501 607> 149 89<184 443 184 464 136 443> 666 20G<328 436 436 436> 875 20G<360 438 438 438>
LayerCount: 2
Fore
SplineSet
58 0 m 1,0,-1
 -36 0 l 1,1,-1
 328 686 l 1,2,-1
 436 686 l 1,3,-1
 607 0 l 1,4,-1
 501 0 l 1,5,-1
 464 149 l 1,6,-1
 136 149 l 1,7,-1
 58 0 l 1,0,-1
357 568 m 1,8,-1
 184 238 l 1,9,-1
 443 238 l 1,10,-1
 363 568 l 1,11,-1
 357 568 l 1,8,-1
283 750 m 1,12,-1
 203 750 l 1,13,-1
 360 895 l 1,14,-1
 438 895 l 1,15,-1
 552 750 l 1,16,-1
 472 750 l 1,17,-1
 391 839 l 1,18,-1
 283 750 l 1,12,-1
EndSplineSet
EndChar

StartChar: Atilde
Encoding: 195 195 133
Width: 650
Flags: MW
HStem: 0 21G<-36 58 -36 -36 501 501 501 607> 149 89<184 443 184 464 136 443> 666 20G<328 436 436 436> 750 69<449.5 491 449.5 498> 784 70<280 322>
LayerCount: 2
Fore
SplineSet
58 0 m 1,0,-1
 -36 0 l 1,1,-1
 328 686 l 1,2,-1
 436 686 l 1,3,-1
 607 0 l 1,4,-1
 501 0 l 1,5,-1
 464 149 l 1,6,-1
 136 149 l 1,7,-1
 58 0 l 1,0,-1
357 568 m 1,8,-1
 184 238 l 1,9,-1
 443 238 l 1,10,-1
 363 568 l 1,11,-1
 357 568 l 1,8,-1
235 750 m 1,12,-1
 187 750 l 1,13,14
 194 790 194 790 227 822 c 128,-1,15
 260 854 260 854 313 854 c 0,16,17
 346 854 346 854 398.5 836.5 c 128,-1,18
 451 819 451 819 476 819 c 0,19,20
 521 819 521 819 536 854 c 1,21,-1
 586 854 l 1,22,23
 579 813 579 813 546 781.5 c 128,-1,24
 513 750 513 750 459 750 c 0,25,26
 426 750 426 750 373.5 767 c 128,-1,27
 321 784 321 784 295 784 c 0,28,29
 250 784 250 784 235 750 c 1,12,-1
EndSplineSet
EndChar

StartChar: Adieresis
Encoding: 196 196 134
Width: 650
Flags: MW
HStem: 0 21G<-36 58 -36 -36 501 501 501 607> 149 89<184 443 184 464 136 443> 666 20G<328 436 436 436> 750 98<259 336 246 349 259 434 447 525>
LayerCount: 2
Fore
SplineSet
58 0 m 1,0,-1
 -36 0 l 1,1,-1
 328 686 l 1,2,-1
 436 686 l 1,3,-1
 607 0 l 1,4,-1
 501 0 l 1,5,-1
 464 149 l 1,6,-1
 136 149 l 1,7,-1
 58 0 l 1,0,-1
357 568 m 1,8,-1
 184 238 l 1,9,-1
 443 238 l 1,10,-1
 363 568 l 1,11,-1
 357 568 l 1,8,-1
336 750 m 1,12,-1
 246 750 l 1,13,-1
 259 848 l 1,14,-1
 349 848 l 1,15,-1
 336 750 l 1,12,-1
525 750 m 1,16,-1
 434 750 l 1,17,-1
 447 848 l 1,18,-1
 538 848 l 1,19,-1
 525 750 l 1,16,-1
EndSplineSet
EndChar

StartChar: Aring
Encoding: 197 197 135
Width: 650
Flags: MW
HStem: 0 21G<-36 58 -36 -36 501 501 501 607> 149 89<184 443 184 464 136 443> 666 20G<328 436 436 436> 720 41<374 405.5 374 415> 881 41<381 413>
VStem: 291 45<801.5 835.5 801.5 846> 451 45<807 840.5>
LayerCount: 2
Fore
SplineSet
58 0 m 1,0,-1
 -36 0 l 1,1,-1
 328 686 l 1,2,-1
 436 686 l 1,3,-1
 607 0 l 1,4,-1
 501 0 l 1,5,-1
 464 149 l 1,6,-1
 136 149 l 1,7,-1
 58 0 l 1,0,-1
357 568 m 1,8,-1
 184 238 l 1,9,-1
 443 238 l 1,10,-1
 363 568 l 1,11,-1
 357 568 l 1,8,-1
318 746 m 128,-1,13
 291 772 291 772 291 816 c 128,-1,14
 291 860 291 860 324 891 c 128,-1,15
 357 922 357 922 399.5 922 c 128,-1,16
 442 922 442 922 469 895.5 c 128,-1,17
 496 869 496 869 496 826.5 c 128,-1,18
 496 784 496 784 463 752 c 128,-1,19
 430 720 430 720 387.5 720 c 128,-1,12
 345 720 345 720 318 746 c 128,-1,13
354 862.5 m 128,-1,21
 336 844 336 844 336 818.5 c 128,-1,22
 336 793 336 793 351 777 c 128,-1,23
 366 761 366 761 390 761 c 128,-1,24
 414 761 414 761 432.5 780 c 128,-1,25
 451 799 451 799 451 824 c 128,-1,26
 451 849 451 849 436 865 c 128,-1,27
 421 881 421 881 396.5 881 c 128,-1,20
 372 881 372 881 354 862.5 c 128,-1,21
EndSplineSet
EndChar

StartChar: AE
Encoding: 198 198 136
Width: 981
Flags: MW
HStem: 0 89<598 896 598 896> 149 89<219 478 219 486 158 478> 306 89<574 888 574 574> 597 89<543 961 543 543>
LayerCount: 2
Fore
SplineSet
59 0 m 1,0,-1
 -33 0 l 1,1,-1
 426 686 l 1,2,-1
 987 686 l 1,3,-1
 961 597 l 1,4,-1
 543 597 l 1,5,-1
 565 395 l 1,6,-1
 901 395 l 1,7,-1
 888 306 l 1,8,-1
 574 306 l 1,9,-1
 598 89 l 1,10,-1
 896 89 l 1,11,-1
 896 0 l 1,12,-1
 502 0 l 1,13,-1
 486 149 l 1,14,-1
 158 149 l 1,15,-1
 59 0 l 1,0,-1
438 568 m 1,16,-1
 219 238 l 1,17,-1
 478 238 l 1,18,-1
 444 568 l 1,19,-1
 438 568 l 1,16,-1
EndSplineSet
EndChar

StartChar: Ccedilla
Encoding: 199 199 137
Width: 662
Flags: MW
HStem: -197 51<238 273 235.5 277> -197 180<259 277> -10 89<265 362.5 265 380> 607 89<333.5 430.5>
VStem: 57 99<183.5 242.5> 320 63<-113 -83.5> 532 99<468.5 515.5>
LayerCount: 2
Fore
SplineSet
57 232 m 0,0,1
 57 261 57 261 75 388 c 0,2,3
 98 542 98 542 182 619 c 128,-1,4
 266 696 266 696 400 696 c 0,5,6
 504 696 504 696 567.5 640 c 128,-1,7
 631 584 631 584 631 477 c 0,8,9
 631 448 631 448 627 423 c 1,10,-1
 529 423 l 1,11,12
 532 445 532 445 532 466 c 0,13,14
 532 537 532 537 493.5 572 c 128,-1,15
 455 607 455 607 388 607 c 0,16,17
 302 607 302 607 245.5 553.5 c 128,-1,18
 189 500 189 500 172.5 386 c 128,-1,19
 156 272 156 272 156 241 c 0,20,21
 156 79 156 79 313 79 c 0,22,23
 391 79 391 79 444 124.5 c 128,-1,24
 497 170 497 170 510 261 c 1,25,-1
 604 261 l 1,26,27
 584 125 584 125 504 57.5 c 128,-1,28
 424 -10 424 -10 306.5 -10 c 128,-1,29
 189 -10 189 -10 123 51.5 c 128,-1,30
 57 113 57 113 57 232 c 0,0,1
162 -175 m 1,31,-1
 178 -126 l 1,32,33
 214 -146 214 -146 248.5 -146 c 0,34,35
 320 -146 320 -146 320 -95 c 0,36,37
 320 -60 320 -60 274 -60 c 2,38,-1
 253 -60 l 1,39,-1
 259 -17 l 1,40,-1
 283 -17 l 2,41,42
 383 -17 383 -17 383 -90 c 0,43,44
 383 -130 383 -130 359 -155.5 c 0,45,46
 319.941176471 -197 319.941176471 -197 259.470588235 -197 c 128,-1,47
 199 -197 199 -197 162 -175 c 1,31,-1
EndSplineSet
EndChar

StartChar: Egrave
Encoding: 200 200 138
Width: 592
Flags: MW
HStem: 0 89<162 507 162 507> 306 89<205 499 192 512> 597 89<233 572 233 233> 875 20G<258 347 347 347>
LayerCount: 2
Fore
SplineSet
507 0 m 1,0,-1
 51 0 l 1,1,-1
 148 686 l 1,2,-1
 598 686 l 1,3,-1
 572 597 l 1,4,-1
 233 597 l 1,5,-1
 205 395 l 1,6,-1
 512 395 l 1,7,-1
 499 306 l 1,8,-1
 192 306 l 1,9,-1
 162 89 l 1,10,-1
 507 89 l 1,11,-1
 507 0 l 1,0,-1
351 750 m 1,12,-1
 256 892 l 1,13,-1
 258 895 l 1,14,-1
 347 895 l 1,15,-1
 421 750 l 1,16,-1
 351 750 l 1,12,-1
EndSplineSet
EndChar

StartChar: Eacute
Encoding: 201 201 139
Width: 592
Flags: MW
HStem: 0 89<162 507 162 507> 306 89<205 499 192 512> 597 89<233 572 233 233> 875 20G<448 538 538 538>
LayerCount: 2
Fore
SplineSet
507 0 m 1,0,-1
 51 0 l 1,1,-1
 148 686 l 1,2,-1
 598 686 l 1,3,-1
 572 597 l 1,4,-1
 233 597 l 1,5,-1
 205 395 l 1,6,-1
 512 395 l 1,7,-1
 499 306 l 1,8,-1
 192 306 l 1,9,-1
 162 89 l 1,10,-1
 507 89 l 1,11,-1
 507 0 l 1,0,-1
402 750 m 1,12,-1
 333 750 l 1,13,-1
 448 895 l 1,14,-1
 538 895 l 1,15,-1
 538 891 l 1,16,-1
 402 750 l 1,12,-1
EndSplineSet
EndChar

StartChar: Ecircumflex
Encoding: 202 202 140
Width: 592
Flags: MW
HStem: 0 89<162 507 162 507> 306 89<205 499 192 512> 597 89<233 572 233 233> 875 20G<362 440 440 440>
LayerCount: 2
Fore
SplineSet
507 0 m 1,0,-1
 51 0 l 1,1,-1
 148 686 l 1,2,-1
 598 686 l 1,3,-1
 572 597 l 1,4,-1
 233 597 l 1,5,-1
 205 395 l 1,6,-1
 512 395 l 1,7,-1
 499 306 l 1,8,-1
 192 306 l 1,9,-1
 162 89 l 1,10,-1
 507 89 l 1,11,-1
 507 0 l 1,0,-1
285 750 m 1,12,-1
 205 750 l 1,13,-1
 362 895 l 1,14,-1
 440 895 l 1,15,-1
 554 750 l 1,16,-1
 474 750 l 1,17,-1
 393 839 l 1,18,-1
 285 750 l 1,12,-1
EndSplineSet
EndChar

StartChar: Edieresis
Encoding: 203 203 141
Width: 592
Flags: MW
HStem: 0 89<162 507 162 507> 306 89<205 499 192 512> 597 89<233 572 233 233> 750 98<250 327 237 340 250 425 438 516>
LayerCount: 2
Fore
SplineSet
507 0 m 1,0,-1
 51 0 l 1,1,-1
 148 686 l 1,2,-1
 598 686 l 1,3,-1
 572 597 l 1,4,-1
 233 597 l 1,5,-1
 205 395 l 1,6,-1
 512 395 l 1,7,-1
 499 306 l 1,8,-1
 192 306 l 1,9,-1
 162 89 l 1,10,-1
 507 89 l 1,11,-1
 507 0 l 1,0,-1
327 750 m 1,12,-1
 237 750 l 1,13,-1
 250 848 l 1,14,-1
 340 848 l 1,15,-1
 327 750 l 1,12,-1
516 750 m 1,16,-1
 425 750 l 1,17,-1
 438 848 l 1,18,-1
 529 848 l 1,19,-1
 516 750 l 1,16,-1
EndSplineSet
EndChar

StartChar: Igrave
Encoding: 204 204 142
Width: 365
Flags: MW
HStem: 0 89<25 105 203 270 12 105> 597 89<109 176 96 367 274 274 274 354> 875 20G<110 199 199 199>
LayerCount: 2
Fore
SplineSet
270 0 m 1,0,-1
 12 0 l 1,1,-1
 25 89 l 1,2,-1
 105 89 l 1,3,-1
 176 597 l 1,4,-1
 96 597 l 1,5,-1
 109 686 l 1,6,-1
 367 686 l 1,7,-1
 354 597 l 1,8,-1
 274 597 l 1,9,-1
 203 89 l 1,10,-1
 283 89 l 1,11,-1
 270 0 l 1,0,-1
203 750 m 1,12,-1
 108 892 l 1,13,-1
 110 895 l 1,14,-1
 199 895 l 1,15,-1
 273 750 l 1,16,-1
 203 750 l 1,12,-1
EndSplineSet
EndChar

StartChar: Iacute
Encoding: 205 205 143
Width: 365
Flags: MW
HStem: 0 89<25 105 203 270 12 105> 597 89<109 176 96 367 274 274 274 354> 875 20G<317 407 407 407>
LayerCount: 2
Fore
SplineSet
270 0 m 1,0,-1
 12 0 l 1,1,-1
 25 89 l 1,2,-1
 105 89 l 1,3,-1
 176 597 l 1,4,-1
 96 597 l 1,5,-1
 109 686 l 1,6,-1
 367 686 l 1,7,-1
 354 597 l 1,8,-1
 274 597 l 1,9,-1
 203 89 l 1,10,-1
 283 89 l 1,11,-1
 270 0 l 1,0,-1
271 750 m 1,12,-1
 202 750 l 1,13,-1
 317 895 l 1,14,-1
 407 895 l 1,15,-1
 407 891 l 1,16,-1
 271 750 l 1,12,-1
EndSplineSet
EndChar

StartChar: Icircumflex
Encoding: 206 206 144
Width: 365
Flags: MW
HStem: 0 89<25 105 203 270 12 105> 597 89<109 176 96 367 274 274 274 354> 875 20G<228 306 306 306>
LayerCount: 2
Fore
SplineSet
270 0 m 1,0,-1
 12 0 l 1,1,-1
 25 89 l 1,2,-1
 105 89 l 1,3,-1
 176 597 l 1,4,-1
 96 597 l 1,5,-1
 109 686 l 1,6,-1
 367 686 l 1,7,-1
 354 597 l 1,8,-1
 274 597 l 1,9,-1
 203 89 l 1,10,-1
 283 89 l 1,11,-1
 270 0 l 1,0,-1
151 750 m 1,12,-1
 71 750 l 1,13,-1
 228 895 l 1,14,-1
 306 895 l 1,15,-1
 420 750 l 1,16,-1
 340 750 l 1,17,-1
 259 839 l 1,18,-1
 151 750 l 1,12,-1
EndSplineSet
EndChar

StartChar: Idieresis
Encoding: 207 207 145
Width: 365
Flags: MW
HStem: 0 89<25 105 203 270 12 105> 597 89<109 176 96 367 274 274 274 354> 750 98<120 197 107 210 120 295 308 386>
LayerCount: 2
Fore
SplineSet
270 0 m 1,0,-1
 12 0 l 1,1,-1
 25 89 l 1,2,-1
 105 89 l 1,3,-1
 176 597 l 1,4,-1
 96 597 l 1,5,-1
 109 686 l 1,6,-1
 367 686 l 1,7,-1
 354 597 l 1,8,-1
 274 597 l 1,9,-1
 203 89 l 1,10,-1
 283 89 l 1,11,-1
 270 0 l 1,0,-1
197 750 m 1,12,-1
 107 750 l 1,13,-1
 120 848 l 1,14,-1
 210 848 l 1,15,-1
 197 750 l 1,12,-1
386 750 m 1,16,-1
 295 750 l 1,17,-1
 308 848 l 1,18,-1
 399 848 l 1,19,-1
 386 750 l 1,16,-1
EndSplineSet
EndChar

StartChar: Eth
Encoding: 208 208 146
Width: 682
Flags: MW
HStem: 0 89<167 294> 310 65<18 100 10 109 207 343> 597 89<238 378 238 238>
VStem: 537 99<431.5 490>
LayerCount: 2
Fore
SplineSet
100 310 m 1,0,-1
 10 310 l 1,1,-1
 18 375 l 1,2,-1
 109 375 l 1,3,-1
 153 686 l 1,4,-1
 391 686 l 2,5,6
 501 686 501 686 568.5 623.5 c 128,-1,7
 636 561 636 561 636 442 c 0,8,9
 636 419 636 419 623 308 c 0,10,11
 605 155 605 155 519 77.5 c 128,-1,12
 433 0 433 0 294 0 c 2,13,-1
 56 0 l 1,14,-1
 100 310 l 1,0,-1
198 310 m 1,15,-1
 167 89 l 1,16,-1
 307 89 l 2,17,18
 392 89 392 89 450.5 142.5 c 128,-1,19
 509 196 509 196 523 304.5 c 0,20,21
 537 413 537 413 537 432 c 0,22,23
 537 516 537 516 494.5 556.5 c 128,-1,24
 452 597 452 597 378 597 c 2,25,-1
 238 597 l 1,26,-1
 207 375 l 1,27,-1
 352 375 l 1,28,-1
 343 310 l 1,29,-1
 198 310 l 1,15,-1
EndSplineSet
EndChar

StartChar: Ntilde
Encoding: 209 209 147
Width: 694
Flags: MW
HStem: 0 21G<51 140 51 51 478 478 478 561> 666 20G<148 234 234 234 569 658 658 658> 750 69<484.5 526 484.5 533> 784 70<315 357>
LayerCount: 2
Fore
SplineSet
140 0 m 1,0,-1
 51 0 l 1,1,-1
 148 686 l 1,2,-1
 234 686 l 1,3,-1
 496 190 l 1,4,-1
 499 191 l 1,5,-1
 569 686 l 1,6,-1
 658 686 l 1,7,-1
 561 0 l 1,8,-1
 478 0 l 1,9,-1
 214 502 l 1,10,-1
 211 501 l 1,11,-1
 140 0 l 1,0,-1
270 750 m 1,12,-1
 222 750 l 1,13,14
 229 790 229 790 262 822 c 128,-1,15
 295 854 295 854 348 854 c 0,16,17
 381 854 381 854 433.5 836.5 c 128,-1,18
 486 819 486 819 511 819 c 0,19,20
 556 819 556 819 571 854 c 1,21,-1
 621 854 l 1,22,23
 614 813 614 813 581 781.5 c 128,-1,24
 548 750 548 750 494 750 c 0,25,26
 461 750 461 750 408.5 767 c 128,-1,27
 356 784 356 784 330 784 c 0,28,29
 285 784 285 784 270 750 c 1,12,-1
EndSplineSet
EndChar

StartChar: Ograve
Encoding: 210 210 148
Width: 690
Flags: MW
HStem: -10 89<267.5 369 267.5 388.5> 607 89<335.5 437> 875 20G<273 362 362 362>
VStem: 57 99<185.5 249.5> 549 98<440.5 500>
LayerCount: 2
Fore
SplineSet
57 235 m 0,0,1
 57 262 57 262 75 388 c 1,2,3
 95 539 95 539 183 617.5 c 128,-1,4
 271 696 271 696 402 696 c 0,5,6
 512 696 512 696 579.5 633 c 128,-1,7
 647 570 647 570 647 450 c 0,8,9
 647 417 647 417 630 298 c 0,10,11
 609 146 609 146 522 68 c 128,-1,12
 435 -10 435 -10 303 -10 c 0,13,14
 193 -10 193 -10 125 53 c 128,-1,15
 57 116 57 116 57 235 c 0,0,1
156 244 m 0,16,17
 156 160 156 160 198 119.5 c 128,-1,18
 240 79 240 79 320 79 c 0,19,20
 400 79 400 79 457.5 132.5 c 128,-1,21
 515 186 515 186 532 299.5 c 0,22,23
 549 413 549 413 549 442 c 0,24,25
 549 526 549 526 506.5 566.5 c 128,-1,26
 464 607 464 607 383.5 607 c 0,27,28
 303 607 303 607 245.5 553.5 c 128,-1,29
 188 500 188 500 172 385.5 c 0,30,31
 156 271 156 271 156 244 c 0,16,17
366 750 m 1,32,-1
 271 892 l 1,33,-1
 273 895 l 1,34,-1
 362 895 l 1,35,-1
 436 750 l 1,36,-1
 366 750 l 1,32,-1
EndSplineSet
EndChar

StartChar: Oacute
Encoding: 211 211 149
Width: 690
Flags: MW
HStem: -10 89<267.5 369 267.5 388.5> 607 89<335.5 437> 875 20G<488 578 578 578>
VStem: 57 99<185.5 249.5> 549 98<440.5 500>
LayerCount: 2
Fore
SplineSet
57 235 m 0,0,1
 57 262 57 262 75 388 c 1,2,3
 95 539 95 539 183 617.5 c 128,-1,4
 271 696 271 696 402 696 c 0,5,6
 512 696 512 696 579.5 633 c 128,-1,7
 647 570 647 570 647 450 c 0,8,9
 647 417 647 417 630 298 c 0,10,11
 609 146 609 146 522 68 c 128,-1,12
 435 -10 435 -10 303 -10 c 0,13,14
 193 -10 193 -10 125 53 c 128,-1,15
 57 116 57 116 57 235 c 0,0,1
156 244 m 0,16,17
 156 160 156 160 198 119.5 c 128,-1,18
 240 79 240 79 320 79 c 0,19,20
 400 79 400 79 457.5 132.5 c 128,-1,21
 515 186 515 186 532 299.5 c 0,22,23
 549 413 549 413 549 442 c 0,24,25
 549 526 549 526 506.5 566.5 c 128,-1,26
 464 607 464 607 383.5 607 c 0,27,28
 303 607 303 607 245.5 553.5 c 128,-1,29
 188 500 188 500 172 385.5 c 0,30,31
 156 271 156 271 156 244 c 0,16,17
442 750 m 1,32,-1
 373 750 l 1,33,-1
 488 895 l 1,34,-1
 578 895 l 1,35,-1
 578 891 l 1,36,-1
 442 750 l 1,32,-1
EndSplineSet
EndChar

StartChar: Ocircumflex
Encoding: 212 212 150
Width: 690
Flags: MW
HStem: -10 89<267.5 369 267.5 388.5> 607 89<335.5 437> 875 20G<406 484 484 484>
VStem: 57 99<185.5 249.5> 549 98<440.5 500>
LayerCount: 2
Fore
SplineSet
57 235 m 0,0,1
 57 262 57 262 75 388 c 1,2,3
 95 539 95 539 183 617.5 c 128,-1,4
 271 696 271 696 402 696 c 0,5,6
 512 696 512 696 579.5 633 c 128,-1,7
 647 570 647 570 647 450 c 0,8,9
 647 417 647 417 630 298 c 0,10,11
 609 146 609 146 522 68 c 128,-1,12
 435 -10 435 -10 303 -10 c 0,13,14
 193 -10 193 -10 125 53 c 128,-1,15
 57 116 57 116 57 235 c 0,0,1
156 244 m 0,16,17
 156 160 156 160 198 119.5 c 128,-1,18
 240 79 240 79 320 79 c 0,19,20
 400 79 400 79 457.5 132.5 c 128,-1,21
 515 186 515 186 532 299.5 c 0,22,23
 549 413 549 413 549 442 c 0,24,25
 549 526 549 526 506.5 566.5 c 128,-1,26
 464 607 464 607 383.5 607 c 0,27,28
 303 607 303 607 245.5 553.5 c 128,-1,29
 188 500 188 500 172 385.5 c 0,30,31
 156 271 156 271 156 244 c 0,16,17
329 750 m 1,32,-1
 249 750 l 1,33,-1
 406 895 l 1,34,-1
 484 895 l 1,35,-1
 598 750 l 1,36,-1
 518 750 l 1,37,-1
 437 839 l 1,38,-1
 329 750 l 1,32,-1
EndSplineSet
EndChar

StartChar: Otilde
Encoding: 213 213 151
Width: 690
Flags: MW
HStem: -10 89<267.5 369 267.5 388.5> 607 89<335.5 437> 750 69<490.5 532 490.5 539> 784 70<321 363>
VStem: 57 99<185.5 249.5> 549 98<440.5 500>
LayerCount: 2
Fore
SplineSet
57 235 m 0,0,1
 57 262 57 262 75 388 c 1,2,3
 95 539 95 539 183 617.5 c 128,-1,4
 271 696 271 696 402 696 c 0,5,6
 512 696 512 696 579.5 633 c 128,-1,7
 647 570 647 570 647 450 c 0,8,9
 647 417 647 417 630 298 c 0,10,11
 609 146 609 146 522 68 c 128,-1,12
 435 -10 435 -10 303 -10 c 0,13,14
 193 -10 193 -10 125 53 c 128,-1,15
 57 116 57 116 57 235 c 0,0,1
156 244 m 0,16,17
 156 160 156 160 198 119.5 c 128,-1,18
 240 79 240 79 320 79 c 0,19,20
 400 79 400 79 457.5 132.5 c 128,-1,21
 515 186 515 186 532 299.5 c 0,22,23
 549 413 549 413 549 442 c 0,24,25
 549 526 549 526 506.5 566.5 c 128,-1,26
 464 607 464 607 383.5 607 c 0,27,28
 303 607 303 607 245.5 553.5 c 128,-1,29
 188 500 188 500 172 385.5 c 0,30,31
 156 271 156 271 156 244 c 0,16,17
276 750 m 1,32,-1
 228 750 l 1,33,34
 235 790 235 790 268 822 c 128,-1,35
 301 854 301 854 354 854 c 0,36,37
 387 854 387 854 439.5 836.5 c 128,-1,38
 492 819 492 819 517 819 c 0,39,40
 562 819 562 819 577 854 c 1,41,-1
 627 854 l 1,42,43
 620 813 620 813 587 781.5 c 128,-1,44
 554 750 554 750 500 750 c 0,45,46
 467 750 467 750 414.5 767 c 128,-1,47
 362 784 362 784 336 784 c 0,48,49
 291 784 291 784 276 750 c 1,32,-1
EndSplineSet
EndChar

StartChar: Odieresis
Encoding: 214 214 152
Width: 690
Flags: MW
HStem: -10 89<267.5 369 267.5 388.5> 607 89<335.5 437> 750 98<288 365 275 378 288 463 476 554>
VStem: 57 99<185.5 249.5> 549 98<440.5 500>
LayerCount: 2
Fore
SplineSet
57 235 m 0,0,1
 57 262 57 262 75 388 c 1,2,3
 95 539 95 539 183 617.5 c 128,-1,4
 271 696 271 696 402 696 c 0,5,6
 512 696 512 696 579.5 633 c 128,-1,7
 647 570 647 570 647 450 c 0,8,9
 647 417 647 417 630 298 c 0,10,11
 609 146 609 146 522 68 c 128,-1,12
 435 -10 435 -10 303 -10 c 0,13,14
 193 -10 193 -10 125 53 c 128,-1,15
 57 116 57 116 57 235 c 0,0,1
156 244 m 0,16,17
 156 160 156 160 198 119.5 c 128,-1,18
 240 79 240 79 320 79 c 0,19,20
 400 79 400 79 457.5 132.5 c 128,-1,21
 515 186 515 186 532 299.5 c 0,22,23
 549 413 549 413 549 442 c 0,24,25
 549 526 549 526 506.5 566.5 c 128,-1,26
 464 607 464 607 383.5 607 c 0,27,28
 303 607 303 607 245.5 553.5 c 128,-1,29
 188 500 188 500 172 385.5 c 0,30,31
 156 271 156 271 156 244 c 0,16,17
365 750 m 1,32,-1
 275 750 l 1,33,-1
 288 848 l 1,34,-1
 378 848 l 1,35,-1
 365 750 l 1,32,-1
554 750 m 1,36,-1
 463 750 l 1,37,-1
 476 848 l 1,38,-1
 567 848 l 1,39,-1
 554 750 l 1,36,-1
EndSplineSet
EndChar

StartChar: multiply
Encoding: 215 215 153
Width: 615
Flags: MW
HStem: 45 21G<119 119> 446 20G<178 178 485 485>
LayerCount: 2
Fore
SplineSet
426 45 m 1,0,1
 360.857142857 117 360.857142857 117 294 195 c 1,2,-1
 119 45 l 1,3,4
 116 49 116 49 72 104 c 1,5,-1
 246 255 l 1,6,-1
 115 407 l 1,7,8
 127 418 127 418 178 466 c 1,9,-1
 311 314 l 1,10,-1
 485 466 l 1,11,12
 529 411 529 411 532 407 c 1,13,-1
 357 255 l 1,14,-1
 489 104 l 1,15,16
 477 94 477 94 426 45 c 1,0,1
EndSplineSet
EndChar

StartChar: Oslash
Encoding: 216 216 154
Width: 690
Flags: MW
HStem: -65 21G<20 84 20 20> -10 89<293.5 369 293.5 388.5> 607 89<335.5 411> 734 20G<625 689 689 689>
VStem: 57 99<224 249.5> 549 98<440.5 461.5>
LayerCount: 2
Fore
SplineSet
84 -65 m 1,0,-1
 20 -65 l 1,1,-1
 115 63 l 1,2,3
 57 127 57 127 57 235 c 0,4,5
 57 262 57 262 75 388 c 1,6,7
 95 539 95 539 183 617.5 c 128,-1,8
 271 696 271 696 402 696 c 0,9,10
 490 696 490 696 552 655 c 1,11,-1
 625 754 l 1,12,-1
 689 754 l 1,13,-1
 590 621 l 1,14,15
 647 556 647 556 647 450 c 0,16,17
 647 417 647 417 630 298 c 0,18,19
 609 146 609 146 522 68 c 128,-1,20
 435 -10 435 -10 303 -10 c 0,21,22
 215 -10 215 -10 154 30 c 1,23,-1
 84 -65 l 1,0,-1
156 244 m 0,24,25
 156 184 156 184 177 147 c 1,26,-1
 494 577 l 1,27,28
 453 607 453 607 390 607 c 0,29,30
 303 607 303 607 245.5 553.5 c 128,-1,31
 188 500 188 500 172 385.5 c 0,32,33
 156 271 156 271 156 244 c 0,24,25
528 537 m 1,34,-1
 211 107 l 1,35,36
 251 79 251 79 315 79 c 0,37,38
 400 79 400 79 457.5 132.5 c 128,-1,39
 515 186 515 186 532 299.5 c 0,40,41
 549 413 549 413 549 455 c 0,42,43
 549 497 549 497 528 537 c 1,34,-1
EndSplineSet
EndChar

StartChar: Ugrave
Encoding: 217 217 155
Width: 682
Flags: MW
HStem: -10 89<267 292 292 305> 666 20G<142 240 240 240 552 650 650 650> 875 20G<279 368 368 368>
VStem: 74 99<164.5 190.5>
LayerCount: 2
Fore
SplineSet
74 180 m 0,0,1
 74 189 74 189 142 686 c 1,2,-1
 240 686 l 1,3,4
 207.2 440 207.2 440 182 272 c 1,5,-1
 176 228 l 2,6,7
 173 209 173 209 173 200 c 0,8,9
 173 146 173 146 209.5 112.5 c 128,-1,10
 246 79 246 79 314.5 79 c 128,-1,11
 383 79 383 79 430.5 118 c 128,-1,12
 478 157 478 157 487 221 c 2,13,-1
 552 686 l 1,14,-1
 650 686 l 1,15,-1
 585 219 l 2,16,17
 571 112 571 112 498 51 c 128,-1,18
 425 -10 425 -10 305 -10 c 2,19,-1
 292 -10 l 2,20,21
 190 -10 190 -10 132 41 c 128,-1,22
 74 92 74 92 74 180 c 0,0,1
372 750 m 1,23,-1
 277 892 l 1,24,-1
 279 895 l 1,25,-1
 368 895 l 1,26,-1
 442 750 l 1,27,-1
 372 750 l 1,23,-1
EndSplineSet
EndChar

StartChar: Uacute
Encoding: 218 218 156
Width: 682
Flags: MW
HStem: -10 89<267 292 292 305> 666 20G<142 240 240 240 552 650 650 650> 875 20G<482 572 572 572>
VStem: 74 99<164.5 190.5>
LayerCount: 2
Fore
SplineSet
74 180 m 0,0,1
 74 189 74 189 142 686 c 1,2,-1
 240 686 l 1,3,4
 207.2 440 207.2 440 182 272 c 1,5,-1
 176 228 l 2,6,7
 173 209 173 209 173 200 c 0,8,9
 173 146 173 146 209.5 112.5 c 128,-1,10
 246 79 246 79 314.5 79 c 128,-1,11
 383 79 383 79 430.5 118 c 128,-1,12
 478 157 478 157 487 221 c 2,13,-1
 552 686 l 1,14,-1
 650 686 l 1,15,-1
 585 219 l 2,16,17
 571 112 571 112 498 51 c 128,-1,18
 425 -10 425 -10 305 -10 c 2,19,-1
 292 -10 l 2,20,21
 190 -10 190 -10 132 41 c 128,-1,22
 74 92 74 92 74 180 c 0,0,1
436 750 m 1,23,-1
 367 750 l 1,24,-1
 482 895 l 1,25,-1
 572 895 l 1,26,-1
 572 891 l 1,27,-1
 436 750 l 1,23,-1
EndSplineSet
EndChar

StartChar: Ucircumflex
Encoding: 219 219 157
Width: 682
Flags: MW
HStem: -10 89<267 292 292 305> 666 20G<142 240 240 240 552 650 650 650> 875 20G<380 458 458 458>
VStem: 74 99<164.5 190.5>
LayerCount: 2
Fore
SplineSet
74 180 m 0,0,1
 74 189 74 189 142 686 c 1,2,-1
 240 686 l 1,3,4
 207.2 440 207.2 440 182 272 c 1,5,-1
 176 228 l 2,6,7
 173 209 173 209 173 200 c 0,8,9
 173 146 173 146 209.5 112.5 c 128,-1,10
 246 79 246 79 314.5 79 c 128,-1,11
 383 79 383 79 430.5 118 c 128,-1,12
 478 157 478 157 487 221 c 2,13,-1
 552 686 l 1,14,-1
 650 686 l 1,15,-1
 585 219 l 2,16,17
 571 112 571 112 498 51 c 128,-1,18
 425 -10 425 -10 305 -10 c 2,19,-1
 292 -10 l 2,20,21
 190 -10 190 -10 132 41 c 128,-1,22
 74 92 74 92 74 180 c 0,0,1
303 750 m 1,23,-1
 223 750 l 1,24,-1
 380 895 l 1,25,-1
 458 895 l 1,26,-1
 572 750 l 1,27,-1
 492 750 l 1,28,-1
 411 839 l 1,29,-1
 303 750 l 1,23,-1
EndSplineSet
EndChar

StartChar: Udieresis
Encoding: 220 220 158
Width: 682
Flags: MW
HStem: -10 89<267 292 292 305> 666 20G<142 240 240 240 552 650 650 650> 749 98<278 355 265 368 278 453 466 544>
VStem: 74 99<164.5 190.5>
LayerCount: 2
Fore
SplineSet
74 180 m 0,0,1
 74 189 74 189 142 686 c 1,2,-1
 240 686 l 1,3,4
 207.2 440 207.2 440 182 272 c 1,5,-1
 176 228 l 2,6,7
 173 209 173 209 173 200 c 0,8,9
 173 146 173 146 209.5 112.5 c 128,-1,10
 246 79 246 79 314.5 79 c 128,-1,11
 383 79 383 79 430.5 118 c 128,-1,12
 478 157 478 157 487 221 c 2,13,-1
 552 686 l 1,14,-1
 650 686 l 1,15,-1
 585 219 l 2,16,17
 571 112 571 112 498 51 c 128,-1,18
 425 -10 425 -10 305 -10 c 2,19,-1
 292 -10 l 2,20,21
 190 -10 190 -10 132 41 c 128,-1,22
 74 92 74 92 74 180 c 0,0,1
355 749 m 1,23,-1
 265 749 l 1,24,-1
 278 847 l 1,25,-1
 368 847 l 1,26,-1
 355 749 l 1,23,-1
544 749 m 1,27,-1
 453 749 l 1,28,-1
 466 847 l 1,29,-1
 557 847 l 1,30,-1
 544 749 l 1,27,-1
EndSplineSet
EndChar

StartChar: Yacute
Encoding: 221 221 159
Width: 570
Flags: MW
HStem: 0 21G<193 291 193 193> 666 20G<49 160 160 160 528 629 629 629> 875 20G<420 510 510 510>
LayerCount: 2
Fore
SplineSet
231 265 m 1,0,-1
 49 686 l 1,1,-1
 160 686 l 1,2,-1
 298 367 l 1,3,-1
 302 367 l 1,4,-1
 528 686 l 1,5,-1
 629 686 l 1,6,-1
 329 265 l 1,7,-1
 291 0 l 1,8,-1
 193 0 l 1,9,-1
 231 265 l 1,0,-1
374 750 m 1,10,-1
 305 750 l 1,11,-1
 420 895 l 1,12,-1
 510 895 l 1,13,-1
 510 891 l 1,14,-1
 374 750 l 1,10,-1
EndSplineSet
EndChar

StartChar: Thorn
Encoding: 222 222 160
Width: 633
Flags: MW
HStem: 0 21G<51 149 51 51> 162 89<185 370 172 374> 473 89<216 426 228 405> 473 213<216 216 216 246 148 405>
VStem: 506 99<344 404.5>
LayerCount: 2
Fore
SplineSet
149 0 m 1,0,-1
 51 0 l 1,1,-1
 148 686 l 1,2,-1
 246 686 l 1,3,-1
 228 562 l 1,4,-1
 426 562 l 2,5,6
 504 562 504 562 554.5 515.5 c 128,-1,7
 605 469 605 469 605 393 c 0,8,9
 605 287 605 287 535.5 224.5 c 128,-1,10
 466 162 466 162 370 162 c 2,11,-1
 172 162 l 1,12,-1
 149 0 l 1,0,-1
216 473 m 1,13,-1
 185 251 l 1,14,-1
 374 251 l 2,15,16
 426 251 426 251 466 289 c 128,-1,17
 506 327 506 327 506 372.5 c 0,18,19
 506 418 506 418 477.5 445.5 c 128,-1,20
 449 473 449 473 405 473 c 2,21,-1
 216 473 l 1,13,-1
EndSplineSet
EndChar

StartChar: germandbls
Encoding: 223 223 161
Width: 614
Flags: MW
HStem: -66 21G<54 148 54 54> 0 75<229 301 218 302> 346 74<277 340 267 342> 491 20G<77 135 135 135> 653 75<341.5 414>
VStem: 461 94<188.5 264> 483 96<526.5 587>
LayerCount: 2
Fore
SplineSet
148 -66 m 1,0,-1
 54 -66 l 1,1,-1
 124 436 l 1,2,-1
 66 436 l 1,3,-1
 77 511 l 1,4,-1
 135 511 l 1,5,6
 151 613 151 613 218.5 670.5 c 128,-1,7
 286 728 286 728 392 728 c 0,8,9
 473 728 473 728 526 685.5 c 128,-1,10
 579 643 579 643 579 574.5 c 0,11,12
 579 506 579 506 545.5 459 c 128,-1,13
 512 412 512 412 456 391 c 1,14,-1
 457 387 l 1,15,16
 502 370 502 370 528.5 328 c 128,-1,17
 555 286 555 286 555 235 c 0,18,19
 555 130 555 130 481 65 c 128,-1,20
 407 0 407 0 301 0 c 2,21,-1
 218 0 l 1,22,-1
 229 75 l 1,23,-1
 302 75 l 2,24,25
 365 75 365 75 413 121.5 c 128,-1,26
 461 168 461 168 461 224.5 c 0,27,28
 461 281 461 281 427 313.5 c 128,-1,29
 393 346 393 346 340 346 c 2,30,-1
 267 346 l 1,31,-1
 277 420 l 1,32,-1
 342 420 l 2,33,34
 399 420 399 420 441 461 c 128,-1,35
 483 502 483 502 483 552 c 0,36,37
 483 602 483 602 456.5 627.5 c 128,-1,38
 430 653 430 653 375.5 653 c 0,39,40
 321 653 321 653 279 614.5 c 128,-1,41
 237 576 237 576 229 513 c 2,42,-1
 148 -66 l 1,0,-1
EndSplineSet
EndChar

StartChar: agrave
Encoding: 224 224 162
Width: 607
Flags: MW
HStem: -10 75<210.5 250.5> 446 75<231.5 318.5 218.5 329.5> 491 20G<465 530 530 530> 700 20G<181 270 270 270>
VStem: 42 93<145 244 145 297.5>
LayerCount: 2
Fore
SplineSet
42 190 m 0,0,1
 42 345 42 345 111.5 433 c 128,-1,2
 181 521 181 521 283.5 521 c 128,-1,3
 386 521 386 521 427 446 c 1,4,-1
 434 446 l 1,5,-1
 465 511 l 1,6,-1
 530 511 l 1,7,8
 513.883280757 411.820189274 513.883280757 411.820189274 492.941640379 252.910094637 c 128,-1,9
 472 94 472 94 472 92 c 0,10,11
 472 65 472 65 496.5 65 c 128,-1,12
 521 65 521 65 543 79 c 1,13,-1
 534 10 l 1,14,15
 502 -10 502 -10 457 -10 c 0,16,17
 381 -10 381 -10 381 65 c 1,18,19
 312 -10 312 -10 216 -10 c 0,20,21
 137 -10 137 -10 89.5 40.5 c 128,-1,22
 42 91 42 91 42 190 c 0,0,1
163 94.5 m 128,-1,24
 191 65 191 65 244 65 c 0,25,26
 324 65 324 65 365 136 c 128,-1,27
 406 207 406 207 406 318 c 0,28,29
 406 446 406 446 297 446 c 0,30,31
 251 446 251 446 217 421.5 c 128,-1,32
 183 397 183 397 166.5 357 c 0,33,34
 135 280.636363636 135 280.636363636 135 202.318181818 c 128,-1,23
 135 124 135 124 163 94.5 c 128,-1,24
274 575 m 1,35,-1
 179 717 l 1,36,-1
 181 720 l 1,37,-1
 270 720 l 1,38,-1
 344 575 l 1,39,-1
 274 575 l 1,35,-1
EndSplineSet
EndChar

StartChar: aacute
Encoding: 225 225 163
Width: 607
Flags: MW
HStem: -10 75<210.5 250.5> 446 75<231.5 318.5 218.5 329.5> 491 20G<465 530 530 530> 700 20G<377 467 467 467>
VStem: 42 93<145 244 145 297.5>
LayerCount: 2
Fore
SplineSet
42 190 m 0,0,1
 42 345 42 345 111.5 433 c 128,-1,2
 181 521 181 521 283.5 521 c 128,-1,3
 386 521 386 521 427 446 c 1,4,-1
 434 446 l 1,5,-1
 465 511 l 1,6,-1
 530 511 l 1,7,8
 513.883280757 411.820189274 513.883280757 411.820189274 492.941640379 252.910094637 c 128,-1,9
 472 94 472 94 472 92 c 0,10,11
 472 65 472 65 496.5 65 c 128,-1,12
 521 65 521 65 543 79 c 1,13,-1
 534 10 l 1,14,15
 502 -10 502 -10 457 -10 c 0,16,17
 381 -10 381 -10 381 65 c 1,18,19
 312 -10 312 -10 216 -10 c 0,20,21
 137 -10 137 -10 89.5 40.5 c 128,-1,22
 42 91 42 91 42 190 c 0,0,1
163 94.5 m 128,-1,24
 191 65 191 65 244 65 c 0,25,26
 324 65 324 65 365 136 c 128,-1,27
 406 207 406 207 406 318 c 0,28,29
 406 446 406 446 297 446 c 0,30,31
 251 446 251 446 217 421.5 c 128,-1,32
 183 397 183 397 166.5 357 c 0,33,34
 135 280.636363636 135 280.636363636 135 202.318181818 c 128,-1,23
 135 124 135 124 163 94.5 c 128,-1,24
331 575 m 1,35,-1
 262 575 l 1,36,-1
 377 720 l 1,37,-1
 467 720 l 1,38,-1
 467 716 l 1,39,-1
 331 575 l 1,35,-1
EndSplineSet
EndChar

StartChar: acircumflex
Encoding: 226 226 164
Width: 607
Flags: MW
HStem: -10 75<210.5 250.5> 446 75<231.5 318.5 218.5 329.5> 491 20G<465 530 530 530> 700 20G<302 380 380 380>
VStem: 42 93<145 244 145 297.5>
LayerCount: 2
Fore
SplineSet
42 190 m 0,0,1
 42 345 42 345 111.5 433 c 128,-1,2
 181 521 181 521 283.5 521 c 128,-1,3
 386 521 386 521 427 446 c 1,4,-1
 434 446 l 1,5,-1
 465 511 l 1,6,-1
 530 511 l 1,7,8
 513.883280757 411.820189274 513.883280757 411.820189274 492.941640379 252.910094637 c 128,-1,9
 472 94 472 94 472 92 c 0,10,11
 472 65 472 65 496.5 65 c 128,-1,12
 521 65 521 65 543 79 c 1,13,-1
 534 10 l 1,14,15
 502 -10 502 -10 457 -10 c 0,16,17
 381 -10 381 -10 381 65 c 1,18,19
 312 -10 312 -10 216 -10 c 0,20,21
 137 -10 137 -10 89.5 40.5 c 128,-1,22
 42 91 42 91 42 190 c 0,0,1
163 94.5 m 128,-1,24
 191 65 191 65 244 65 c 0,25,26
 324 65 324 65 365 136 c 128,-1,27
 406 207 406 207 406 318 c 0,28,29
 406 446 406 446 297 446 c 0,30,31
 251 446 251 446 217 421.5 c 128,-1,32
 183 397 183 397 166.5 357 c 0,33,34
 135 280.636363636 135 280.636363636 135 202.318181818 c 128,-1,23
 135 124 135 124 163 94.5 c 128,-1,24
225 575 m 1,35,-1
 145 575 l 1,36,-1
 302 720 l 1,37,-1
 380 720 l 1,38,-1
 494 575 l 1,39,-1
 414 575 l 1,40,-1
 333 664 l 1,41,-1
 225 575 l 1,35,-1
EndSplineSet
EndChar

StartChar: atilde
Encoding: 227 227 165
Width: 607
Flags: MW
HStem: -10 75<210.5 250.5> 446 75<231.5 318.5 218.5 329.5> 491 20G<465 530 530 530> 616 69<391.5 433 391.5 440> 650 70<222 264>
VStem: 42 93<145 244 145 297.5>
LayerCount: 2
Fore
SplineSet
42 190 m 0,0,1
 42 345 42 345 111.5 433 c 128,-1,2
 181 521 181 521 283.5 521 c 128,-1,3
 386 521 386 521 427 446 c 1,4,-1
 434 446 l 1,5,-1
 465 511 l 1,6,-1
 530 511 l 1,7,8
 513.883280757 411.820189274 513.883280757 411.820189274 492.941640379 252.910094637 c 128,-1,9
 472 94 472 94 472 92 c 0,10,11
 472 65 472 65 496.5 65 c 128,-1,12
 521 65 521 65 543 79 c 1,13,-1
 534 10 l 1,14,15
 502 -10 502 -10 457 -10 c 0,16,17
 381 -10 381 -10 381 65 c 1,18,19
 312 -10 312 -10 216 -10 c 0,20,21
 137 -10 137 -10 89.5 40.5 c 128,-1,22
 42 91 42 91 42 190 c 0,0,1
177 616 m 1,23,-1
 129 616 l 1,24,25
 136 656 136 656 169 688 c 128,-1,26
 202 720 202 720 255 720 c 0,27,28
 288 720 288 720 340.5 702.5 c 128,-1,29
 393 685 393 685 418 685 c 0,30,31
 463 685 463 685 478 720 c 1,32,-1
 528 720 l 1,33,34
 521 679 521 679 488 647.5 c 128,-1,35
 455 616 455 616 401 616 c 0,36,37
 368 616 368 616 315.5 633 c 128,-1,38
 263 650 263 650 237 650 c 0,39,40
 192 650 192 650 177 616 c 1,23,-1
163 94.5 m 128,-1,42
 191 65 191 65 244 65 c 0,43,44
 324 65 324 65 365 136 c 128,-1,45
 406 207 406 207 406 318 c 0,46,47
 406 446 406 446 297 446 c 0,48,49
 251 446 251 446 217 421.5 c 128,-1,50
 183 397 183 397 166.5 357 c 0,51,52
 135 280.636363636 135 280.636363636 135 202.318181818 c 128,-1,41
 135 124 135 124 163 94.5 c 128,-1,42
EndSplineSet
EndChar

StartChar: adieresis
Encoding: 228 228 166
Width: 607
Flags: MW
HStem: -10 75<210.5 250.5> 446 75<231.5 318.5 218.5 329.5> 491 20G<465 530 530 530> 622 98<193 270 180 283 193 368 381 459>
VStem: 42 93<145 244 145 297.5>
LayerCount: 2
Fore
SplineSet
42 190 m 0,0,1
 42 345 42 345 111.5 433 c 128,-1,2
 181 521 181 521 283.5 521 c 128,-1,3
 386 521 386 521 427 446 c 1,4,-1
 434 446 l 1,5,-1
 465 511 l 1,6,-1
 530 511 l 1,7,8
 513.883280757 411.820189274 513.883280757 411.820189274 492.941640379 252.910094637 c 128,-1,9
 472 94 472 94 472 92 c 0,10,11
 472 65 472 65 496.5 65 c 128,-1,12
 521 65 521 65 543 79 c 1,13,-1
 534 10 l 1,14,15
 502 -10 502 -10 457 -10 c 0,16,17
 381 -10 381 -10 381 65 c 1,18,19
 312 -10 312 -10 216 -10 c 0,20,21
 137 -10 137 -10 89.5 40.5 c 128,-1,22
 42 91 42 91 42 190 c 0,0,1
163 94.5 m 128,-1,24
 191 65 191 65 244 65 c 0,25,26
 324 65 324 65 365 136 c 128,-1,27
 406 207 406 207 406 318 c 0,28,29
 406 446 406 446 297 446 c 0,30,31
 251 446 251 446 217 421.5 c 128,-1,32
 183 397 183 397 166.5 357 c 0,33,34
 135 280.636363636 135 280.636363636 135 202.318181818 c 128,-1,23
 135 124 135 124 163 94.5 c 128,-1,24
270 622 m 1,35,-1
 180 622 l 1,36,-1
 193 720 l 1,37,-1
 283 720 l 1,38,-1
 270 622 l 1,35,-1
459 622 m 1,39,-1
 368 622 l 1,40,-1
 381 720 l 1,41,-1
 472 720 l 1,42,-1
 459 622 l 1,39,-1
EndSplineSet
EndChar

StartChar: aring
Encoding: 229 229 167
Width: 607
Flags: MW
HStem: -10 75<210.5 250.5> 446 75<231.5 318.5 218.5 329.5> 491 20G<465 530 530 530> 548 41<308 339.5 308 349> 709 41<315 347>
VStem: 42 93<145 244 145 297.5> 225 45<629.5 663.5 629.5 674> 385 45<635 668.5> 406 24
LayerCount: 2
Fore
SplineSet
42 190 m 0,0,1
 42 345 42 345 111.5 433 c 128,-1,2
 181 521 181 521 283.5 521 c 128,-1,3
 386 521 386 521 427 446 c 1,4,-1
 434 446 l 1,5,-1
 465 511 l 1,6,-1
 530 511 l 1,7,8
 513.883280757 411.820189274 513.883280757 411.820189274 492.941640379 252.910094637 c 128,-1,9
 472 94 472 94 472 92 c 0,10,11
 472 65 472 65 496.5 65 c 128,-1,12
 521 65 521 65 543 79 c 1,13,-1
 534 10 l 1,14,15
 502 -10 502 -10 457 -10 c 0,16,17
 381 -10 381 -10 381 65 c 1,18,19
 312 -10 312 -10 216 -10 c 0,20,21
 137 -10 137 -10 89.5 40.5 c 128,-1,22
 42 91 42 91 42 190 c 0,0,1
163 94.5 m 128,-1,24
 191 65 191 65 244 65 c 0,25,26
 324 65 324 65 365 136 c 128,-1,27
 406 207 406 207 406 318 c 0,28,29
 406 446 406 446 297 446 c 0,30,31
 251 446 251 446 217 421.5 c 128,-1,32
 183 397 183 397 166.5 357 c 0,33,34
 135 280.636363636 135 280.636363636 135 202.318181818 c 128,-1,23
 135 124 135 124 163 94.5 c 128,-1,24
252 574 m 128,-1,36
 225 600 225 600 225 644 c 128,-1,37
 225 688 225 688 258 719 c 128,-1,38
 291 750 291 750 333.5 750 c 128,-1,39
 376 750 376 750 403 723.5 c 128,-1,40
 430 697 430 697 430 654.5 c 128,-1,41
 430 612 430 612 397 580 c 128,-1,42
 364 548 364 548 321.5 548 c 128,-1,35
 279 548 279 548 252 574 c 128,-1,36
288 690.5 m 128,-1,44
 270 672 270 672 270 646.5 c 128,-1,45
 270 621 270 621 285 605 c 128,-1,46
 300 589 300 589 324 589 c 128,-1,47
 348 589 348 589 366.5 608 c 128,-1,48
 385 627 385 627 385 652 c 128,-1,49
 385 677 385 677 370 693 c 128,-1,50
 355 709 355 709 330.5 709 c 128,-1,43
 306 709 306 709 288 690.5 c 128,-1,44
EndSplineSet
EndChar

StartChar: ae
Encoding: 230 230 168
Width: 895
Flags: MW
HStem: -10 75<182.5 225 551 581 581 585> -10 200<536.5 827 581 827> 234 73<304 382 489 751> 354 167<76 317> 446 75<308 317 317 340 653 660 660 676.5>
VStem: 25 95<107 176.5 107 201> 754 92<339 377>
LayerCount: 2
Fore
SplineSet
25 117 m 0,0,1
 25 210.870967742 25 210.870967742 94 256.5 c 0,2,3
 151.972137931 294.836413793 151.972137931 294.836413793 274.5 303.5 c 0,4,5
 324 307 324 307 393 307 c 1,6,7
 400 352 400 352 400 368 c 2,8,-1
 400 374 l 2,9,10
 400 446 400 446 293.5 446 c 128,-1,11
 187 446 187 446 170 366 c 1,12,-1
 168 354 l 1,13,-1
 76 354 l 1,14,15
 76 428 76 428 142 474.5 c 128,-1,16
 208 521 208 521 308 521 c 2,17,-1
 317 521 l 2,18,19
 442 521 442 521 481 457 c 1,20,21
 551 521 551 521 653 521 c 2,22,-1
 660 521 l 2,23,24
 745 521 745 521 795.5 474 c 128,-1,25
 846 427 846 427 846 344 c 0,26,27
 846 302 846 302 833 234 c 1,28,-1
 476 234 l 1,29,30
 474 212 474 212 474 202 c 0,31,32
 474 65 474 65 595 65 c 0,33,34
 634 65 634 65 663.5 79 c 128,-1,35
 693 93 693 93 707.5 116 c 0,36,37
 732.1953125 155.171875 732.1953125 155.171875 738 190 c 1,38,-1
 827 190 l 1,39,40
 815 99 815 99 747 44.5 c 128,-1,41
 679 -10 679 -10 585 -10 c 2,42,-1
 581 -10 l 2,43,44
 445 -10 445 -10 397 101 c 1,45,46
 353 45 353 45 300.5 17.5 c 128,-1,47
 248 -10 248 -10 177.5 -10 c 0,48,49
 25 -10 25 -10 25 117 c 0,0,1
138 185 m 128,-1,51
 120 165 120 165 120 129.5 c 128,-1,52
 120 94 120 94 142 79.5 c 128,-1,53
 164 65 164 65 218.5 65 c 128,-1,54
 273 65 273 65 322 106 c 128,-1,55
 371 147 371 147 380 214 c 1,56,-1
 382 234 l 1,57,58
 258.19047619 234 258.19047619 234 207.095238095 219.5 c 128,-1,50
 156 205 156 205 138 185 c 128,-1,51
489 307 m 1,59,-1
 751 307 l 1,60,61
 754 327 754 327 754 343 c 0,62,63
 754 393 754 393 724 419.5 c 128,-1,64
 694 446 694 446 640.5 446 c 128,-1,65
 587 446 587 446 546.5 411 c 128,-1,66
 506 376 506 376 489 307 c 1,59,-1
EndSplineSet
EndChar

StartChar: ccedilla
Encoding: 231 231 169
Width: 546
Flags: MW
HStem: -197 51<183 218 180.5 222> -197 180<204 222> -10 75<216 235 235 243> -10 210<177.5 484 235 484> 310 211<309 499 309 406> 446 75<309 317 317 337.5>
VStem: 42 93<148 247.5 148 278.5> 265 63<-113 -83.5> 408 94<340.5 368.5>
LayerCount: 2
Fore
SplineSet
42 191 m 0,0,1
 42 333 42 333 110 427 c 128,-1,2
 178 521 178 521 309 521 c 2,3,-1
 317 521 l 2,4,5
 401 521 401 521 451.5 474 c 128,-1,6
 502 427 502 427 502 346 c 0,7,8
 502 329.5 502 329.5 499 310 c 1,9,-1
 406 310 l 1,10,11
 408 328 408 328 408 337 c 0,12,13
 408 386 408 386 381 416 c 128,-1,14
 354 446 354 446 304 446 c 128,-1,15
 254 446 254 446 219.5 422.5 c 128,-1,16
 185 399 185 399 167.5 360 c 0,17,18
 135 287.571428571 135 287.571428571 135 192 c 0,19,20
 135 65 135 65 252 65 c 0,21,22
 313 65 313 65 349 101.5 c 128,-1,23
 385 138 385 138 394 200 c 1,24,-1
 484 200 l 1,25,26
 470 99 470 99 407 44.5 c 128,-1,27
 344 -10 344 -10 243 -10 c 2,28,-1
 235 -10 l 2,29,30
 147 -10 147 -10 94.5 43 c 128,-1,31
 42 96 42 96 42 191 c 0,0,1
107 -175 m 1,32,-1
 123 -126 l 1,33,34
 159 -146 159 -146 193.5 -146 c 0,35,36
 265 -146 265 -146 265 -95 c 0,37,38
 265 -60 265 -60 219 -60 c 2,39,-1
 198 -60 l 1,40,-1
 204 -17 l 1,41,-1
 228 -17 l 2,42,43
 328 -17 328 -17 328 -90 c 0,44,45
 328 -130 328 -130 304 -155.5 c 0,46,47
 264.941176471 -197 264.941176471 -197 204.470588235 -197 c 128,-1,48
 144 -197 144 -197 107 -175 c 1,32,-1
EndSplineSet
EndChar

StartChar: egrave
Encoding: 232 232 170
Width: 556
Flags: MW
HStem: -10 75<212 242 242 246> -10 200<181.5 488 242 488> 234 73<150 412 150 494 137 412> 446 75<314 321 321 337.5> 700 20G<193 282 282 282>
VStem: 41 94<162.5 207.5 162.5 279.5> 415 92<339 344 327 377>
LayerCount: 2
Fore
SplineSet
95.5 43 m 128,-1,1
 41 96 41 96 41 189 c 128,-1,2
 41 282 41 282 70 355 c 128,-1,3
 99 428 99 428 162 474.5 c 128,-1,4
 225 521 225 521 314 521 c 2,5,-1
 321 521 l 2,6,7
 406 521 406 521 456.5 474 c 128,-1,8
 507 427 507 427 507 344 c 2,9,-1
 507 333 l 2,10,11
 507 312 507 312 494 234 c 1,12,-1
 137 234 l 1,13,14
 135 212 135 212 135 202 c 0,15,16
 135 65 135 65 256 65 c 0,17,18
 295 65 295 65 324.5 79 c 128,-1,19
 354 93 354 93 368.5 116 c 0,20,21
 393.1953125 155.171875 393.1953125 155.171875 399 190 c 1,22,-1
 488 190 l 1,23,24
 475 96 475 96 411.5 43 c 128,-1,25
 348 -10 348 -10 246 -10 c 2,26,-1
 242 -10 l 2,27,0
 150 -10 150 -10 95.5 43 c 128,-1,1
150 307 m 1,28,-1
 412 307 l 1,29,30
 415 327 415 327 415 343 c 0,31,32
 415 393 415 393 385 419.5 c 128,-1,33
 355 446 355 446 301.5 446 c 128,-1,34
 248 446 248 446 207.5 411 c 128,-1,35
 167 376 167 376 150 307 c 1,28,-1
286 575 m 1,36,-1
 191 717 l 1,37,-1
 193 720 l 1,38,-1
 282 720 l 1,39,-1
 356 575 l 1,40,-1
 286 575 l 1,36,-1
EndSplineSet
EndChar

StartChar: eacute
Encoding: 233 233 171
Width: 556
Flags: MW
HStem: -10 75<212 242 242 246> -10 200<181.5 488 242 488> 234 73<150 412 150 494 137 412> 446 75<314 321 321 337.5> 700 20G<390 480 480 480>
VStem: 41 94<162.5 207.5 162.5 279.5> 415 92<339 344 327 377>
LayerCount: 2
Fore
SplineSet
95.5 43 m 128,-1,1
 41 96 41 96 41 189 c 128,-1,2
 41 282 41 282 70 355 c 128,-1,3
 99 428 99 428 162 474.5 c 128,-1,4
 225 521 225 521 314 521 c 2,5,-1
 321 521 l 2,6,7
 406 521 406 521 456.5 474 c 128,-1,8
 507 427 507 427 507 344 c 2,9,-1
 507 333 l 2,10,11
 507 312 507 312 494 234 c 1,12,-1
 137 234 l 1,13,14
 135 212 135 212 135 202 c 0,15,16
 135 65 135 65 256 65 c 0,17,18
 295 65 295 65 324.5 79 c 128,-1,19
 354 93 354 93 368.5 116 c 0,20,21
 393.1953125 155.171875 393.1953125 155.171875 399 190 c 1,22,-1
 488 190 l 1,23,24
 475 96 475 96 411.5 43 c 128,-1,25
 348 -10 348 -10 246 -10 c 2,26,-1
 242 -10 l 2,27,0
 150 -10 150 -10 95.5 43 c 128,-1,1
150 307 m 1,28,-1
 412 307 l 1,29,30
 415 327 415 327 415 343 c 0,31,32
 415 393 415 393 385 419.5 c 128,-1,33
 355 446 355 446 301.5 446 c 128,-1,34
 248 446 248 446 207.5 411 c 128,-1,35
 167 376 167 376 150 307 c 1,28,-1
344 575 m 1,36,-1
 275 575 l 1,37,-1
 390 720 l 1,38,-1
 480 720 l 1,39,-1
 480 716 l 1,40,-1
 344 575 l 1,36,-1
EndSplineSet
EndChar

StartChar: ecircumflex
Encoding: 234 234 172
Width: 556
Flags: MW
HStem: -10 75<212 242 242 246> -10 200<181.5 488 242 488> 234 73<150 412 150 494 137 412> 446 75<314 321 321 337.5> 700 20G<299 377 377 377>
VStem: 41 94<162.5 207.5 162.5 279.5> 415 92<339 344 327 377>
LayerCount: 2
Fore
SplineSet
95.5 43 m 128,-1,1
 41 96 41 96 41 189 c 128,-1,2
 41 282 41 282 70 355 c 128,-1,3
 99 428 99 428 162 474.5 c 128,-1,4
 225 521 225 521 314 521 c 2,5,-1
 321 521 l 2,6,7
 406 521 406 521 456.5 474 c 128,-1,8
 507 427 507 427 507 344 c 2,9,-1
 507 333 l 2,10,11
 507 312 507 312 494 234 c 1,12,-1
 137 234 l 1,13,14
 135 212 135 212 135 202 c 0,15,16
 135 65 135 65 256 65 c 0,17,18
 295 65 295 65 324.5 79 c 128,-1,19
 354 93 354 93 368.5 116 c 0,20,21
 393.1953125 155.171875 393.1953125 155.171875 399 190 c 1,22,-1
 488 190 l 1,23,24
 475 96 475 96 411.5 43 c 128,-1,25
 348 -10 348 -10 246 -10 c 2,26,-1
 242 -10 l 2,27,0
 150 -10 150 -10 95.5 43 c 128,-1,1
222 575 m 1,28,-1
 142 575 l 1,29,-1
 299 720 l 1,30,-1
 377 720 l 1,31,-1
 491 575 l 1,32,-1
 411 575 l 1,33,-1
 330 664 l 1,34,-1
 222 575 l 1,28,-1
150 307 m 1,35,-1
 412 307 l 1,36,37
 415 327 415 327 415 343 c 0,38,39
 415 393 415 393 385 419.5 c 128,-1,40
 355 446 355 446 301.5 446 c 128,-1,41
 248 446 248 446 207.5 411 c 128,-1,42
 167 376 167 376 150 307 c 1,35,-1
EndSplineSet
EndChar

StartChar: edieresis
Encoding: 235 235 173
Width: 556
Flags: MW
HStem: -10 75<212 242 242 246> -10 200<181.5 488 242 488> 234 73<150 412 150 494 137 412> 446 75<314 321 321 337.5> 622 98<196 273 183 286 196 371 384 462>
VStem: 41 94<162.5 207.5 162.5 279.5> 415 92<339 344 327 377>
LayerCount: 2
Fore
SplineSet
95.5 43 m 128,-1,1
 41 96 41 96 41 189 c 128,-1,2
 41 282 41 282 70 355 c 128,-1,3
 99 428 99 428 162 474.5 c 128,-1,4
 225 521 225 521 314 521 c 2,5,-1
 321 521 l 2,6,7
 406 521 406 521 456.5 474 c 128,-1,8
 507 427 507 427 507 344 c 2,9,-1
 507 333 l 2,10,11
 507 312 507 312 494 234 c 1,12,-1
 137 234 l 1,13,14
 135 212 135 212 135 202 c 0,15,16
 135 65 135 65 256 65 c 0,17,18
 295 65 295 65 324.5 79 c 128,-1,19
 354 93 354 93 368.5 116 c 0,20,21
 393.1953125 155.171875 393.1953125 155.171875 399 190 c 1,22,-1
 488 190 l 1,23,24
 475 96 475 96 411.5 43 c 128,-1,25
 348 -10 348 -10 246 -10 c 2,26,-1
 242 -10 l 2,27,0
 150 -10 150 -10 95.5 43 c 128,-1,1
150 307 m 1,28,-1
 412 307 l 1,29,30
 415 327 415 327 415 343 c 0,31,32
 415 393 415 393 385 419.5 c 128,-1,33
 355 446 355 446 301.5 446 c 128,-1,34
 248 446 248 446 207.5 411 c 128,-1,35
 167 376 167 376 150 307 c 1,28,-1
273 622 m 1,36,-1
 183 622 l 1,37,-1
 196 720 l 1,38,-1
 286 720 l 1,39,-1
 273 622 l 1,36,-1
462 622 m 1,40,-1
 371 622 l 1,41,-1
 384 720 l 1,42,-1
 475 720 l 1,43,-1
 462 622 l 1,40,-1
EndSplineSet
EndChar

StartChar: igrave
Encoding: 236 236 174
Width: 261
Flags: MW
HStem: 0 21G<43 137 43 43> 491 20G<114 208 208 208> 700 20G<37 126 126 126>
LayerCount: 2
Fore
SplineSet
130 575 m 1,0,-1
 35 717 l 1,1,-1
 37 720 l 1,2,-1
 126 720 l 1,3,-1
 200 575 l 1,4,-1
 130 575 l 1,0,-1
137 0 m 1,5,-1
 43 0 l 1,6,-1
 114 511 l 1,7,-1
 208 511 l 1,8,-1
 137 0 l 1,5,-1
EndSplineSet
EndChar

StartChar: iacute
Encoding: 237 237 175
Width: 261
Flags: MW
HStem: 0 21G<43 137 43 43> 491 20G<114 208 208 208> 700 20G<232 322 322 322>
LayerCount: 2
Fore
SplineSet
137 0 m 1,0,-1
 43 0 l 1,1,-1
 114 511 l 1,2,-1
 208 511 l 1,3,-1
 137 0 l 1,0,-1
186 575 m 1,4,-1
 117 575 l 1,5,-1
 232 720 l 1,6,-1
 322 720 l 1,7,-1
 322 716 l 1,8,-1
 186 575 l 1,4,-1
EndSplineSet
EndChar

StartChar: icircumflex
Encoding: 238 238 176
Width: 261
Flags: MW
HStem: 0 21G<43 137 43 43> 491 20G<114 208 208 208> 700 20G<147 225 225 225>
LayerCount: 2
Fore
SplineSet
70 575 m 1,0,-1
 -10 575 l 1,1,-1
 147 720 l 1,2,-1
 225 720 l 1,3,-1
 339 575 l 1,4,-1
 259 575 l 1,5,-1
 178 664 l 1,6,-1
 70 575 l 1,0,-1
137 0 m 1,7,-1
 43 0 l 1,8,-1
 114 511 l 1,9,-1
 208 511 l 1,10,-1
 137 0 l 1,7,-1
EndSplineSet
EndChar

StartChar: idieresis
Encoding: 239 239 177
Width: 261
Flags: MW
HStem: 0 21G<43 137 43 43> 491 20G<114 208 208 208> 621 98<46 123 33 136 46 221 234 312>
LayerCount: 2
Fore
SplineSet
123 621 m 1,0,-1
 33 621 l 1,1,-1
 46 719 l 1,2,-1
 136 719 l 1,3,-1
 123 621 l 1,0,-1
137 0 m 1,4,-1
 43 0 l 1,5,-1
 114 511 l 1,6,-1
 208 511 l 1,7,-1
 137 0 l 1,4,-1
312 621 m 1,8,-1
 221 621 l 1,9,-1
 234 719 l 1,10,-1
 325 719 l 1,11,-1
 312 621 l 1,8,-1
EndSplineSet
EndChar

StartChar: eth
Encoding: 240 240 178
Width: 576
Flags: MW
HStem: -10 75<221 317 221 342> 446 75<245 324 221 343> 709 20G
VStem: 40 96<150.5 254 150.5 270> 427 95<253 359>
LayerCount: 2
Fore
SplineSet
171 700 m 1,0,-1
 234 729 l 1,1,2
 283 701 283 701 322 673 c 1,3,-1
 422 717 l 1,4,5
 425 712 425 712 435 701 c 128,-1,6
 445 690 445 690 449 683 c 1,7,-1
 356 643 l 1,8,9
 522 492 522 492 522 322 c 0,10,11
 522 171 522 171 453 80.5 c 128,-1,12
 384 -10 384 -10 245 -10 c 0,13,14
 153 -10 153 -10 96.5 40.5 c 128,-1,15
 40 91 40 91 40 188 c 0,16,17
 40 317.753846154 40 317.753846154 105.5 415.5 c 0,18,19
 138 464 138 464 193 492.5 c 128,-1,20
 248 521 248 521 319 521 c 0,21,22
 334 521 334 521 351 518 c 1,23,24
 319 565 319 565 280 605 c 1,25,26
 271 600.5 271 600.5 183 562 c 1,27,-1
 152 595 l 1,28,-1
 252 639 l 1,29,30
 235 655 235 655 204 677 c 128,-1,31
 173 699 173 699 171 700 c 1,0,-1
151.5 312.5 m 128,-1,33
 136 259 136 259 136 194.5 c 128,-1,34
 136 130 136 130 168.5 97.5 c 128,-1,35
 201 65 201 65 257.5 65 c 128,-1,36
 314 65 314 65 354 103.5 c 0,37,38
 427 173.7625 427 173.7625 427 311 c 0,39,40
 427 380 427 380 395 413 c 128,-1,41
 363 446 363 446 306 446 c 128,-1,42
 249 446 249 446 208 406 c 128,-1,32
 167 366 167 366 151.5 312.5 c 128,-1,33
EndSplineSet
EndChar

StartChar: ntilde
Encoding: 241 241 179
Width: 593
Flags: MW
HStem: 0 21G<42 136 42 42 380 380 380 474> 446 75<335.5 363> 491 20G<114 184 184 184> 616 69<416.5 458 416.5 465> 650 70<247 289>
VStem: 184 244<348 511 348 436> 428 97<372 388>
LayerCount: 2
Fore
SplineSet
136 0 m 1,0,-1
 42 0 l 1,1,-1
 114 511 l 1,2,-1
 184 511 l 1,3,-1
 184 436 l 1,4,5
 262 521 262 521 367 521 c 0,6,7
 439 521 439 521 482 486 c 128,-1,8
 525 451 525 451 525 380 c 0,9,10
 525 358 525 358 499 178 c 2,11,-1
 474 0 l 1,12,-1
 380 0 l 1,13,-1
 404 167 l 1,14,15
 428 355 428 355 428 356 c 0,16,17
 428 446 428 446 335 446 c 0,18,19
 281 446 281 446 234 404.5 c 128,-1,20
 187 363 187 363 179 304 c 2,21,-1
 136 0 l 1,0,-1
202 616 m 1,22,-1
 154 616 l 1,23,24
 161 656 161 656 194 688 c 128,-1,25
 227 720 227 720 280 720 c 0,26,27
 313 720 313 720 365.5 702.5 c 128,-1,28
 418 685 418 685 443 685 c 0,29,30
 488 685 488 685 503 720 c 1,31,-1
 553 720 l 1,32,33
 546 679 546 679 513 647.5 c 128,-1,34
 480 616 480 616 426 616 c 0,35,36
 393 616 393 616 340.5 633 c 128,-1,37
 288 650 288 650 262 650 c 0,38,39
 217 650 217 650 202 616 c 1,22,-1
EndSplineSet
EndChar

StartChar: ograve
Encoding: 242 242 180
Width: 576
Flags: MW
HStem: -10 75<222 321.5 222 350.5> 446 75<241 343> 700 20G<203 292 292 292>
VStem: 41 95<152.5 254.5 152.5 269> 428 96<255.5 358>
LayerCount: 2
Fore
SplineSet
41 187 m 0,0,1
 41 320.161290323 41 320.161290323 101 415 c 0,2,3
 132 464 132 464 188 492.5 c 128,-1,4
 244 521 244 521 327.5 521 c 128,-1,5
 411 521 411 521 467.5 470.5 c 128,-1,6
 524 420 524 420 524 324 c 0,7,8
 524 190.838709677 524 190.838709677 464 96 c 0,9,10
 433 47 433 47 377 18.5 c 128,-1,11
 321 -10 321 -10 237.5 -10 c 128,-1,12
 154 -10 154 -10 97.5 40.5 c 128,-1,13
 41 91 41 91 41 187 c 0,0,1
169 98.5 m 128,-1,15
 202 65 202 65 252.5 65 c 128,-1,16
 303 65 303 65 338 87.5 c 128,-1,17
 373 110 373 110 391.5 147 c 0,18,19
 428 220 428 220 428 299.5 c 128,-1,20
 428 379 428 379 395.5 412.5 c 128,-1,21
 363 446 363 446 311.5 446 c 128,-1,22
 260 446 260 446 225 423.5 c 128,-1,23
 190 401 190 401 171.5 363 c 0,24,25
 136 290.081081081 136 290.081081081 136 211.040540541 c 128,-1,14
 136 132 136 132 169 98.5 c 128,-1,15
296 575 m 1,26,-1
 201 717 l 1,27,-1
 203 720 l 1,28,-1
 292 720 l 1,29,-1
 366 575 l 1,30,-1
 296 575 l 1,26,-1
EndSplineSet
EndChar

StartChar: oacute
Encoding: 243 243 181
Width: 576
Flags: MW
HStem: -10 75<222 321.5 222 350.5> 446 75<241 343> 700 20G<409 499 499 499>
VStem: 41 95<152.5 254.5 152.5 269> 428 96<255.5 358>
LayerCount: 2
Fore
SplineSet
41 187 m 0,0,1
 41 320.161290323 41 320.161290323 101 415 c 0,2,3
 132 464 132 464 188 492.5 c 128,-1,4
 244 521 244 521 327.5 521 c 128,-1,5
 411 521 411 521 467.5 470.5 c 128,-1,6
 524 420 524 420 524 324 c 0,7,8
 524 190.838709677 524 190.838709677 464 96 c 0,9,10
 433 47 433 47 377 18.5 c 128,-1,11
 321 -10 321 -10 237.5 -10 c 128,-1,12
 154 -10 154 -10 97.5 40.5 c 128,-1,13
 41 91 41 91 41 187 c 0,0,1
169 98.5 m 128,-1,15
 202 65 202 65 252.5 65 c 128,-1,16
 303 65 303 65 338 87.5 c 128,-1,17
 373 110 373 110 391.5 147 c 0,18,19
 428 220 428 220 428 299.5 c 128,-1,20
 428 379 428 379 395.5 412.5 c 128,-1,21
 363 446 363 446 311.5 446 c 128,-1,22
 260 446 260 446 225 423.5 c 128,-1,23
 190 401 190 401 171.5 363 c 0,24,25
 136 290.081081081 136 290.081081081 136 211.040540541 c 128,-1,14
 136 132 136 132 169 98.5 c 128,-1,15
363 575 m 1,26,-1
 294 575 l 1,27,-1
 409 720 l 1,28,-1
 499 720 l 1,29,-1
 499 716 l 1,30,-1
 363 575 l 1,26,-1
EndSplineSet
EndChar

StartChar: ocircumflex
Encoding: 244 244 182
Width: 576
Flags: MW
HStem: -10 75<222 321.5 222 350.5> 446 75<241 343> 700 20G<318 396 396 396>
VStem: 41 95<152.5 254.5 152.5 269> 428 96<255.5 358>
LayerCount: 2
Fore
SplineSet
41 187 m 0,0,1
 41 320.161290323 41 320.161290323 101 415 c 0,2,3
 132 464 132 464 188 492.5 c 128,-1,4
 244 521 244 521 327.5 521 c 128,-1,5
 411 521 411 521 467.5 470.5 c 128,-1,6
 524 420 524 420 524 324 c 0,7,8
 524 190.838709677 524 190.838709677 464 96 c 0,9,10
 433 47 433 47 377 18.5 c 128,-1,11
 321 -10 321 -10 237.5 -10 c 128,-1,12
 154 -10 154 -10 97.5 40.5 c 128,-1,13
 41 91 41 91 41 187 c 0,0,1
169 98.5 m 128,-1,15
 202 65 202 65 252.5 65 c 128,-1,16
 303 65 303 65 338 87.5 c 128,-1,17
 373 110 373 110 391.5 147 c 0,18,19
 428 220 428 220 428 299.5 c 128,-1,20
 428 379 428 379 395.5 412.5 c 128,-1,21
 363 446 363 446 311.5 446 c 128,-1,22
 260 446 260 446 225 423.5 c 128,-1,23
 190 401 190 401 171.5 363 c 0,24,25
 136 290.081081081 136 290.081081081 136 211.040540541 c 128,-1,14
 136 132 136 132 169 98.5 c 128,-1,15
241 575 m 1,26,-1
 161 575 l 1,27,-1
 318 720 l 1,28,-1
 396 720 l 1,29,-1
 510 575 l 1,30,-1
 430 575 l 1,31,-1
 349 664 l 1,32,-1
 241 575 l 1,26,-1
EndSplineSet
EndChar

StartChar: otilde
Encoding: 245 245 183
Width: 576
Flags: MW
HStem: -10 75<222 321.5 222 350.5> 446 75<241 343> 615 69<395.5 437 395.5 444> 649 70<226 268>
VStem: 41 95<152.5 254.5 152.5 269> 428 96<255.5 358>
LayerCount: 2
Fore
SplineSet
41 187 m 0,0,1
 41 320.161290323 41 320.161290323 101 415 c 0,2,3
 132 464 132 464 188 492.5 c 128,-1,4
 244 521 244 521 327.5 521 c 128,-1,5
 411 521 411 521 467.5 470.5 c 128,-1,6
 524 420 524 420 524 324 c 0,7,8
 524 190.838709677 524 190.838709677 464 96 c 0,9,10
 433 47 433 47 377 18.5 c 128,-1,11
 321 -10 321 -10 237.5 -10 c 128,-1,12
 154 -10 154 -10 97.5 40.5 c 128,-1,13
 41 91 41 91 41 187 c 0,0,1
181 615 m 1,14,-1
 133 615 l 1,15,16
 140 655 140 655 173 687 c 128,-1,17
 206 719 206 719 259 719 c 0,18,19
 292 719 292 719 344.5 701.5 c 128,-1,20
 397 684 397 684 422 684 c 0,21,22
 467 684 467 684 482 719 c 1,23,-1
 532 719 l 1,24,25
 525 678 525 678 492 646.5 c 128,-1,26
 459 615 459 615 405 615 c 0,27,28
 372 615 372 615 319.5 632 c 128,-1,29
 267 649 267 649 241 649 c 0,30,31
 196 649 196 649 181 615 c 1,14,-1
169 98.5 m 128,-1,33
 202 65 202 65 252.5 65 c 128,-1,34
 303 65 303 65 338 87.5 c 128,-1,35
 373 110 373 110 391.5 147 c 0,36,37
 428 220 428 220 428 299.5 c 128,-1,38
 428 379 428 379 395.5 412.5 c 128,-1,39
 363 446 363 446 311.5 446 c 128,-1,40
 260 446 260 446 225 423.5 c 128,-1,41
 190 401 190 401 171.5 363 c 0,42,43
 136 290.081081081 136 290.081081081 136 211.040540541 c 128,-1,32
 136 132 136 132 169 98.5 c 128,-1,33
EndSplineSet
EndChar

StartChar: odieresis
Encoding: 246 246 184
Width: 576
Flags: MW
HStem: -10 75<222 321.5 222 350.5> 446 75<241 343> 621 98<205 282 192 295 205 380 393 471>
VStem: 41 95<152.5 254.5 152.5 269> 428 96<255.5 358>
LayerCount: 2
Fore
SplineSet
41 187 m 0,0,1
 41 320.161290323 41 320.161290323 101 415 c 0,2,3
 132 464 132 464 188 492.5 c 128,-1,4
 244 521 244 521 327.5 521 c 128,-1,5
 411 521 411 521 467.5 470.5 c 128,-1,6
 524 420 524 420 524 324 c 0,7,8
 524 190.838709677 524 190.838709677 464 96 c 0,9,10
 433 47 433 47 377 18.5 c 128,-1,11
 321 -10 321 -10 237.5 -10 c 128,-1,12
 154 -10 154 -10 97.5 40.5 c 128,-1,13
 41 91 41 91 41 187 c 0,0,1
169 98.5 m 128,-1,15
 202 65 202 65 252.5 65 c 128,-1,16
 303 65 303 65 338 87.5 c 128,-1,17
 373 110 373 110 391.5 147 c 0,18,19
 428 220 428 220 428 299.5 c 128,-1,20
 428 379 428 379 395.5 412.5 c 128,-1,21
 363 446 363 446 311.5 446 c 128,-1,22
 260 446 260 446 225 423.5 c 128,-1,23
 190 401 190 401 171.5 363 c 0,24,25
 136 290.081081081 136 290.081081081 136 211.040540541 c 128,-1,14
 136 132 136 132 169 98.5 c 128,-1,15
282 621 m 1,26,-1
 192 621 l 1,27,-1
 205 719 l 1,28,-1
 295 719 l 1,29,-1
 282 621 l 1,26,-1
471 621 m 1,30,-1
 380 621 l 1,31,-1
 393 719 l 1,32,-1
 484 719 l 1,33,-1
 471 621 l 1,30,-1
EndSplineSet
EndChar

StartChar: divide
Encoding: 247 247 185
Width: 615
Flags: MW
HStem: 51 90<245 316 233 328> 213 84<52 553 41 564> 369 91<290 360 277 373>
LayerCount: 2
Fore
SplineSet
553 213 m 1,0,-1
 41 213 l 1,1,-1
 52 297 l 1,2,-1
 564 297 l 1,3,-1
 553 213 l 1,0,-1
316 51 m 1,4,-1
 233 51 l 1,5,-1
 245 141 l 1,6,-1
 328 141 l 1,7,-1
 316 51 l 1,4,-1
360 369 m 1,8,-1
 277 369 l 1,9,-1
 290 460 l 1,10,-1
 373 460 l 1,11,-1
 360 369 l 1,8,-1
EndSplineSet
EndChar

StartChar: oslash
Encoding: 248 248 186
Width: 576
Flags: MW
HStem: -55 21G<15 74 15 15> -10 75<240.5 321.5 240.5 350.5> 446 75<240.5 323> 548 20G<491 550 550 550>
VStem: 41 95<184.5 200 184.5 269> 428 96<255.5 325.5>
LayerCount: 2
Fore
SplineSet
74 -55 m 1,0,-1
 15 -55 l 1,1,-1
 92 45 l 1,2,3
 41 98 41 98 41 187 c 0,4,5
 41 320.161290323 41 320.161290323 101 415 c 0,6,7
 132 464 132 464 188 492.5 c 128,-1,8
 244 521 244 521 315 521 c 128,-1,9
 386 521 386 521 434 494 c 1,10,-1
 491 568 l 1,11,-1
 550 568 l 1,12,-1
 472 466 l 1,13,14
 524 412 524 412 524 324 c 0,15,16
 524 190.838709677 524 190.838709677 464 96 c 0,17,18
 433 47 433 47 377 18.5 c 128,-1,19
 321 -10 321 -10 249 -10 c 128,-1,20
 177 -10 177 -10 129 17 c 1,21,-1
 74 -55 l 1,0,-1
136 200 m 1,22,23
 136 153 136 153 151 123 c 1,24,-1
 381 425 l 1,25,26
 351 446 351 446 310.5 446 c 128,-1,27
 270 446 270 446 239.5 430.5 c 128,-1,28
 209 415 209 415 191 391.5 c 128,-1,29
 173 368 173 368 161 333 c 0,30,31
 142.380530973 278.693215339 142.380530973 278.693215339 136 200 c 1,22,23
412 388 m 1,32,-1
 182 86 l 1,33,34
 211 65 211 65 257 65 c 128,-1,35
 303 65 303 65 338 87.5 c 128,-1,36
 373 110 373 110 391.5 147 c 0,37,38
 428 220 428 220 428 310 c 0,39,40
 428 357 428 357 412 388 c 1,32,-1
EndSplineSet
EndChar

StartChar: ugrave
Encoding: 249 249 187
Width: 617
Flags: MW
HStem: -10 75<220 253.5> 491 20G<109 203 203 203 447 541 541 541> 700 20G<205 294 294 294>
VStem: 58 97<122.5 138> 155 236<64 163.5>
LayerCount: 2
Fore
SplineSet
58 131 m 0,0,1
 58 162.052631579 58 162.052631579 109 511 c 1,2,-1
 203 511 l 1,3,-1
 179 346 l 1,4,5
 155 189 155 189 155 155 c 0,6,7
 155 65 155 65 248 65 c 0,8,9
 301 65 301 65 347.5 106.5 c 128,-1,10
 394 148 394 148 404 207 c 1,11,-1
 447 511 l 1,12,-1
 541 511 l 1,13,-1
 511 304 l 1,14,15
 482 116 482 116 482 90.5 c 128,-1,16
 482 65 482 65 506.5 65 c 128,-1,17
 531 65 531 65 553 79 c 1,18,-1
 544 10 l 1,19,20
 512 -10 512 -10 467 -10 c 0,21,22
 391 -10 391 -10 391 64 c 2,23,-1
 391 74 l 1,24,25
 360 39 360 39 314 14.5 c 128,-1,26
 268 -10 268 -10 206 -10 c 128,-1,27
 144 -10 144 -10 101 25 c 128,-1,28
 58 60 58 60 58 131 c 0,0,1
298 575 m 1,29,-1
 203 717 l 1,30,-1
 205 720 l 1,31,-1
 294 720 l 1,32,-1
 368 575 l 1,33,-1
 298 575 l 1,29,-1
EndSplineSet
EndChar

StartChar: uacute
Encoding: 250 250 188
Width: 617
Flags: MW
HStem: -10 75<220 253.5> 491 20G<109 203 203 203 447 541 541 541> 700 20G<407 497 497 497>
VStem: 58 97<122.5 138> 155 236<64 163.5>
LayerCount: 2
Fore
SplineSet
58 131 m 0,0,1
 58 162.052631579 58 162.052631579 109 511 c 1,2,-1
 203 511 l 1,3,-1
 179 346 l 1,4,5
 155 189 155 189 155 155 c 0,6,7
 155 65 155 65 248 65 c 0,8,9
 301 65 301 65 347.5 106.5 c 128,-1,10
 394 148 394 148 404 207 c 1,11,-1
 447 511 l 1,12,-1
 541 511 l 1,13,-1
 511 304 l 1,14,15
 482 116 482 116 482 90.5 c 128,-1,16
 482 65 482 65 506.5 65 c 128,-1,17
 531 65 531 65 553 79 c 1,18,-1
 544 10 l 1,19,20
 512 -10 512 -10 467 -10 c 0,21,22
 391 -10 391 -10 391 64 c 2,23,-1
 391 74 l 1,24,25
 360 39 360 39 314 14.5 c 128,-1,26
 268 -10 268 -10 206 -10 c 128,-1,27
 144 -10 144 -10 101 25 c 128,-1,28
 58 60 58 60 58 131 c 0,0,1
361 575 m 1,29,-1
 292 575 l 1,30,-1
 407 720 l 1,31,-1
 497 720 l 1,32,-1
 497 716 l 1,33,-1
 361 575 l 1,29,-1
EndSplineSet
EndChar

StartChar: ucircumflex
Encoding: 251 251 189
Width: 617
Flags: MW
HStem: -10 75<220 253.5> 491 20G<109 203 203 203 447 541 541 541> 700 20G<315 393 393 393>
VStem: 58 97<122.5 138> 155 236<64 163.5>
LayerCount: 2
Fore
SplineSet
58 131 m 0,0,1
 58 162.052631579 58 162.052631579 109 511 c 1,2,-1
 203 511 l 1,3,-1
 179 346 l 1,4,5
 155 189 155 189 155 155 c 0,6,7
 155 65 155 65 248 65 c 0,8,9
 301 65 301 65 347.5 106.5 c 128,-1,10
 394 148 394 148 404 207 c 1,11,-1
 447 511 l 1,12,-1
 541 511 l 1,13,-1
 511 304 l 1,14,15
 482 116 482 116 482 90.5 c 128,-1,16
 482 65 482 65 506.5 65 c 128,-1,17
 531 65 531 65 553 79 c 1,18,-1
 544 10 l 1,19,20
 512 -10 512 -10 467 -10 c 0,21,22
 391 -10 391 -10 391 64 c 2,23,-1
 391 74 l 1,24,25
 360 39 360 39 314 14.5 c 128,-1,26
 268 -10 268 -10 206 -10 c 128,-1,27
 144 -10 144 -10 101 25 c 128,-1,28
 58 60 58 60 58 131 c 0,0,1
238 575 m 1,29,-1
 158 575 l 1,30,-1
 315 720 l 1,31,-1
 393 720 l 1,32,-1
 507 575 l 1,33,-1
 427 575 l 1,34,-1
 346 664 l 1,35,-1
 238 575 l 1,29,-1
EndSplineSet
EndChar

StartChar: udieresis
Encoding: 252 252 190
Width: 617
Flags: MW
HStem: -10 75<220 253.5> 491 20G<109 203 203 203 447 541 541 541> 622 98<208 285 195 298 208 383 396 474>
VStem: 58 97<122.5 138> 155 236<64 163.5>
LayerCount: 2
Fore
SplineSet
58 131 m 0,0,1
 58 162.052631579 58 162.052631579 109 511 c 1,2,-1
 203 511 l 1,3,-1
 179 346 l 1,4,5
 155 189 155 189 155 155 c 0,6,7
 155 65 155 65 248 65 c 0,8,9
 301 65 301 65 347.5 106.5 c 128,-1,10
 394 148 394 148 404 207 c 1,11,-1
 447 511 l 1,12,-1
 541 511 l 1,13,-1
 511 304 l 1,14,15
 482 116 482 116 482 90.5 c 128,-1,16
 482 65 482 65 506.5 65 c 128,-1,17
 531 65 531 65 553 79 c 1,18,-1
 544 10 l 1,19,20
 512 -10 512 -10 467 -10 c 0,21,22
 391 -10 391 -10 391 64 c 2,23,-1
 391 74 l 1,24,25
 360 39 360 39 314 14.5 c 128,-1,26
 268 -10 268 -10 206 -10 c 128,-1,27
 144 -10 144 -10 101 25 c 128,-1,28
 58 60 58 60 58 131 c 0,0,1
285 622 m 1,29,-1
 195 622 l 1,30,-1
 208 720 l 1,31,-1
 298 720 l 1,32,-1
 285 622 l 1,29,-1
474 622 m 1,33,-1
 383 622 l 1,34,-1
 396 720 l 1,35,-1
 487 720 l 1,36,-1
 474 622 l 1,33,-1
EndSplineSet
EndChar

StartChar: yacute
Encoding: 253 253 191
Width: 510
Flags: MW
HStem: -186 77<38.5 61 38.5 98.5> 491 20G<42 141 141 141 437 529 529 529> 700 20G<369 459 459 459>
LayerCount: 2
Fore
SplineSet
-19 -172 m 1,0,-1
 -9 -95 l 1,1,2
 17 -109 17 -109 49 -109 c 0,3,4
 118 -109 118 -109 169 5 c 1,5,-1
 42 511 l 1,6,-1
 141 511 l 1,7,-1
 235 134 l 1,8,-1
 239 134 l 1,9,-1
 437 511 l 1,10,-1
 529 511 l 1,11,-1
 269 20 l 2,12,13
 217 -78 217 -78 166.5 -132 c 128,-1,14
 116 -186 116 -186 52 -186 c 0,15,16
 11 -186 11 -186 -19 -172 c 1,0,-1
323 575 m 1,17,-1
 254 575 l 1,18,-1
 369 720 l 1,19,-1
 459 720 l 1,20,-1
 459 716 l 1,21,-1
 323 575 l 1,17,-1
EndSplineSet
EndChar

StartChar: thorn
Encoding: 254 254 192
Width: 582
Flags: MW
HStem: -181 21G<17 111 17 17> -10 75<253 339> 446 75<325 361.5> 700 20G<144 238 238 238>
VStem: 438 93<263.5 365.5>
LayerCount: 2
Fore
SplineSet
111 -181 m 1,0,-1
 17 -181 l 1,1,-1
 144 720 l 1,2,-1
 238 720 l 1,3,-1
 201 455 l 1,4,5
 262 521 262 521 357 521 c 0,6,7
 435 521 435 521 483 470.5 c 128,-1,8
 531 420 531 420 531 320 c 0,9,10
 531 205.111111111 531 205.111111111 478 105 c 0,11,12
 451 54 451 54 402 22 c 128,-1,13
 353 -10 353 -10 289 -10 c 0,14,15
 187 -10 187 -10 146 65 c 1,16,-1
 111 -181 l 1,0,-1
167 193 m 0,17,18
 167 124 167 124 195 94.5 c 128,-1,19
 223 65 223 65 279 65 c 128,-1,20
 335 65 335 65 373.5 107.5 c 128,-1,21
 412 150 412 150 425 203 c 128,-1,22
 438 256 438 256 438 317 c 0,23,24
 438 446 438 446 329 446 c 0,25,26
 257 446 257 446 212 384 c 128,-1,27
 167 322 167 322 167 193 c 0,17,18
EndSplineSet
EndChar

StartChar: ydieresis
Encoding: 255 255 193
Width: 510
Flags: MW
HStem: -186 77<38.5 61 38.5 98.5> 491 20G<42 141 141 141 437 529 529 529> 621 98<170 247 157 260 170 345 358 436>
LayerCount: 2
Fore
SplineSet
-19 -172 m 1,0,-1
 -9 -95 l 1,1,2
 17 -109 17 -109 49 -109 c 0,3,4
 118 -109 118 -109 169 5 c 1,5,-1
 42 511 l 1,6,-1
 141 511 l 1,7,-1
 235 134 l 1,8,-1
 239 134 l 1,9,-1
 437 511 l 1,10,-1
 529 511 l 1,11,-1
 269 20 l 2,12,13
 217 -78 217 -78 166.5 -132 c 128,-1,14
 116 -186 116 -186 52 -186 c 0,15,16
 11 -186 11 -186 -19 -172 c 1,0,-1
247 621 m 1,17,-1
 157 621 l 1,18,-1
 170 719 l 1,19,-1
 260 719 l 1,20,-1
 247 621 l 1,17,-1
436 621 m 1,21,-1
 345 621 l 1,22,-1
 358 719 l 1,23,-1
 449 719 l 1,24,-1
 436 621 l 1,21,-1
EndSplineSet
EndChar

StartChar: dotlessi
Encoding: 305 305 194
Width: 261
Flags: MW
HStem: 0 21G<43 137 43 43> 491 20G<114 208 208 208>
LayerCount: 2
Fore
SplineSet
137 0 m 1,0,-1
 43 0 l 1,1,-1
 114 511 l 1,2,-1
 208 511 l 1,3,-1
 137 0 l 1,0,-1
EndSplineSet
EndChar

StartChar: Lslash
Encoding: 321 321 195
Width: 534
Flags: MW
HStem: 0 89<165 480 165 480> 666 20G<151 249 249 249>
LayerCount: 2
Fore
SplineSet
100 324 m 1,0,-1
 33 293 l 1,1,-1
 43 364 l 1,2,-1
 110 395 l 1,3,-1
 151 686 l 1,4,-1
 249 686 l 1,5,-1
 215 445 l 1,6,-1
 364 517 l 1,7,-1
 354 446 l 1,8,-1
 205 374 l 1,9,-1
 165 89 l 1,10,-1
 480 89 l 1,11,-1
 480 0 l 1,12,-1
 54 0 l 1,13,-1
 100 324 l 1,0,-1
EndSplineSet
EndChar

StartChar: lslash
Encoding: 322 322 196
Width: 297
Flags: MW
HStem: 0 21G<60 154 60 60> 700 20G<161 255 255 255>
LayerCount: 2
Fore
SplineSet
105 322 m 1,0,-1
 18 281 l 1,1,-1
 27 351 l 1,2,-1
 115 392 l 1,3,-1
 161 720 l 1,4,-1
 255 720 l 1,5,-1
 216 440 l 1,6,-1
 304 481 l 1,7,-1
 294 411 l 1,8,-1
 206 370 l 1,9,-1
 154 0 l 1,10,-1
 60 0 l 1,11,-1
 105 322 l 1,0,-1
EndSplineSet
EndChar

StartChar: OE
Encoding: 338 338 197
Width: 1031
Flags: MW
HStem: -10 99 0 21G<490 946 490 490> 306 89<644 938 631 951> 597 89<672 1011 672 672> 676 20G<318 438>
VStem: 57 99<185.5 249.5>
LayerCount: 2
Fore
SplineSet
57 235 m 0,0,1
 57 262 57 262 75 388 c 1,2,3
 95 539 95 539 183 617.5 c 128,-1,4
 271 696 271 696 393 696 c 0,5,6
 515 696 515 696 579 633 c 1,7,-1
 587 686 l 1,8,-1
 1037 686 l 1,9,-1
 1011 597 l 1,10,-1
 672 597 l 1,11,-1
 644 395 l 1,12,-1
 951 395 l 1,13,-1
 938 306 l 1,14,-1
 631 306 l 1,15,-1
 601 89 l 1,16,-1
 946 89 l 1,17,-1
 946 0 l 1,18,-1
 490 0 l 1,19,-1
 496 47 l 1,20,21
 419 -10 419 -10 306 -10 c 0,22,23
 193 -10 193 -10 125 53 c 128,-1,24
 57 116 57 116 57 235 c 0,0,1
156 244 m 0,25,26
 156 160 156 160 198 119.5 c 128,-1,27
 240 79 240 79 320 79 c 0,28,29
 400 79 400 79 457.5 132.5 c 128,-1,30
 515 186 515 186 532 299.5 c 0,31,32
 549 413 549 413 549 442 c 0,33,34
 549 526 549 526 506.5 566.5 c 128,-1,35
 464 607 464 607 383.5 607 c 0,36,37
 303 607 303 607 245.5 553.5 c 128,-1,38
 188 500 188 500 172 385.5 c 0,39,40
 156 271 156 271 156 244 c 0,25,26
EndSplineSet
EndChar

StartChar: oe
Encoding: 339 339 198
Width: 933
Flags: MW
HStem: -10 75<222 291.5 589 619 619 623> -10 200<579.5 865 619 865> 234 73<527 789 527 871 514 789> 446 75<240.5 343 691 698 698 714.5>
VStem: 41 95<152.5 200 152.5 269> 428 84<162.5 358> 792 92<339 344 327 377>
LayerCount: 2
Fore
SplineSet
41 187 m 0,0,1
 41 320.161290323 41 320.161290323 101 415 c 0,2,3
 132 464 132 464 188 492.5 c 128,-1,4
 244 521 244 521 320 521 c 0,5,6
 444 521 444 521 496 436 c 1,7,8
 570 521 570 521 691 521 c 2,9,-1
 698 521 l 2,10,11
 783 521 783 521 833.5 474 c 128,-1,12
 884 427 884 427 884 344 c 2,13,-1
 884 333 l 2,14,15
 884 312 884 312 871 234 c 1,16,-1
 514 234 l 1,17,18
 512 212 512 212 512 202 c 0,19,20
 512 65 512 65 633 65 c 0,21,22
 672 65 672 65 701.5 79 c 128,-1,23
 731 93 731 93 745.5 116 c 0,24,25
 770.1953125 155.171875 770.1953125 155.171875 776 190 c 1,26,-1
 865 190 l 1,27,28
 852 96 852 96 788.5 43 c 128,-1,29
 725 -10 725 -10 623 -10 c 2,30,-1
 619 -10 l 2,31,32
 498 -10 498 -10 448 75 c 1,33,34
 376 -10 376 -10 245 -10 c 0,35,36
 154 -10 154 -10 97.5 40.5 c 128,-1,37
 41 91 41 91 41 187 c 0,0,1
136 200 m 1,38,39
 136 132 136 132 169 98.5 c 128,-1,40
 202 65 202 65 252.5 65 c 128,-1,41
 303 65 303 65 338 87.5 c 128,-1,42
 373 110 373 110 391.5 147 c 0,43,44
 428 220 428 220 428 299.5 c 128,-1,45
 428 379 428 379 395.5 412.5 c 128,-1,46
 363 446 363 446 316.5 446 c 128,-1,47
 270 446 270 446 239.5 430.5 c 128,-1,48
 209 415 209 415 191 391.5 c 128,-1,49
 173 368 173 368 161 333 c 0,50,51
 142.380530973 278.693215339 142.380530973 278.693215339 136 200 c 1,38,39
527 307 m 1,52,-1
 789 307 l 1,53,54
 792 327 792 327 792 343 c 0,55,56
 792 393 792 393 762 419.5 c 128,-1,57
 732 446 732 446 678.5 446 c 128,-1,58
 625 446 625 446 584.5 411 c 128,-1,59
 544 376 544 376 527 307 c 1,52,-1
EndSplineSet
EndChar

StartChar: Scaron
Encoding: 352 352 199
Width: 629
Flags: MW
HStem: -10 89<236 334 236 355.5> -10 225<43 355.5> 492 204<293.5 584 293.5 486> 607 89<316 399> 875 20G<224 304 304 304 493 573 573 573>
VStem: 36 99<141.5 168.5> 97 38 97 100<430.5 539.5 430.5 566.5> 463 101<160.5 277.5> 490 74 490 98<530.5 548.5>
LayerCount: 2
Fore
SplineSet
36 160 m 0,0,1
 36 194 36 194 43 215 c 1,2,-1
 141 215 l 1,3,4
 135 209 135 209 135 175 c 0,5,6
 135 127 135 127 173.5 103 c 128,-1,7
 212 79 212 79 288 79 c 128,-1,8
 364 79 364 79 413.5 110.5 c 128,-1,9
 463 142 463 142 463 201 c 0,10,11
 463 228 463 228 447.5 248 c 128,-1,12
 432 268 432 268 406 278.5 c 128,-1,13
 380 289 380 289 347 299.5 c 128,-1,14
 314 310 314 310 280 318 c 128,-1,15
 246 326 246 326 213 340.5 c 128,-1,16
 180 355 180 355 154 373.5 c 0,17,18
 97 414.057692308 97 414.057692308 97 505.028846154 c 128,-1,19
 97 596 97 596 173 646 c 128,-1,20
 249 696 249 696 359 696 c 128,-1,21
 469 696 469 696 528.5 656.5 c 128,-1,22
 588 617 588 617 588 536 c 0,23,24
 588 515 588 515 584 492 c 1,25,-1
 486 492 l 1,26,27
 490 512 490 512 490 520 c 0,28,29
 490 562 490 562 455 584.5 c 128,-1,30
 420 607 420 607 354.5 607 c 128,-1,31
 289 607 289 607 243 581 c 128,-1,32
 197 555 197 555 197 509.5 c 128,-1,33
 197 464 197 464 235 440.5 c 128,-1,34
 273 417 273 417 327 404 c 128,-1,35
 381 391 381 391 434.5 374 c 128,-1,36
 488 357 488 357 526 316.5 c 128,-1,37
 564 276 564 276 564 211 c 0,38,39
 564 -10 564 -10 271 -10 c 0,40,41
 165 -10 165 -10 100.5 31 c 128,-1,42
 36 72 36 72 36 160 c 0,0,1
339 750 m 1,43,-1
 224 895 l 1,44,-1
 304 895 l 1,45,-1
 386 806 l 1,46,-1
 493 895 l 1,47,-1
 573 895 l 1,48,-1
 417 750 l 1,49,-1
 339 750 l 1,43,-1
EndSplineSet
EndChar

StartChar: scaron
Encoding: 353 353 200
Width: 536
Flags: MW
HStem: -10 75<205 211 211 226> -10 170<28 211 28 226> 364 157<302 483 302 390> 446 75<302 311 311 327.5> 700 20G<153 233 233 233 422 502 502 502>
VStem: 23 96<111.5 132.5> 69 50 69 97<320 384.5 320 406.5> 371 97<120 204> 392 76 392 95<392.5 399.5>
LayerCount: 2
Fore
SplineSet
391 372 m 2,0,-1
 392 383 l 1,1,2
 392 446 392 446 288 446 c 0,3,4
 220 446 220 446 193 422.5 c 128,-1,5
 166 399 166 399 166 371 c 128,-1,6
 166 343 166 343 197 328 c 128,-1,7
 228 313 228 313 272.5 305 c 128,-1,8
 317 297 317 297 361.5 286 c 128,-1,9
 406 275 406 275 437 245.5 c 128,-1,10
 468 216 468 216 468 168 c 0,11,12
 468 74 468 74 401.5 32 c 128,-1,13
 335 -10 335 -10 226 -10 c 2,14,-1
 211 -10 l 2,15,16
 118 -10 118 -10 70.5 27.5 c 128,-1,17
 23 65 23 65 23 121 c 0,18,19
 23 134 23 134 25.5 146.5 c 128,-1,20
 28 159 28 159 28 160 c 1,21,-1
 121 160 l 1,22,23
 119 146 119 146 119 144 c 2,24,-1
 119 137 l 2,25,26
 119 101 119 101 152 83 c 128,-1,27
 185 65 185 65 240.5 65 c 128,-1,28
 296 65 296 65 333.5 86.5 c 128,-1,29
 371 108 371 108 371 143 c 128,-1,30
 371 178 371 178 340 195 c 128,-1,31
 309 212 309 212 264.5 220 c 128,-1,32
 220 228 220 228 175.5 238.5 c 128,-1,33
 131 249 131 249 100 278 c 128,-1,34
 69 307 69 307 69 355 c 0,35,36
 69 433 69 433 130 477 c 128,-1,37
 191 521 191 521 302 521 c 2,38,-1
 311 521 l 2,39,40
 392 521 392 521 439.5 486 c 128,-1,41
 487 451 487 451 487 398 c 0,42,43
 487 376 487 376 483 364 c 1,44,-1
 390 364 l 1,45,46
 390 369 390 369 391 372 c 2,0,-1
268 575 m 1,47,-1
 153 720 l 1,48,-1
 233 720 l 1,49,-1
 315 631 l 1,50,-1
 422 720 l 1,51,-1
 502 720 l 1,52,-1
 346 575 l 1,53,-1
 268 575 l 1,47,-1
EndSplineSet
EndChar

StartChar: Ydieresis
Encoding: 376 376 201
Width: 570
Flags: MW
HStem: 0 21G<193 291 193 193> 666 20G<49 160 160 160 528 629 629 629> 749 98<226 303 213 316 226 401 414 492>
LayerCount: 2
Fore
SplineSet
231 265 m 1,0,-1
 49 686 l 1,1,-1
 160 686 l 1,2,-1
 298 367 l 1,3,-1
 302 367 l 1,4,-1
 528 686 l 1,5,-1
 629 686 l 1,6,-1
 329 265 l 1,7,-1
 291 0 l 1,8,-1
 193 0 l 1,9,-1
 231 265 l 1,0,-1
303 749 m 1,10,-1
 213 749 l 1,11,-1
 226 847 l 1,12,-1
 316 847 l 1,13,-1
 303 749 l 1,10,-1
492 749 m 1,14,-1
 401 749 l 1,15,-1
 414 847 l 1,16,-1
 505 847 l 1,17,-1
 492 749 l 1,14,-1
EndSplineSet
EndChar

StartChar: Zcaron
Encoding: 381 381 202
Width: 595
Flags: MW
HStem: 0 89<153 514> 597 89<112 440 99 603> 875 20G<202 282 282 282 471 551 551 551>
LayerCount: 2
Fore
SplineSet
514 0 m 1,0,-1
 -9 0 l 1,1,-1
 -3 38 l 1,2,-1
 440 597 l 1,3,-1
 99 597 l 1,4,-1
 112 686 l 1,5,-1
 603 686 l 1,6,-1
 597 648 l 1,7,-1
 153 89 l 1,8,-1
 527 89 l 1,9,-1
 514 0 l 1,0,-1
317 750 m 1,10,-1
 202 895 l 1,11,-1
 282 895 l 1,12,-1
 364 806 l 1,13,-1
 471 895 l 1,14,-1
 551 895 l 1,15,-1
 395 750 l 1,16,-1
 317 750 l 1,10,-1
EndSplineSet
EndChar

StartChar: zcaron
Encoding: 382 382 203
Width: 463
Flags: MW
HStem: 0 75<135 383> 436 75<82 306 72 446> 700 20G<102 182 182 182 371 451 451 451>
LayerCount: 2
Fore
SplineSet
383 0 m 1,0,-1
 -4 0 l 1,1,-1
 1 38 l 1,2,-1
 306 436 l 1,3,-1
 72 436 l 1,4,-1
 82 511 l 1,5,-1
 446 511 l 1,6,-1
 441 474 l 1,7,-1
 135 75 l 1,8,-1
 393 75 l 1,9,-1
 383 0 l 1,0,-1
217 575 m 1,10,-1
 102 720 l 1,11,-1
 182 720 l 1,12,-1
 264 631 l 1,13,-1
 371 720 l 1,14,-1
 451 720 l 1,15,-1
 295 575 l 1,16,-1
 217 575 l 1,10,-1
EndSplineSet
EndChar

StartChar: florin
Encoding: 402 402 204
Width: 340
Flags: MW
HStem: -184 74<-10 2 -18.5 40.5> 436 75<75 125 66 134 227 338> 654 74<291 304 252 312.5>
LayerCount: 2
Fore
SplineSet
-80 -165 m 1,0,-1
 -72 -96 l 1,1,2
 -42 -110 -42 -110 -20.5 -110 c 128,-1,3
 1 -110 1 -110 9.5 -108 c 128,-1,4
 18 -106 18 -106 28 -100 c 0,5,6
 48 -88 48 -88 54 -46 c 2,7,-1
 125 436 l 1,8,-1
 66 436 l 1,9,-1
 75 511 l 1,10,-1
 134 511 l 1,11,-1
 147 602 l 2,12,13
 165 728 165 728 290 728 c 0,14,15
 342 728 342 728 374 709 c 1,16,-1
 365 640 l 1,17,18
 335 654 335 654 311.5 654 c 128,-1,19
 288 654 288 654 276.5 650.5 c 128,-1,20
 265 647 265 647 254 632 c 128,-1,21
 243 617 243 617 239 590 c 2,22,-1
 227 511 l 1,23,-1
 347 511 l 1,24,-1
 338 436 l 1,25,-1
 218 436 l 1,26,-1
 147 -58 l 2,27,28
 138 -122 138 -122 100 -153 c 128,-1,29
 62 -184 62 -184 6 -184 c 128,-1,30
 -50 -184 -50 -184 -80 -165 c 1,0,-1
EndSplineSet
EndChar

StartChar: circumflex
Encoding: 710 710 205
Width: 536
Flags: MW
HStem: 575 21G<80 160 80 80 349 349 349 429> 700 20G<237 315 315 315>
LayerCount: 2
Fore
SplineSet
160 575 m 1,0,-1
 80 575 l 1,1,-1
 237 720 l 1,2,-1
 315 720 l 1,3,-1
 429 575 l 1,4,-1
 349 575 l 1,5,-1
 268 664 l 1,6,-1
 160 575 l 1,0,-1
EndSplineSet
EndChar

StartChar: caron
Encoding: 711 711 206
Width: 536
Flags: MW
HStem: 575 21G<216 216 216 294> 700 20G<101 181 181 181 370 450 450 450>
LayerCount: 2
Fore
SplineSet
216 575 m 1,0,-1
 101 720 l 1,1,-1
 181 720 l 1,2,-1
 263 631 l 1,3,-1
 370 720 l 1,4,-1
 450 720 l 1,5,-1
 294 575 l 1,6,-1
 216 575 l 1,0,-1
EndSplineSet
EndChar

StartChar: breve
Encoding: 728 728 207
Width: 520
Flags: MW
HStem: 613 62<228.5 290.5 228.5 304> 613 124<75 304>
LayerCount: 2
Fore
SplineSet
74 729 m 0,0,1
 74 735 74 735 75 737 c 1,2,-1
 142 737 l 1,3,4
 147 710 147 710 180 692.5 c 128,-1,5
 213 675 213 675 259.5 675 c 0,6,7
 306 675 306 675 343 692.5 c 128,-1,8
 380 710 380 710 392 737 c 1,9,-1
 460 737 l 1,10,11
 454 693 454 693 391 653 c 128,-1,12
 328 613 328 613 253 613 c 0,13,14
 178 613 178 613 126 649.5 c 128,-1,15
 74 686 74 686 74 729 c 0,0,1
EndSplineSet
EndChar

StartChar: dotaccent
Encoding: 729 729 208
Width: 280
Flags: MW
HStem: 604 132<124.5 150.5>
VStem: 73 133<657.5 679.5>
LayerCount: 2
Fore
SplineSet
89 619.5 m 128,-1,1
 73 635 73 635 73 663 c 128,-1,2
 73 691 73 691 93.5 713.5 c 128,-1,3
 114 736 114 736 144 736 c 128,-1,4
 174 736 174 736 190 719 c 128,-1,5
 206 702 206 702 206 674.5 c 128,-1,6
 206 647 206 647 183.5 625.5 c 128,-1,7
 161 604 161 604 133 604 c 128,-1,0
 105 604 105 604 89 619.5 c 128,-1,1
EndSplineSet
EndChar

StartChar: ring
Encoding: 730 730 209
Width: 340
Flags: MW
HStem: 545 41<148 179.5 148 189> 706 41<155 187>
VStem: 65 45<626.5 660.5 626.5 671> 225 45<632 665.5>
LayerCount: 2
Fore
SplineSet
92 571 m 128,-1,1
 65 597 65 597 65 641 c 128,-1,2
 65 685 65 685 98 716 c 128,-1,3
 131 747 131 747 173.5 747 c 128,-1,4
 216 747 216 747 243 720.5 c 128,-1,5
 270 694 270 694 270 651.5 c 128,-1,6
 270 609 270 609 237 577 c 128,-1,7
 204 545 204 545 161.5 545 c 128,-1,0
 119 545 119 545 92 571 c 128,-1,1
128 687.5 m 128,-1,9
 110 669 110 669 110 643.5 c 128,-1,10
 110 618 110 618 125 602 c 128,-1,11
 140 586 140 586 164 586 c 128,-1,12
 188 586 188 586 206.5 605 c 128,-1,13
 225 624 225 624 225 649 c 128,-1,14
 225 674 225 674 210 690 c 128,-1,15
 195 706 195 706 170.5 706 c 128,-1,8
 146 706 146 706 128 687.5 c 128,-1,9
EndSplineSet
EndChar

StartChar: ogonek
Encoding: 731 731 210
Width: 340
Flags: MW
HStem: -143 47<160.5 170.5> -20 20G<132 186 186 186>
VStem: 67 63<-76.5 -63.5>
LayerCount: 2
Fore
SplineSet
67 -83 m 0,0,1
 67 -39 67 -39 132 0 c 1,2,-1
 186 0 l 1,3,4
 165 -9 165 -9 147.5 -28 c 128,-1,5
 130 -47 130 -47 130 -65 c 0,6,7
 130 -96 130 -96 170 -96 c 0,8,9
 193 -96 193 -96 239 -82 c 1,10,-1
 247 -119 l 1,11,12
 203.5 -143 203.5 -143 160.25 -143 c 0,13,14
 67 -143 67 -143 67 -83 c 0,0,1
EndSplineSet
EndChar

StartChar: tilde
Encoding: 732 732 211
Width: 364
Flags: MW
HStem: 613 69<254.5 296 254.5 303> 647 70<85 127>
LayerCount: 2
Fore
SplineSet
40 613 m 1,0,-1
 -8 613 l 1,1,2
 -1 653 -1 653 32 685 c 128,-1,3
 65 717 65 717 118 717 c 0,4,5
 151 717 151 717 203.5 699.5 c 128,-1,6
 256 682 256 682 281 682 c 0,7,8
 326 682 326 682 341 717 c 1,9,-1
 391 717 l 1,10,11
 384 676 384 676 351 644.5 c 128,-1,12
 318 613 318 613 264 613 c 0,13,14
 231 613 231 613 178.5 630 c 128,-1,15
 126 647 126 647 100 647 c 0,16,17
 55 647 55 647 40 613 c 1,0,-1
EndSplineSet
EndChar

StartChar: hungarumlaut
Encoding: 733 733 212
Width: 442
Flags: MW
HStem: 575 145<39 244 39 244 194 194 194 244 155 264>
LayerCount: 2
Fore
SplineSet
109 575 m 1,0,-1
 39 575 l 1,1,-1
 155 720 l 1,2,-1
 244 720 l 1,3,-1
 244 715 l 1,4,-1
 109 575 l 1,0,-1
264 575 m 1,5,-1
 194 575 l 1,6,-1
 309 720 l 1,7,-1
 399 720 l 1,8,-1
 399 715 l 1,9,-1
 264 575 l 1,5,-1
EndSplineSet
EndChar

StartChar: pi
Encoding: 960 960 213
Width: 627
Flags: MW
HStem: 0 21G<39 129 39 39 392 392 392 481> 437 74<139.5 633 262 262 262 436 527 527 527 614>
VStem: 386 92<34.5 55.5>
LayerCount: 2
Fore
SplineSet
129 0 m 1,0,-1
 39 0 l 1,1,2
 76 76 76 76 115.5 208 c 128,-1,3
 155 340 155 340 171 437 c 1,4,5
 88 437 88 437 50 425 c 1,6,-1
 46 482 l 1,7,8
 89 511 89 511 210 511 c 2,9,-1
 633 511 l 1,10,-1
 614 437 l 1,11,-1
 527 437 l 1,12,-1
 487 152 l 2,13,14
 478 90 478 90 478 54 c 0,15,16
 478 18 478 18 481 0 c 1,17,-1
 392 0 l 1,18,19
 386 10 386 10 386 45 c 0,20,21
 386 80 386 80 395 143 c 2,22,-1
 436 437 l 1,23,-1
 262 437 l 1,24,25
 242 331 242 331 202 195.5 c 128,-1,26
 162 60 162 60 129 0 c 1,0,-1
EndSplineSet
EndChar

StartChar: endash
Encoding: 8211 8211 214
Width: 637
Flags: MW
HStem: 223 95<72 558 60 571>
LayerCount: 2
Fore
SplineSet
558 223 m 1,0,-1
 60 223 l 1,1,-1
 72 318 l 1,2,-1
 571 318 l 1,3,-1
 558 223 l 1,0,-1
EndSplineSet
EndChar

StartChar: emdash
Encoding: 8212 8212 215
Width: 1056
Flags: MW
HStem: 223 94<75 971 63 984>
LayerCount: 2
Fore
SplineSet
971 223 m 1,0,-1
 63 223 l 1,1,-1
 75 317 l 1,2,-1
 984 317 l 1,3,-1
 971 223 l 1,0,-1
EndSplineSet
EndChar

StartChar: quoteleft
Encoding: 8216 8216 216
Width: 224
Flags: MW
HStem: 451 21G<83 184 83 83> 666 20G<151 203 203 203>
LayerCount: 2
Fore
SplineSet
184 451 m 1,0,-1
 83 451 l 1,1,-1
 95 536 l 1,2,-1
 151 686 l 1,3,-1
 203 686 l 1,4,-1
 159 562 l 1,5,-1
 200 562 l 1,6,-1
 184 451 l 1,0,-1
EndSplineSet
EndChar

StartChar: quoteright
Encoding: 8217 8217 217
Width: 218
Flags: MW
HStem: 451 21G<96 148 96 96> 666 20G<115 216 216 216>
LayerCount: 2
Fore
SplineSet
148 451 m 1,0,-1
 96 451 l 1,1,-1
 140 575 l 1,2,-1
 99 575 l 1,3,-1
 115 686 l 1,4,-1
 216 686 l 1,5,-1
 204 601 l 1,6,-1
 148 451 l 1,0,-1
EndSplineSet
EndChar

StartChar: quotesinglbase
Encoding: 8218 8218 218
Width: 237
Flags: MW
HStem: -124 21G<24 76 24 24> 0 21G<27 68 27 27> 91 20G<43 144 144 144>
LayerCount: 2
Fore
SplineSet
76 -124 m 1,0,-1
 24 -124 l 1,1,-1
 68 0 l 1,2,-1
 27 0 l 1,3,-1
 43 111 l 1,4,-1
 144 111 l 1,5,-1
 132 26 l 1,6,-1
 76 -124 l 1,0,-1
EndSplineSet
EndChar

StartChar: quotedblleft
Encoding: 8220 8220 219
Width: 366
Flags: MW
HStem: 451 111<159 184 83 200 159 225 301 326>
LayerCount: 2
Fore
SplineSet
184 451 m 1,0,-1
 83 451 l 1,1,-1
 95 536 l 1,2,-1
 151 686 l 1,3,-1
 203 686 l 1,4,-1
 159 562 l 1,5,-1
 200 562 l 1,6,-1
 184 451 l 1,0,-1
326 451 m 1,7,-1
 225 451 l 1,8,-1
 237 536 l 1,9,-1
 293 686 l 1,10,-1
 345 686 l 1,11,-1
 301 562 l 1,12,-1
 342 562 l 1,13,-1
 326 451 l 1,7,-1
EndSplineSet
EndChar

StartChar: quotedblright
Encoding: 8221 8221 220
Width: 360
Flags: MW
HStem: 451 235<115 148 96 216 115 238 257 290> 575 111<115 140 99 216 115 241 257 282>
LayerCount: 2
Fore
SplineSet
148 451 m 1,0,-1
 96 451 l 1,1,-1
 140 575 l 1,2,-1
 99 575 l 1,3,-1
 115 686 l 1,4,-1
 216 686 l 1,5,-1
 204 601 l 1,6,-1
 148 451 l 1,0,-1
290 451 m 1,7,-1
 238 451 l 1,8,-1
 282 575 l 1,9,-1
 241 575 l 1,10,-1
 257 686 l 1,11,-1
 358 686 l 1,12,-1
 346 601 l 1,13,-1
 290 451 l 1,7,-1
EndSplineSet
EndChar

StartChar: quotedblbase
Encoding: 8222 8222 221
Width: 379
Flags: MW
HStem: -124 235<43 76 24 144 43 166 185 218> 0 111<43 68 27 144 43 169 185 210>
LayerCount: 2
Fore
SplineSet
76 -124 m 1,0,-1
 24 -124 l 1,1,-1
 68 0 l 1,2,-1
 27 0 l 1,3,-1
 43 111 l 1,4,-1
 144 111 l 1,5,-1
 132 26 l 1,6,-1
 76 -124 l 1,0,-1
218 -124 m 1,7,-1
 166 -124 l 1,8,-1
 210 0 l 1,9,-1
 169 0 l 1,10,-1
 185 111 l 1,11,-1
 286 111 l 1,12,-1
 274 26 l 1,13,-1
 218 -124 l 1,7,-1
EndSplineSet
EndChar

StartChar: dagger
Encoding: 8224 8224 222
Width: 511
Flags: MW
HStem: -170 21G<143 237 143 143> 666 20G<267 355 355 355>
LayerCount: 2
Fore
SplineSet
248 435 m 1,0,-1
 41 417 l 1,1,-1
 54 510 l 1,2,-1
 257 493 l 1,3,-1
 267 686 l 1,4,-1
 355 686 l 1,5,-1
 311 493 l 1,6,-1
 518 510 l 1,7,-1
 505 417 l 1,8,-1
 302 435 l 1,9,-1
 237 -170 l 1,10,-1
 143 -170 l 1,11,-1
 248 435 l 1,0,-1
EndSplineSet
EndChar

StartChar: daggerdbl
Encoding: 8225 8225 223
Width: 531
Flags: MW
HStem: -175 21G<156 243 156 156> 666 20G<277 364 364 364>
LayerCount: 2
Fore
SplineSet
200 18 m 1,0,-1
 -7 0 l 1,1,-1
 6 93 l 1,2,3
 79 85 79 85 208 76 c 1,4,-1
 212 166 l 2,5,6
 213 196 213 196 217 256 c 1,7,8
 233 331 233 331 259 434 c 1,9,-1
 155 425 l 1,10,-1
 51 417 l 1,11,-1
 64 510 l 1,12,-1
 267 492 l 1,13,-1
 277 686 l 1,14,-1
 364 686 l 1,15,-1
 320 492 l 1,16,-1
 527 510 l 1,17,-1
 514 417 l 1,18,-1
 312 434 l 1,19,-1
 304 256 l 1,20,21
 283 166 l 2,22,23
 269 106 269 106 261 76 c 1,24,25
 393 85 393 85 469 93 c 1,26,-1
 456 0 l 1,27,-1
 253 18 l 1,28,29
 247 -110 247 -110 243 -175 c 1,30,-1
 156 -175 l 1,31,-1
 200 18 l 1,0,-1
EndSplineSet
EndChar

StartChar: bullet
Encoding: 8226 8226 224
Width: 600
Flags: MW
HStem: 191 21G<246.5 339> 476 20G<277 365>
LayerCount: 2
Fore
SplineSet
191.5 228.5 m 128,-1,1
 155 266 155 266 155 329.5 c 128,-1,2
 155 393 155 393 204 444.5 c 128,-1,3
 253 496 253 496 327 496 c 0,4,5
 384 496 384 496 421 458.5 c 128,-1,6
 458 421 458 421 458 358.5 c 128,-1,7
 458 296 458 296 410 243.5 c 128,-1,8
 362 191 362 191 284 191 c 0,9,0
 228 191 228 191 191.5 228.5 c 128,-1,1
EndSplineSet
EndChar

StartChar: ellipsis
Encoding: 8230 8230 225
Width: 734
Flags: MW
HStem: 0 111<44 131 29 146 292 379 539 626>
LayerCount: 2
Fore
SplineSet
131 0 m 1,0,-1
 29 0 l 1,1,-1
 44 111 l 1,2,-1
 146 111 l 1,3,-1
 131 0 l 1,0,-1
379 0 m 1,4,-1
 277 0 l 1,5,-1
 292 111 l 1,6,-1
 394 111 l 1,7,-1
 379 0 l 1,4,-1
626 0 m 1,8,-1
 524 0 l 1,9,-1
 539 111 l 1,10,-1
 641 111 l 1,11,-1
 626 0 l 1,8,-1
EndSplineSet
EndChar

StartChar: perthousand
Encoding: 8240 8240 226
Width: 1034
Flags: MW
HStem: -1 55<496.5 503 503 510 829.5 836 836 843> 0 21G<69 139 69 69> 293 55<552 559 559 565.5 885 892 892 898.5> 337 55<154.5 161 161 168> 631 55<210 217 217 223.5>
VStem: 55 64<427 443.5 427 443.5> 259 63<580.5 595> 397 64<89 105.5 89 105.5> 601 63<242.5 257> 730 64<89 105.5 89 105.5> 934 63<242.5 257>
LayerCount: 2
Fore
SplineSet
55 438 m 0,0,1
 55 444 55 444 72 565 c 1,2,3
 78 618 78 618 114 652 c 128,-1,4
 150 686 150 686 210 686 c 2,5,-1
 217 686 l 2,6,7
 266 686 266 686 294 657 c 128,-1,8
 322 628 322 628 322 583 c 0,9,10
 322 570 322 570 306 458 c 1,11,12
 297 404 297 404 262.5 370.5 c 128,-1,13
 228 337 228 337 168 337 c 2,14,-1
 161 337 l 2,15,16
 112 337 112 337 83.5 365.5 c 128,-1,17
 55 394 55 394 55 438 c 0,0,1
139 0 m 1,18,-1
 69 0 l 1,19,-1
 584 686 l 1,20,-1
 652 686 l 1,21,-1
 139 0 l 1,18,-1
137 572 m 0,22,23
 119 454 119 454 119 436.5 c 128,-1,24
 119 419 119 419 133 405.5 c 128,-1,25
 147 392 147 392 173.5 392 c 128,-1,26
 200 392 200 392 218.5 408.5 c 128,-1,27
 237 425 237 425 241 452.5 c 128,-1,28
 245 480 245 480 248 502.5 c 128,-1,29
 251 525 251 525 253 537 c 128,-1,30
 255 549 255 549 256 557.5 c 128,-1,31
 257 566 257 566 257.5 569.5 c 128,-1,32
 258 573 258 573 258.5 575.5 c 128,-1,33
 259 578 259 578 259 581 c 0,34,35
 259 603 259 603 245 617 c 128,-1,36
 231 631 231 631 204 631 c 128,-1,37
 177 631 177 631 159 614.5 c 128,-1,38
 141 598 141 598 137 572 c 0,22,23
397 100 m 0,39,40
 397 106 397 106 414 227 c 1,41,42
 420 280 420 280 456 314 c 128,-1,43
 492 348 492 348 552 348 c 2,44,-1
 559 348 l 2,45,46
 608 348 608 348 636 319 c 128,-1,47
 664 290 664 290 664 245 c 0,48,49
 664 232 664 232 648 120 c 1,50,51
 639 66 639 66 604.5 32.5 c 128,-1,52
 570 -1 570 -1 510 -1 c 2,53,-1
 503 -1 l 2,54,55
 454 -1 454 -1 425.5 27.5 c 128,-1,56
 397 56 397 56 397 100 c 0,39,40
479 234 m 0,57,58
 461 116 461 116 461 98.5 c 128,-1,59
 461 81 461 81 475 67.5 c 128,-1,60
 489 54 489 54 515.5 54 c 128,-1,61
 542 54 542 54 560.5 70.5 c 128,-1,62
 579 87 579 87 583 114.5 c 128,-1,63
 587 142 587 142 590 164.5 c 128,-1,64
 593 187 593 187 595 199 c 128,-1,65
 597 211 597 211 598 219.5 c 128,-1,66
 599 228 599 228 599.5 231.5 c 128,-1,67
 600 235 600 235 600.5 237.5 c 128,-1,68
 601 240 601 240 601 243 c 0,69,70
 601 265 601 265 587 279 c 128,-1,71
 573 293 573 293 546 293 c 128,-1,72
 519 293 519 293 501 276.5 c 128,-1,73
 483 260 483 260 479 234 c 0,57,58
730 100 m 0,74,75
 730 106 730 106 747 227 c 1,76,77
 753 280 753 280 789 314 c 128,-1,78
 825 348 825 348 885 348 c 2,79,-1
 892 348 l 2,80,81
 941 348 941 348 969 319 c 128,-1,82
 997 290 997 290 997 245 c 0,83,84
 997 232 997 232 981 120 c 1,85,86
 972 66 972 66 937.5 32.5 c 128,-1,87
 903 -1 903 -1 843 -1 c 2,88,-1
 836 -1 l 2,89,90
 787 -1 787 -1 758.5 27.5 c 128,-1,91
 730 56 730 56 730 100 c 0,74,75
812 234 m 0,92,93
 794 116 794 116 794 98.5 c 128,-1,94
 794 81 794 81 808 67.5 c 128,-1,95
 822 54 822 54 848.5 54 c 128,-1,96
 875 54 875 54 893.5 70.5 c 128,-1,97
 912 87 912 87 916 114.5 c 128,-1,98
 920 142 920 142 923 164.5 c 128,-1,99
 926 187 926 187 928 199 c 128,-1,100
 930 211 930 211 931 219.5 c 128,-1,101
 932 228 932 228 932.5 231.5 c 128,-1,102
 933 235 933 235 933.5 237.5 c 128,-1,103
 934 240 934 240 934 243 c 0,104,105
 934 265 934 265 920 279 c 128,-1,106
 906 293 906 293 879 293 c 128,-1,107
 852 293 852 293 834 276.5 c 128,-1,108
 816 260 816 260 812 234 c 0,92,93
EndSplineSet
EndChar

StartChar: guilsinglleft
Encoding: 8249 8249 227
Width: 276
Flags: MW
HStem: 163 21G<151 151 151 202> 491 20G<200 251 251 251>
LayerCount: 2
Fore
SplineSet
151 163 m 1,0,-1
 55 337 l 1,1,-1
 200 511 l 1,2,-1
 251 511 l 1,3,-1
 134 337 l 1,4,-1
 202 163 l 1,5,-1
 151 163 l 1,0,-1
EndSplineSet
EndChar

StartChar: guilsinglright
Encoding: 8250 8250 228
Width: 278
Flags: MW
HStem: 163 21G<37 88 37 37> 491 20G<86 137 137 137>
LayerCount: 2
Fore
SplineSet
88 163 m 1,0,-1
 37 163 l 1,1,-1
 157 337 l 1,2,-1
 86 511 l 1,3,-1
 137 511 l 1,4,-1
 236 337 l 1,5,-1
 88 163 l 1,0,-1
EndSplineSet
EndChar

StartChar: fraction
Encoding: 8260 8260 229
Width: 479
Flags: MW
HStem: 0 21G<-36 22 -36 -36> 666 20G<478 534 534 534>
LayerCount: 2
Fore
SplineSet
22 0 m 1,0,-1
 -36 0 l 1,1,-1
 478 686 l 1,2,-1
 534 686 l 1,3,-1
 22 0 l 1,0,-1
EndSplineSet
EndChar

StartChar: Euro
Encoding: 8364 8364 230
Width: 562
Flags: MW
HStem: -8 88<370 405.5> 238 65<32 122 32 123 23 122 223 223 223 419> 377 64<51 132 42 150 249 438> 604 89<436 504>
LayerCount: 2
Fore
SplineSet
123 238 m 1,0,-1
 23 238 l 1,1,-1
 32 303 l 1,2,-1
 122 303 l 1,3,4
 130 365 130 365 132 377 c 1,5,-1
 42 377 l 1,6,-1
 51 441 l 1,7,-1
 150 441 l 1,8,9
 180 552 180 552 275 622.5 c 128,-1,10
 370 693 370 693 494 693 c 0,11,12
 527 693 527 693 581 685 c 1,13,-1
 568 594 l 1,14,15
 535 604 535 604 490 604 c 0,16,17
 408 604 408 604 339.5 558 c 128,-1,18
 271 512 271 512 249 441 c 1,19,-1
 447 441 l 1,20,-1
 438 377 l 1,21,-1
 228 377 l 1,22,23
 218 341 218 341 218 303 c 1,24,-1
 428 303 l 1,25,-1
 419 238 l 1,26,-1
 223 238 l 1,27,28
 237 164 237 164 290 122 c 128,-1,29
 343 80 343 80 424 80 c 0,30,31
 454 80 454 80 497 93 c 1,32,-1
 485 2 l 1,33,34
 441 -8 441 -8 389 -8 c 0,35,36
 281 -8 281 -8 207 58 c 128,-1,37
 133 124 133 124 123 238 c 1,0,-1
EndSplineSet
EndChar

StartChar: trademark
Encoding: 8482 8482 231
Width: 898
Flags: MW
HStem: 288 21G<170 235 170 170 383 383 383 441 567 567 567 629 759 759 759 824> 626 60<100 217 92 414 282 282 282 406>
LayerCount: 2
Fore
SplineSet
217 626 m 1,0,-1
 92 626 l 1,1,-1
 100 686 l 1,2,-1
 414 686 l 1,3,-1
 406 626 l 1,4,-1
 282 626 l 1,5,-1
 235 288 l 1,6,-1
 170 288 l 1,7,-1
 217 626 l 1,0,-1
801 603 m 1,8,-1
 629 288 l 1,9,-1
 567 288 l 1,10,11
 509.765625 510.578125 509.765625 510.578125 484 600 c 1,12,-1
 441 288 l 1,13,-1
 383 288 l 1,14,-1
 438 686 l 1,15,-1
 537 686 l 1,16,17
 551 636 551 636 577 535.5 c 128,-1,18
 603 435 603 435 616 385 c 1,19,-1
 781 686 l 1,20,-1
 879 686 l 1,21,-1
 824 288 l 1,22,-1
 759 288 l 1,23,24
 781.5 445.5 781.5 445.5 801 603 c 1,8,-1
EndSplineSet
EndChar

StartChar: uni2126
Encoding: 8486 8486 232
Width: 699
Flags: MW
HStem: 0 90<16 51 16 268 4 51 591 614> 608 87<398 415 415 440.5>
VStem: 68 96<223 225 161.5 278.5> 548 104<436.5 508>
LayerCount: 2
Fore
SplineSet
506 80 m 1,0,1
 531 82.5 531 82.5 591 90 c 1,2,-1
 626 90 l 1,3,-1
 614 0 l 1,4,-1
 350 0 l 1,5,-1
 357 49 l 1,6,7
 430 62 430 62 472 120 c 128,-1,8
 514 178 514 178 531 292 c 128,-1,9
 548 406 548 406 548 447 c 0,10,11
 548 534 548 534 508.5 571 c 128,-1,12
 469 608 469 608 386.5 608 c 128,-1,13
 304 608 304 608 251.5 553.5 c 128,-1,14
 199 499 199 499 181.5 375.5 c 128,-1,15
 164 252 164 252 164 213 c 0,16,17
 164 137 164 137 191 98.5 c 128,-1,18
 218 60 218 60 275 49 c 1,19,-1
 268 0 l 1,20,-1
 4 0 l 1,21,-1
 16 90 l 1,22,-1
 51 90 l 1,23,24
 63 88 63 88 76 86.5 c 128,-1,25
 89 85 89 85 106 83 c 128,-1,26
 123 81 123 81 135 80 c 1,27,28
 68 144 68 144 68 267 c 0,29,30
 68 310 68 310 77 370 c 0,31,32
 102 537 102 537 188.5 616 c 128,-1,33
 275 695 275 695 398 695 c 2,34,-1
 415 695 l 2,35,36
 522 695 522 695 587 634 c 128,-1,37
 652 573 652 573 652 447 c 0,38,39
 652 412 652 412 641 337 c 0,40,41
 618 167 618 167 506 80 c 1,0,1
EndSplineSet
EndChar

StartChar: partialdiff
Encoding: 8706 8706 233
Width: 568
Flags: MW
HStem: -10 82<197 219 219 227> 358 73<223.5 296 200 312> 610 86<230 316 218 333>
VStem: 16 94<151.5 231 151.5 256.5> 433 97<486 559 495 524.5>
LayerCount: 2
Fore
SplineSet
16 181 m 0,0,1
 16 291 16 291 90 361 c 128,-1,2
 164 431 164 431 266 431 c 0,3,4
 312 431 312 431 352 411.5 c 128,-1,5
 392 392 392 392 415 357 c 1,6,-1
 432 477 l 2,7,8
 433 480 433 480 433 486 c 2,9,-1
 433 494 l 2,10,11
 433 541 433 541 399.5 575.5 c 128,-1,12
 366 610 366 610 316 610 c 2,13,-1
 218 610 l 1,14,-1
 230 696 l 1,15,-1
 333 696 l 2,16,17
 420 696 420 696 475 642 c 128,-1,18
 530 588 530 588 530 501 c 0,19,20
 530 484 530 484 527 464 c 2,21,-1
 492 221 l 2,22,23
 476 115 476 115 406.5 52.5 c 128,-1,24
 337 -10 337 -10 227 -10 c 2,25,-1
 219 -10 l 2,26,27
 128 -10 128 -10 72 42 c 128,-1,28
 16 94 16 94 16 181 c 0,0,1
110 185 m 0,29,30
 110 134 110 134 144 103 c 128,-1,31
 178 72 178 72 243 72 c 0,32,33
 308 72 308 72 353 122.5 c 128,-1,34
 398 173 398 173 398 245 c 0,35,36
 398 296 398 296 364.5 327 c 128,-1,37
 331 358 331 358 266 358 c 0,38,39
 201 358 201 358 155.5 307.5 c 128,-1,40
 110 257 110 257 110 185 c 0,29,30
EndSplineSet
EndChar

StartChar: uni2206
Encoding: 8710 8710 234
Width: 624
Flags: MW
HStem: 0 75<85 481 85 558> 666 20G<317 420 420 420>
LayerCount: 2
Fore
SplineSet
558 0 m 1,0,-1
 -14 0 l 1,1,-1
 -5 65 l 1,2,-1
 317 686 l 1,3,-1
 420 686 l 1,4,-1
 567 65 l 1,5,-1
 558 0 l 1,0,-1
356 597 m 1,6,-1
 85 75 l 1,7,-1
 481 75 l 1,8,-1
 356 597 l 1,6,-1
EndSplineSet
EndChar

StartChar: product
Encoding: 8719 8719 235
Width: 749
Flags: MW
HStem: -98 21G<84 186 84 84 453 555 453 453> 611 97<83 184 70 783 286 286 286 553 655 655 655 770>
LayerCount: 2
Fore
SplineSet
184 611 m 1,0,-1
 70 611 l 1,1,-1
 83 708 l 1,2,-1
 783 708 l 1,3,-1
 770 611 l 1,4,-1
 655 611 l 1,5,-1
 555 -98 l 1,6,-1
 453 -98 l 1,7,-1
 553 611 l 1,8,-1
 286 611 l 1,9,-1
 186 -98 l 1,10,-1
 84 -98 l 1,11,-1
 184 611 l 1,0,-1
EndSplineSet
EndChar

StartChar: summation
Encoding: 8721 8721 236
Width: 605
Flags: MW
HStem: -98 102<127 520> 613 95<233 602 233 233>
LayerCount: 2
Fore
SplineSet
520 -98 m 1,0,-1
 -28 -98 l 1,1,-1
 -19 -35 l 1,2,-1
 304 306 l 1,3,-1
 88 642 l 1,4,-1
 97 708 l 1,5,-1
 615 708 l 1,6,-1
 602 613 l 1,7,-1
 233 613 l 1,8,-1
 232 609 l 1,9,-1
 422 318 l 1,10,-1
 127 8 l 1,11,-1
 127 4 l 1,12,-1
 534 4 l 1,13,-1
 520 -98 l 1,0,-1
EndSplineSet
EndChar

StartChar: minus
Encoding: 8722 8722 237
Width: 615
Flags: MW
HStem: 221 91<54 553 41 566>
LayerCount: 2
Fore
SplineSet
553 221 m 1,0,-1
 41 221 l 1,1,-1
 54 312 l 1,2,-1
 566 312 l 1,3,-1
 553 221 l 1,0,-1
EndSplineSet
EndChar

StartChar: radical
Encoding: 8730 8730 238
Width: 565
Flags: MW
HStem: -148 21G<180 270 180 180> 793 20G<567 647 647 647>
LayerCount: 2
Fore
SplineSet
-8 263 m 1,0,-1
 -20 323 l 1,1,-1
 152 391 l 1,2,3
 169 310 169 310 230 44 c 0,4,5
 231 40 231 40 241 -30 c 1,6,7
 297 111 297 111 567 813 c 1,8,-1
 647 813 l 1,9,-1
 270 -148 l 1,10,-1
 180 -148 l 1,11,12
 82 253 82 253 73 293 c 1,13,-1
 -8 263 l 1,0,-1
EndSplineSet
EndChar

StartChar: infinity
Encoding: 8734 8734 239
Width: 766
Flags: MW
HStem: 113 63<158.5 210.5 529.5 590.5> 386 62<179.5 242.5 551.5 606.5>
VStem: 35 63<238 296.5 238 310> 664 65<273 325.5>
LayerCount: 2
Fore
SplineSet
35 254 m 0,0,1
 35 339 35 339 87.5 393.5 c 128,-1,2
 140 448 140 448 224 448 c 0,3,4
 277 448 277 448 317 418 c 128,-1,5
 357 388 357 388 394 333 c 1,6,7
 435.333333333 374.333333333 435.333333333 374.333333333 470.166666667 399.666666667 c 128,-1,8
 505 425 505 425 518.5 430.5 c 0,9,10
 561.454545455 448 561.454545455 448 595 448 c 0,11,12
 656 448 656 448 692.5 410 c 128,-1,13
 729 372 729 372 729 302.5 c 128,-1,14
 729 233 729 233 676.5 173 c 128,-1,15
 624 113 624 113 543 113 c 0,16,17
 496 113 496 113 456.5 139.5 c 128,-1,18
 417 166 417 166 374 229 c 1,19,20
 317 172 317 172 271 142.5 c 128,-1,21
 225 113 225 113 168 113 c 128,-1,22
 111 113 111 113 73 152.5 c 128,-1,23
 35 192 35 192 35 254 c 0,0,1
131 349.5 m 128,-1,25
 98 313 98 313 98 269 c 128,-1,26
 98 225 98 225 122 200.5 c 128,-1,27
 146 176 146 176 186 176 c 0,28,29
 210 176 210 176 224 182 c 128,-1,30
 238 188 238 188 246 191.5 c 128,-1,31
 254 195 254 195 265.5 203.5 c 128,-1,32
 277 212 277 212 283 215.5 c 128,-1,33
 289 219 289 219 301 230 c 128,-1,34
 313 241 313 241 316.5 244.5 c 128,-1,35
 320 248 320 248 333.5 261 c 128,-1,36
 347 274 347 274 349 276 c 1,37,38
 292 386 292 386 210 386 c 0,39,24
 164 386 164 386 131 349.5 c 128,-1,25
418 282 m 1,40,41
 459 223 459 223 488.5 199.5 c 128,-1,42
 518 176 518 176 561 176 c 128,-1,43
 604 176 604 176 634 215.5 c 128,-1,44
 664 255 664 255 664 297 c 128,-1,45
 664 339 664 339 641.5 362.5 c 128,-1,46
 619 386 619 386 581 386 c 0,47,48
 543.766666667 386 543.766666667 386 505.5 358 c 0,49,50
 462.636363636 326.636363636 462.636363636 326.636363636 418 282 c 1,40,41
EndSplineSet
EndChar

StartChar: integral
Encoding: 8747 8747 240
Width: 266
Flags: MW
HStem: -250 21G<-50 -18> -220 20G<-43 -29.5> 730 20G<272.5 306>
LayerCount: 2
Fore
SplineSet
-50 -250 m 1,0,-1
 -43 -200 l 1,1,2
 -15 -200 -15 -200 15.5 -185.5 c 128,-1,3
 46 -171 46 -171 49 -142 c 0,4,5
 66 39 66 39 95.5 314 c 128,-1,6
 125 589 125 589 131 630 c 128,-1,7
 137 671 137 671 155 694.5 c 128,-1,8
 173 718 173 718 199.5 729.5 c 0,9,10
 246.739130435 750 246.739130435 750 306 750 c 1,11,-1
 299 701 l 1,12,13
 271 701 271 701 239 686.5 c 128,-1,14
 207 672 207 672 204 644 c 0,15,16
 181.333333333 396 181.333333333 396 122 -138 c 1,17,18
 107 -250 107 -250 -50 -250 c 1,0,-1
EndSplineSet
EndChar

StartChar: approxequal
Encoding: 8776 8776 241
Width: 615
Flags: MW
HStem: 61 21G<-7 -7> 73 85<363 418.5> 139 85<154 210> 282 85<393 448.5> 348 85<184 240> 425 20G<610 610>
LayerCount: 2
Fore
SplineSet
-7 61 m 1,0,-1
 4 146 l 1,1,2
 26.5 167 26.5 167 55 185 c 0,3,4
 121 224 121 224 171 224 c 0,5,6
 221 224 221 224 292 191 c 128,-1,7
 363 158 363 158 415.5 158 c 0,8,9
 468 158 468 158 530 197 c 1,10,11
 558.5 213.5 558.5 213.5 581 236 c 1,12,-1
 569 151 l 1,13,14
 546.5 128.5 546.5 128.5 518 112 c 1,15,16
 456 73 456 73 404 73 c 0,17,18
 352 73 352 73 281 106 c 128,-1,19
 210 139 210 139 159 139 c 0,20,21
 108 139 108 139 44 100 c 1,22,23
 17 82 17 82 -7 61 c 1,0,-1
22 270 m 1,24,-1
 34 355 l 1,25,26
 56.5 376 56.5 376 85 394 c 0,27,28
 151 433 151 433 201 433 c 0,29,30
 251 433 251 433 322 400 c 128,-1,31
 393 367 393 367 446 367 c 0,32,33
 499 367 499 367 559 406 c 0,34,35
 586 422.5 586 422.5 610 445 c 1,36,-1
 599 360 l 1,37,38
 576.5 337.5 576.5 337.5 548 321 c 1,39,40
 486 282 486 282 434 282 c 0,41,42
 382 282 382 282 311 315 c 128,-1,43
 240 348 240 348 189.5 348 c 0,44,45
 139 348 139 348 73 309 c 0,46,47
 44.5 291 44.5 291 22 270 c 1,24,-1
EndSplineSet
EndChar

StartChar: notequal
Encoding: 8800 8800 242
Width: 615
Flags: MW
HStem: 0 189<53 135 53 53> 105 84<41 141 29 206 41 223 287 532> 318 83<71 315 59 380 71 396 461 562> 318 193<59 552 396 552 473 552 473 562>
LayerCount: 2
Fore
SplineSet
141 105 m 1,0,-1
 29 105 l 1,1,-1
 41 189 l 1,2,-1
 206 189 l 1,3,-1
 315 318 l 1,4,-1
 59 318 l 1,5,-1
 71 401 l 1,6,-1
 380 401 l 1,7,8
 407 432 407 432 473 511 c 1,9,-1
 552 511 l 1,10,-1
 461 401 l 1,11,-1
 574 401 l 1,12,-1
 562 318 l 1,13,-1
 396 318 l 1,14,15
 324 232 324 232 287 189 c 1,16,-1
 544 189 l 1,17,-1
 532 105 l 1,18,-1
 223 105 l 1,19,-1
 135 0 l 1,20,-1
 53 0 l 1,21,22
 125 88 125 88 141 105 c 1,0,-1
EndSplineSet
EndChar

StartChar: lessequal
Encoding: 8804 8804 243
Width: 615
Flags: MW
HStem: 0 83<22 520 10 532> 500 20G<593 593>
LayerCount: 2
Fore
SplineSet
520 0 m 1,0,-1
 10 0 l 1,1,-1
 22 83 l 1,2,-1
 532 83 l 1,3,-1
 520 0 l 1,0,-1
47 258 m 1,4,-1
 62 365 l 1,5,6
 434.731707317 475.43902439 434.731707317 475.43902439 593 520 c 1,7,-1
 580 430 l 1,8,-1
 135 312 l 1,9,10
 233 283 233 283 547 194 c 1,11,-1
 535 104 l 1,12,13
 167 221 167 221 47 258 c 1,4,-1
EndSplineSet
EndChar

StartChar: greaterequal
Encoding: 8805 8805 244
Width: 615
Flags: MW
HStem: 0 83<28 526 16 538> 500 20G<89 89>
LayerCount: 2
Fore
SplineSet
526 0 m 1,0,-1
 16 0 l 1,1,-1
 28 83 l 1,2,-1
 538 83 l 1,3,-1
 526 0 l 1,0,-1
31 104 m 1,4,-1
 43 194 l 1,5,-1
 488 312 l 1,6,7
 287 368 287 368 76 430 c 1,8,-1
 89 520 l 1,9,10
 134 506 134 506 576 365 c 1,11,-1
 561 258 l 1,12,13
 482 235 482 235 393.5 209.5 c 0,14,15
 182.28 148.64 182.28 148.64 31 104 c 1,4,-1
EndSplineSet
EndChar

StartChar: lozenge
Encoding: 9674 9674 245
Width: 489
Flags: MW
HStem: 0 21G<151 151 151 254> 666 20G<248 351 351 351>
LayerCount: 2
Fore
SplineSet
151 0 m 1,0,-1
 36 343 l 1,1,-1
 248 686 l 1,2,-1
 351 686 l 1,3,-1
 468 343 l 1,4,-1
 254 0 l 1,5,-1
 151 0 l 1,0,-1
289 611 m 1,6,-1
 119 343 l 1,7,-1
 214 74 l 1,8,9
 289 196 289 196 386 343 c 1,10,11
 360 409 360 409 289 611 c 1,6,-1
EndSplineSet
EndChar

StartChar: uniFB01
Encoding: 64257 64257 247
Width: 602
Flags: MW
HStem: -184 74<-10 2 -18.5 40.5> 0 21G<386 480 386 386> 436 75<76 125 66 134 227 338> 633 95 654 74<291 304 252 312.5>
LayerCount: 2
Fore
SplineSet
-80 -165 m 1,0,-1
 -72 -96 l 1,1,2
 -42 -110 -42 -110 -20.5 -110 c 128,-1,3
 1 -110 1 -110 9.5 -108 c 128,-1,4
 18 -106 18 -106 28 -100 c 0,5,6
 48 -88 48 -88 54 -46 c 2,7,-1
 125 436 l 1,8,-1
 66 436 l 1,9,-1
 76 511 l 1,10,-1
 134 511 l 1,11,-1
 147 602 l 2,12,13
 165 728 165 728 290 728 c 0,14,15
 342 728 342 728 374 709 c 1,16,-1
 365 640 l 1,17,18
 335 654 335 654 311.5 654 c 128,-1,19
 288 654 288 654 276.5 650.5 c 128,-1,20
 265 647 265 647 254 632 c 128,-1,21
 243 617 243 617 239 590 c 2,22,-1
 227 511 l 1,23,-1
 347 511 l 1,24,-1
 338 436 l 1,25,-1
 218 436 l 1,26,-1
 147 -58 l 2,27,28
 138 -122 138 -122 100 -153 c 128,-1,29
 62 -184 62 -184 6 -184 c 128,-1,30
 -50 -184 -50 -184 -80 -165 c 1,0,-1
480 0 m 1,31,-1
 386 0 l 1,32,-1
 458 511 l 1,33,-1
 552 511 l 1,34,-1
 480 0 l 1,31,-1
571 633 m 1,35,-1
 473 633 l 1,36,-1
 485 720 l 1,37,-1
 583 720 l 1,38,-1
 571 633 l 1,35,-1
EndSplineSet
EndChar

StartChar: uniFB02
Encoding: 64258 64258 248
Width: 608
Flags: MW
HStem: -184 74<-10 2 -18.5 40.5> 0 21G<386 480 386 386> 436 75<76 125 66 134 227 338> 654 74<291 304 252 312.5>
LayerCount: 2
Fore
SplineSet
-80 -165 m 1,0,-1
 -72 -96 l 1,1,2
 -42 -110 -42 -110 -20.5 -110 c 128,-1,3
 1 -110 1 -110 9.5 -108 c 128,-1,4
 18 -106 18 -106 28 -100 c 0,5,6
 48 -88 48 -88 54 -46 c 2,7,-1
 125 436 l 1,8,-1
 66 436 l 1,9,-1
 76 511 l 1,10,-1
 134 511 l 1,11,-1
 147 602 l 2,12,13
 165 728 165 728 290 728 c 0,14,15
 342 728 342 728 374 709 c 1,16,-1
 365 640 l 1,17,18
 335 654 335 654 311.5 654 c 128,-1,19
 288 654 288 654 276.5 650.5 c 128,-1,20
 265 647 265 647 254 632 c 128,-1,21
 243 617 243 617 239 590 c 2,22,-1
 227 511 l 1,23,-1
 347 511 l 1,24,-1
 338 436 l 1,25,-1
 218 436 l 1,26,-1
 147 -58 l 2,27,28
 138 -122 138 -122 100 -153 c 128,-1,29
 62 -184 62 -184 6 -184 c 128,-1,30
 -50 -184 -50 -184 -80 -165 c 1,0,-1
480 0 m 1,31,-1
 386 0 l 1,32,-1
 487 720 l 1,33,-1
 581 720 l 1,34,-1
 480 0 l 1,31,-1
EndSplineSet
EndChar
